<svg xmlns="http://www.w3.org/2000/svg" viewBox="0 0 756.48211 275.75997"><defs><style>.cls-1{fill:#fff;}</style></defs><title>Ресурс 1</title><g id="Слой_2" data-name="Слой 2"><g id="Слой_1-2" data-name="Слой 1"><path d="M756.72.48V276H.48c-.0128-.43957-.03681-.87917-.03682-1.31874Q.44068,138.25488.4415,1.82848V.44148h1.795q376.40249,0,752.80494.00167C755.601.44316,756.16044.46721,756.72.48ZM184.918,169.09871V113.09815H1.484v56.00056Zm.01993-167.62159H1.50609V56.759H184.93788ZM1.45949,224.768H184.90632V170.426H1.45949ZM1.45761,111.72637H184.904V58.10818H1.45761ZM601.46076,56.77121H755.6287V1.46489H601.46076Zm.00914,113.64489v54.33108H755.646V170.4161ZM755.63561,169.098V113.0991H601.48274V169.098ZM601.455,111.72516H755.62085V58.10939H601.455ZM184.93421,226.11933H1.46382v48.55543H184.93421ZM322.57487,56.76551H463.78278V1.47069H322.57487ZM600.13461,1.48119H465.1413V56.755H600.13461Zm-278.898,55.296V1.50136h-134.953V56.77721ZM463.81524,170.43854H322.62734v54.31681h141.1879ZM321.25692,113.077H186.30513v56.0003H321.25692Zm142.56075-.00083H322.62433v56.002H463.81767Zm1.31813,56.01005H600.10449v-56.018H465.1358Zm.014-110.98963v53.61071H600.12828V58.09663ZM186.25858,224.76915H321.2283V170.42474H186.25858ZM463.7986,111.739V58.138H322.60145v53.601Zm136.33964,58.69648H465.18373v54.32323H600.13824ZM755.65635,226.1151H601.50377v48.564H755.65635ZM321.239,111.73943V58.13762H186.28082v53.60181Zm1.34021,162.95033H463.78884V226.10414H322.57921Zm-136.32189-.00184h134.969V226.106h-134.969Zm413.88034-48.572H465.18455v48.56224H600.13766Z" transform="translate(-0.23784 -0.24004)"/><path class="cls-1" d="M756.72.48c-.55951-.01283-1.119-.03688-1.67848-.03689Q378.639.44071,2.23653.44148H.4415v1.387q.00006,136.4264.0017,272.85279c0,.43957.024.87917.03682,1.31874-.08-.04-.22652-.07579-.22933-.12065C.23067,275.56058.24,275.24.24,274.92V.24Q377.94.24,755.64.24991A5.20938,5.20938,0,0,1,756.72.48Z" transform="translate(-0.23784 -0.24004)"/><path class="cls-1" d="M184.918,169.09871H1.484V113.09815H184.918ZM82.25921,148.43982h3.03945V133.71968H82.24043v5.44006H76.51362V133.7352H73.47644v14.67826h3.09111v-6.5471h5.69166ZM98.64662,133.7194H87.984v14.69354H99.01668v-2.54958H91.00285v-3.88008h7.05707v-2.63685H91.00051v-3.06659h7.64611Zm1.93332,10.15954a4.384,4.384,0,0,0,1.78945,3.65708c2.22526,1.67438,6.78389,1.589,8.93622-.16368a4.25487,4.25487,0,0,0,1.45371-4.20886,3.39057,3.39057,0,0,0-2.59-2.70473c-.52744-.182-1.07313-.31478-1.616-.4476-1.24151-.30374-2.50867-.526-3.7185-.924a1.85845,1.85845,0,0,1-1.10643-1.07332,1.82855,1.82855,0,0,1,.48076-1.461c.95838-.952,4.41625-.94736,5.0475.87469a1.07667,1.07667,0,0,0,.71325.62028,21.23423,21.23423,0,0,0,2.34483.02948,4.40085,4.40085,0,0,0-1.98011-3.65146,7.89707,7.89707,0,0,0-7.671-.06542,4.13659,4.13659,0,0,0-1.865,4.03069,3.4412,3.4412,0,0,0,2.65194,3.191c.64682.19993,1.309.35046,1.9645.522,1.157.30278,2.34416.52258,3.46325.92954a1.40348,1.40348,0,0,1,.54272,2.40613c-1.41228,1.41981-4.9542.84394-5.8662-.91982a1.29236,1.29236,0,0,0-.83152-.6125A16.19984,16.19984,0,0,0,100.57994,143.87894Zm-29.07108-5.38248a5.13158,5.13158,0,0,0-3.57561-4.63937c-4.415-1.59719-8.57265.805-9.2757,5.449a12.05355,12.05355,0,0,0,.02278,3.68726c.70307,4.30822,4.20312,6.5475,8.44352,5.51283a5.6899,5.6899,0,0,0,4.34487-5.11009c-.62863,0-1.25466.03529-1.87485-.00978a1.06669,1.06669,0,0,0-1.25663.78269,2.97,2.97,0,0,1-2.91881,1.90961,3.08712,3.08712,0,0,1-3.06147-1.721,7.13108,7.13108,0,0,1-.0452-6.46642,3.14985,3.14985,0,0,1,3.12527-1.8217,3.04672,3.04672,0,0,1,2.98636,1.808,1.26482,1.26482,0,0,0,.8615.59147A18.43178,18.43178,0,0,0,71.50886,138.49646Zm46.08254-2.23363v12.14892h3.14027V136.24093h4.31824v-2.51088H113.16142v2.53278Z" transform="translate(-0.23784 -0.24004)"/><path class="cls-1" d="M184.93788,1.47712V56.759H1.50609V1.47712ZM101.87909,22.58443V37.31875h11.08305V34.7552h-8.02268V30.87152h7.02313V28.239h-7.02528V25.1009h7.62392V22.58443ZM70.38487,32.75812a4.26719,4.26719,0,0,0,1.737,3.65581c2.22835,1.67076,6.77518,1.59533,8.93786-.15744a4.25017,4.25017,0,0,0,1.46032-4.20582,3.38849,3.38849,0,0,0-2.58392-2.71013c-.52711-.18276-1.07324-.31437-1.6161-.44724-1.24151-.30388-2.50839-.52707-3.71852-.92445a1.86473,1.86473,0,0,1-1.1122-1.06779,1.83206,1.83206,0,0,1,.47426-1.46328c.94388-.95189,4.40862-.9595,5.05019.86318a1.08269,1.08269,0,0,0,.70848.62737,21.0958,21.0958,0,0,0,2.34839.02982,4.37974,4.37974,0,0,0-1.96967-3.6485,7.90855,7.90855,0,0,0-7.67134-.074,4.13925,4.13925,0,0,0-1.87177,4.02792,3.43886,3.43886,0,0,0,2.646,3.19563c.64665.20055,1.30871.35159,1.96431.523,1.157.30253,2.34411.5217,3.46337.928a1.40571,1.40571,0,0,1,.555,2.40513c-1.40342,1.42218-4.95421.84782-5.87282-.907a1.4446,1.4446,0,0,0-.94471-.622A12.94615,12.94615,0,0,0,70.38487,32.75812Zm18.683-7.544h7.34651c-2.35463,2.9427-4.46108,5.70449-6.718,8.33725a4.30241,4.30241,0,0,0-.84443,3.75832h11.409V34.75491H92.61763c.32838-.47374.50737-.76444.71769-1.03036,2.031-2.56785,4.00374-5.18582,6.13106-7.67145A4.03739,4.03739,0,0,0,100.227,22.603H89.06792ZM87.49827,37.35592V22.60084H84.54218V37.35592Z" transform="translate(-0.23784 -0.24004)"/><path class="cls-1" d="M1.45949,224.768V170.426H184.90632v54.342ZM122.45317,205.4007v-3.877h7.03663v-2.63515h-7.03864v-3.136h7.63705v-2.50423H119.43583v14.71634h11.01161v-2.564ZM92.76126,193.22252v14.7343h11.07845V205.391H95.82179v-3.884h7.0609V198.916h-7.063v-3.18029h7.61958v-2.51323Zm-3.32033,5.65836H82.37525v-3.13571h7.62867v-2.49224H79.31706v14.708h11.0868v-2.56166H82.37748v-3.8839h7.06345ZM64.7231,197.59926a4.02153,4.02153,0,0,0-1.95252-3.66961,7.46058,7.46058,0,0,0-7.5553-.06814,3.90676,3.90676,0,0,0-1.94483,3.9775,3.42965,3.42965,0,0,0,2.591,3.24008c.64491.206,1.306.36214,1.962.53235,1.15774.30043,2.34362.51861,3.46856.91188a1.41322,1.41322,0,0,1,.66035,2.38491c-1.32009,1.44766-5.014.92972-5.88476-.80471-.13823-.27536-.42261-.63775-.673-.66642a20.56789,20.56789,0,0,0-2.32579-.03178,4.44416,4.44416,0,0,0,1.81729,3.682c2.21544,1.616,6.69238,1.54216,8.84321-.15043a4.242,4.242,0,0,0,1.52033-4.18243,3.41081,3.41081,0,0,0-2.64523-2.79207c-.52808-.18022-1.07451-.30994-1.61742-.44286-1.24153-.30391-2.50947-.5255-3.71715-.92882a1.81364,1.81364,0,0,1-1.066-1.10229,1.78377,1.78377,0,0,1,.52162-1.44256c1.36513-1.18207,4.11781-.59936,5.02414.94463a1.2262,1.2262,0,0,0,.7479.58128A19.789,19.789,0,0,0,64.7231,197.59926Zm40.25017-4.36265a1.05516,1.05516,0,0,0-.01013.29708q2.31987,6.93713,4.65224,13.87c.407,1.20365,1.442.4412,2.1733.62427.64394.16121.997-.15095,1.213-.80135,1.44759-4.35917,2.93429-8.70534,4.39892-13.05888a8.09323,8.09323,0,0,0,.19608-1.0078,11.63788,11.63788,0,0,1-1.62716-.01235c-1.08065-.17078-1.52841.28043-1.798,1.32579-.74849,2.90235-1.61868,5.77339-2.44825,8.65463-.09255.32145-.2331.62906-.46335,1.24027-.87531-3.07808-1.66-5.83778-2.44489-8.59743C108.01933,192.97333,108.01923,192.97336,104.97327,193.23661Zm-34.49136,12.1185V193.22552H67.4915v14.73031H77.73169v-2.60072Z" transform="translate(-0.23784 -0.24004)"/><path class="cls-1" d="M1.45761,111.72637V58.10818H184.904v53.61819ZM89.16473,88.7582V73.97767H86.28958v9.80262a4.30781,4.30781,0,0,1-.99135-1.281c-1.47193-2.60886-2.914-5.23526-4.43823-7.81315a2.00833,2.00833,0,0,0-1.27216-.772,13.17811,13.17811,0,0,0-2.25324-.03392V88.67944h2.832V78.55672c1.9976,3.09376,3.75232,6.22419,5.54915,9.33025a1.73609,1.73609,0,0,0,.99008.8324A15.45919,15.45919,0,0,0,89.16473,88.7582Zm12.94363-5.50158a3.449,3.449,0,0,1-2.97245,3.07816,3.86229,3.86229,0,0,1-4.3643-2.21393,6.89905,6.89905,0,0,1,.14754-5.81417c1.18154-2.38393,4.64793-3.00353,6.10733-.94053,1.09312,1.54522,2.29688,1.03879,3.84268,1.08029a15.01116,15.01116,0,0,0-.79165-1.93382c-1.96415-3.29368-7.646-3.93637-10.57166-1.12352-2.54987,2.45155-2.86745,5.54149-1.95918,8.77212a6.31131,6.31131,0,0,0,7.69388,4.60985,16.79429,16.79429,0,0,0,3.41024-1.62128l.35789,1.5355h1.87375V80.85915H98.9117v2.39747Zm20.54744,5.4351V82.11108h5.73787v6.56443h3.02275V73.964h-3.10407v5.431h-5.72687v-5.4152h-3.02423v14.712Zm-55.43394-6.427H74.32V79.63151H67.26214V76.51984h5.608c2.22429,0,2.2258-.0001,2.06822-2.21367a1.20024,1.20024,0,0,0-.12876-.32525H64.204v14.6932H75.27741V86.10579H67.22186Zm43.40408-5.76784V88.65435h3.14072V76.486h4.32681V73.9668H106.19835v2.53006Zm-58.51046-2.5546V88.60643c.14459.06491.2148.12379.28531.12414q3.95547.01968,7.911.02838c2.36516.00413,2.36609.00074,2.11034-2.37134-.00714-.06628-.08522-.12493-.22753-.32163H55.148V73.94226Z" transform="translate(-0.23784 -0.24004)"/><path class="cls-1" d="M601.46076,56.77121V1.46489H755.6287V56.77121ZM668.4381,22.28446c1.45254,2.33251,2.71541,4.40849,4.0343,6.44829a1.27857,1.27857,0,0,1-.00428,1.61372c-1.23018,1.86763-2.4109,3.76791-3.60281,5.66057-.19752.31369-.3552.6525-.62438,1.15281a14.87711,14.87711,0,0,1,2.00186.01529,1.96,1.96,0,0,0,2.23834-1.29026c.65068-1.26416,1.43771-2.45815,2.26552-3.84947.88606,1.57847,1.64772,2.97579,2.45661,4.34519.18152.30739.51123.71037.80267.73663,1.009.0909,2.03121.035,3.2536.035-.308-.54708-.4844-.89107-.68831-1.21782-1.20533-1.93119-2.3932-3.874-3.64154-5.77713a1.175,1.175,0,0,1,.00914-1.50576c1.061-1.59619,2.07276-3.2252,3.10014-4.84369.28371-.44694.55482-.90187.939-1.528a21.79322,21.79322,0,0,1-2.1832-.01332,1.70958,1.70958,0,0,0-1.96,1.12048c-.576,1.21213-1.30939,2.34955-2.08623,3.714-.82436-1.4818-1.5126-2.77985-2.269-4.03685a1.55024,1.55024,0,0,0-.9208-.74443A30.84046,30.84046,0,0,0,668.4381,22.28446Zm14.63467.06065V37.15984c2.778,0,5.485,0,8.192,0,2.362,0,2.36285-.00006,2.11974-2.36578-.00685-.06668-.08291-.12624-.22054-.32369H686.1132V22.34511Z" transform="translate(-0.23784 -0.24004)"/><path class="cls-1" d="M601.4699,170.4161H755.646v54.33108H601.4699Zm65.627,35.3725-.06656-.30194c.342-.178.69334-.34026,1.02445-.53669,1.8883-1.12032,3.83666-2.15485,5.63941-3.39986a12.65163,12.65163,0,0,0,4.61-5.26106c1.50405-3.42552.4449-7.27-2.59218-8.75766a10.68041,10.68041,0,0,0-10.25121.23769,5.92011,5.92011,0,0,0-2.96116,6.09633c.05321.33047.31547.83242.56315.888a16.1534,16.1534,0,0,0,2.32605.21165c-.31388-3.62026.802-5.45382,3.69065-5.978a9.33418,9.33418,0,0,1,3.21339-.00058c2.63163.46113,3.94055,2.37276,3.66223,5.03214a7.79356,7.79356,0,0,1-2.95266,5.05194,40.50527,40.50527,0,0,1-9.44859,6.0892c-1.66652.80442-1.83463,1.2002-1.25525,3.04571H679.3407V205.7886Zm27.22828-16.32977c-5.19879,5.40866-8.89524,11.19469-8.92066,18.72986h3.1081c.13307-1.35677.18943-2.63616.39363-3.8915a24.78294,24.78294,0,0,1,7.87735-14.18757,2.9603,2.9603,0,0,0,.87709-3.10088H681.1605v2.45009Z" transform="translate(-0.23784 -0.24004)"/><path class="cls-1" d="M755.63561,169.098H601.48274V113.0991H755.63561ZM678.34847,136.292a5.85592,5.85592,0,0,0-2.203-3.78615c-4.58027-3.68125-12.15169-1.69473-14.28187,3.76244a16.49888,16.49888,0,0,0-.78328,8.50328c.90685,6.24654,5.28334,9.3115,11.4672,8.08591a7.35859,7.35859,0,0,0,6.14455-7.5987c-.07347-3.85506-2.38148-6.39894-6.42076-6.93618-3.30392-.43944-6.27257.23068-8.47875,3.08559-.50953-3.43592,1.37561-7.02229,4.10262-7.96523,3.38719-1.17123,5.8742-.11013,7.84072,3.43438Zm17.32318,5.51653.444.10991a41.69827,41.69827,0,0,1-1.17944,5.15776c-.91342,2.542-2.875,3.70346-5.59564,3.675-2.81654-.02939-4.22426-1.03981-5.29834-3.7962a2.3988,2.3988,0,0,0-.24088-.36121l-2.63039.61283a6.47162,6.47162,0,0,0,2.67885,4.30872,9.16561,9.16561,0,0,0,14.0407-4.52615,17.99756,17.99756,0,0,0,.64336-7.94547c-.366-3.01091-1.43016-5.75-4.32715-7.19057a10.3277,10.3277,0,0,0-10.22367.31172,6.24209,6.24209,0,0,0-3.06814,6.54894,5.9246,5.9246,0,0,0,4.52015,5.45987C689.23284,145.24753,692.81023,144.99163,695.67165,141.80857Z" transform="translate(-0.23784 -0.24004)"/><path class="cls-1" d="M601.455,111.72516V58.10939H755.62085v53.61577Zm94.24616-37.60287c-4.62052,0-9.09544.01039-13.57019-.00966-.79811-.00357-.75521.5299-.81217,1.0408-.37166,3.33671-.76265,6.67155-1.08984,10.01261a2.44151,2.44151,0,0,0,.35431,1.34653c.86045-.04768,1.85866.72371,2.56588-.47913a6.24318,6.24318,0,0,1,8.433-2.25713,5.33986,5.33986,0,0,1-.17725,9.19429c-3.00369,1.46886-7.13824.54052-8.37627-2.079a1.65461,1.65461,0,0,0-2.30044-1.04984c-.34079.09133-.69375.13715-1.16034.22667a6.57883,6.57883,0,0,0,3.2836,4.55757,10.5438,10.5438,0,0,0,10.65111-.03777c2.87267-1.60389,4.03453-5.06856,3.14889-8.71433-.72791-2.99658-2.99133-4.8224-6.34032-5.095a8.31639,8.31639,0,0,0-7.59316,2.83912c.28647-2.27116.58295-4.15717.73758-6.05473.07131-.8739.43394-1.03016,1.20164-1.02258,3.238.03191,6.47637.01555,9.71461.01083.42539-.00062.85078-.036,1.32931-.05761ZM661.448,76.67864h13.17861c-5.1873,5.39868-8.882,11.185-8.901,18.70376h3.10465c.13617-1.37045.19482-2.65007.3999-3.90577a24.78141,24.78141,0,0,1,7.89018-14.18253,2.90626,2.90626,0,0,0,.85236-3.07686H661.448Z" transform="translate(-0.23784 -0.24004)"/><path class="cls-1" d="M184.93421,226.11933v48.55543H1.46382V226.11933Zm-46.61853,23.6112a4.18241,4.18241,0,0,0,1.80557-4.8523,3.70911,3.70911,0,0,0-3.57185-2.88915c-2.735-.12529-5.48-.03287-8.24217-.03287V256.6796h2.9326v-5.667c1.43421,0,2.67168-.03753,3.90586.01031,1.29923.05036,1.76812.56259,1.84813,1.86357.06365,1.03495.08,2.0763.21989,3.10081a1.05972,1.05972,0,0,0,.68594.73231,22.72627,22.72627,0,0,0,2.46444.035c-.09025-1.22112-.17559-2.26348-.24236-3.307C140.02916,252.00057,140.04145,250.51193,138.31568,249.73053Zm-37.886,7.0294c2.00982,0,3.8834.00117,5.757-.00023,3.60892-.00273,5.7099-1.59715,6.50327-5.10158a12.99334,12.99334,0,0,0,.28833-3.5623c-.18284-3.21559-1.77685-5.65122-4.26864-5.92116a77.79323,77.79323,0,0,0-8.27993-.06646Zm-42.86909-7.47636c-.02106,6.80113,5.47686,8.65143,9.58989,7.24969,3.58743-1.22262,4.6605-4.29217,4.53047-7.73264-.1066-2.82068-1.10734-5.23956-3.91742-6.47687C62.53282,240.02062,57.57013,243.41192,57.56056,249.28357Zm-10.80574.86382h5.81766v6.53769h2.97319V241.95435H52.49v5.45033h-5.7269v-5.43462H43.71091v14.6885h3.04391Zm78.20263.13248v-2.65318h-7.05258v-3.10687c1.94078,0,3.77679,0,5.6128,0,2.22252,0,2.22407-.00017,2.05883-2.22049a1.11791,1.11791,0,0,0-.12989-.31586h-10.6004V256.672H125.915v-2.57059h-8.05062v-3.82155c1.2078,0,2.35522,0,3.50265,0C122.51983,250.27984,123.67267,250.27987,124.95745,250.27987Zm16.90392,1.83686a4.38967,4.38967,0,0,0,1.806,3.673c2.19078,1.63154,6.67644,1.56811,8.84123-.11737a4.24439,4.24439,0,0,0,1.52635-4.29041,3.39256,3.39256,0,0,0-2.606-2.69062c-.52831-.17988-1.07366-.31316-1.61656-.446-1.2415-.30375-2.509-.52523-3.71789-.92549a1.45063,1.45063,0,0,1-.58906-2.53979c.97424-.94328,4.436-.92459,5.037.90849a.96656.96656,0,0,0,.60829.59434c.77924.07339,1.56963.02827,2.47585.02827a4.35026,4.35026,0,0,0-2.24054-3.76845,7.50393,7.50393,0,0,0-7.24791-.03944,3.936,3.936,0,0,0-2.06994,4.02952,3.45692,3.45692,0,0,0,2.68207,3.29634c.60967.18621,1.22985.33876,1.84752.49787,1.15832.29836,2.34328.51762,3.47065.90513a1.41945,1.41945,0,0,1,.70191,2.37779c-1.28644,1.45773-5.011.95236-5.90493-.75638a1.59816,1.59816,0,0,0-1.00676-.70533A11.26114,11.26114,0,0,0,141.86137,252.11673ZM41.39406,246.31856a3.86118,3.86118,0,0,0-1.95967-3.70474,7.47733,7.47733,0,0,0-7.45528-.06226,3.91483,3.91483,0,0,0-1.99263,3.95493,3.45354,3.45354,0,0,0,2.65919,3.31407c.64714.19933,1.30886.3515,1.96453.52292,1.15713.30255,2.34446.52148,3.46376.92792a1.40386,1.40386,0,0,1,.54979,2.40521c-1.40614,1.4216-4.96147.85084-5.86284-.91611a1.17119,1.17119,0,0,0-.71377-.6099,20.38371,20.38371,0,0,0-2.2638-.029,4.36465,4.36465,0,0,0,1.78217,3.65194c2.225,1.6774,6.77327,1.5941,8.9362-.15914a4.24974,4.24974,0,0,0,1.45791-4.2065,3.39229,3.39229,0,0,0-2.58585-2.70823c-.45159-.15747-.91838-.27525-1.38364-.389-1.31932-.32241-2.66213-.569-3.95135-.98341a1.85359,1.85359,0,0,1-1.10966-1.06983,1.82485,1.82485,0,0,1,.47666-1.46212c.96374-.95764,4.42084-.94537,5.04909.86871a1.07845,1.07845,0,0,0,.71035.62473A19.42844,19.42844,0,0,0,41.39406,246.31856Zm41.12578-4.40245c0,.5316,0,.96211,0,1.39265-.00009,2.75562.01571,5.51134-.00593,8.26677a2.48,2.48,0,0,1-2.72007,2.78218,2.59161,2.59161,0,0,1-2.99757-2.88847c-.0303-2.75528-.00814-5.51115-.00842-8.26676q-.00006-.62633,0-1.25169H73.782a1.05252,1.05252,0,0,0-.11352.2806c-.01257,2.91488-.02969,5.82977-.02621,8.74467.0046,3.83534,1.53451,5.6881,5.35053,5.95816,3.81119.26968,6.7484-1.241,6.68183-5.82381-.03828-2.63525-.00705-5.2715-.00711-7.90731,0-.4176,0-.8352,0-1.287Zm6.065,14.84376c2.76824,0,5.47387,0,8.17949,0,2.35656,0,2.35744-.00008,2.14555-2.34571-.00614-.06809-.076-.13037-.20015-.33117H91.64789V241.9639H88.58481Z" transform="translate(-0.23784 -0.24004)"/><path class="cls-1" d="M322.57487,56.76551V1.47069H463.78278V56.76551Zm80.74084-19.669V22.35418h-4.38525c-.86071,3.75905-1.707,7.45521-2.55334,11.15138a3.11261,3.11261,0,0,1-.62724-1.40261c-.69531-2.993-1.37124-5.99063-2.10463-8.9742-.07937-.323-.4708-.78851-.74362-.80724-1.25956-.08644-2.52834-.03814-3.80124-.03814V37.07374H391.92V25.63757c.98461,3.49369,1.82171,6.98485,2.496,10.50719.25307,1.32205,1.10153.95344,1.87424,1.01779.8102.06747,1.44161.02659,1.62794-1.035.33079-1.8848.79731-3.74609,1.21878-5.61457.37186-1.64865.75972-3.29368,1.14055-4.94032l.27885.0408V37.09651Z" transform="translate(-0.23784 -0.24004)"/><path class="cls-1" d="M600.13461,1.48119V56.755H465.1413V1.48119ZM530.34987,34.46767V22.37287h-3.03545V37.00459c.14332.06548.21334.12525.2836.1256q3.95533.01993,7.91068.02876c2.36555.00423,2.36643.00084,2.11436-2.36867-.00715-.0664-.0845-.12531-.22559-.32261Z" transform="translate(-0.23784 -0.24004)"/><path class="cls-1" d="M321.23665,56.77721h-134.953V1.50136h134.953ZM252.99307,32.76268a4.30006,4.30006,0,0,0,1.84152,3.70059c2.19044,1.59127,6.58763,1.52439,8.74511-.11321a4.23693,4.23693,0,0,0,1.58476-4.26734,3.42126,3.42126,0,0,0-2.67047-2.7706c-.52925-.17748-1.07475-.30964-1.61771-.4426-1.24146-.304-2.5101-.524-3.71646-.93022a1.787,1.787,0,0,1-1.039-1.1219,1.784,1.784,0,0,1,.54972-1.43,3.65373,3.65373,0,0,1,5.00921.99384c.1391.23676.41388.5288.648.54994.76983.06951,1.54989.02615,2.41752.02615a4.30944,4.30944,0,0,0-2.08441-3.68033,7.39963,7.39963,0,0,0-7.55206-.03791,3.90658,3.90658,0,0,0-1.91458,3.99167,3.43576,3.43576,0,0,0,2.61814,3.2187c.6457.20346,1.30752.35616,1.9633.527,1.15737.30162,2.34363.52117,3.46588.92079a1.40715,1.40715,0,0,1,.60814,2.39406c-1.36374,1.43753-4.99248.89394-5.8756-.8576-.13641-.27056-.43532-.61055-.69164-.64062A20.02891,20.02891,0,0,0,252.99307,32.76268Z" transform="translate(-0.23784 -0.24004)"/><path class="cls-1" d="M463.81524,170.43854v54.31681H322.62734V170.43854ZM379.542,194.48323c-.33038-4.36123,1.43806-6.21065,5.69888-6.1163.19984.00442.40029.00744.59924.02463a4.39373,4.39373,0,0,1,4.24717,5.36041,7.848,7.848,0,0,1-2.90672,4.82136,40.40036,40.40036,0,0,1-9.44373,6.09625c-1.704.82452-1.83392,1.119-1.29231,3.06406h17.021v-2.49509H381.22745a2.82012,2.82012,0,0,1,.96835-.75947c1.88835-1.1201,3.83707-2.15353,5.64108-3.39664a12.675,12.675,0,0,0,4.61824-5.25416c1.85821-4.20846-.09079-8.41371-4.44934-9.51962a11.44934,11.44934,0,0,0-7.30351.41684,6.1,6.1,0,0,0-4.07092,5.32378c-.2027,2.0356-.04661,2.22,1.99465,2.38428C378.89694,194.45537,379.169,194.46343,379.542,194.48323Zm30.75858-7.89049c-2.73194-.48762-3.10556-.35869-4.73025,1.5577-3.20334,3.77858-6.3832,7.5776-9.63076,11.31782a2.87323,2.87323,0,0,0-.59853,2.8664h12.32675v5.40109H410.361v-5.44538h3.91787v-2.19364h-3.97825Z" transform="translate(-0.23784 -0.24004)"/><path class="cls-1" d="M321.25692,113.077v56.0003H186.30513V113.077Zm-69.79924,18.23883c-.40526-.02786-.75445-.07234-1.1037-.07278-3.99773-.0049-7.99583.0253-11.993-.02442-.92157-.01147-1.22876.26344-1.3154,1.182-.31158,3.30217-.73445,6.59374-1.05772,9.895a2.37489,2.37489,0,0,0,.36429,1.33927c.85967-.04731,1.85551.7199,2.5628-.48878a6.2652,6.2652,0,0,1,8.54317-2.19535,5.35942,5.35942,0,0,1-.30146,9.14307c-3.00894,1.46688-7.13581.53733-8.37065-2.09055a1.6584,1.6584,0,0,0-2.30589-1.03981c-.34183.08784-.6935.13726-1.036.20334a6.01371,6.01371,0,0,0,3.1751,4.58455,10.5585,10.5585,0,0,0,10.65155-.04776c2.87-1.60853,4.0275-5.07358,3.13848-8.71854-.72961-2.99134-2.99668-4.81457-6.34731-5.08791a8.34544,8.34544,0,0,0-7.58345,2.83022c.276-2.18418.58907-3.99327.70324-5.81481.06841-1.09149.51582-1.278,1.486-1.25931,2.9972.05762,5.99622.021,8.99452.02094h1.79534Zm10.0924,21.23544c.13585-1.39326.191-2.67286.395-3.92824a24.78773,24.78773,0,0,1,7.87614-14.191,2.96722,2.96722,0,0,0,.88005-3.10338H254.20078v2.45066h13.16267c-5.19814,5.40937-8.89426,11.19707-8.91963,18.77194Z" transform="translate(-0.23784 -0.24004)"/><path class="cls-1" d="M463.81767,113.07621v56.002H322.62433v-56.002Zm-72.03693,23.2185a5.76134,5.76134,0,0,0-2.18953-3.78492c-4.58277-3.68253-12.143-1.70379-14.28372,3.75174a16.4791,16.4791,0,0,0-.788,8.50216c.899,6.24778,5.27241,9.31659,11.45947,8.09484a7.35841,7.35841,0,0,0,6.15313-7.59077c-.071-3.85834-2.38078-6.4094-6.41129-6.94333-3.30328-.43764-6.27621.21772-8.47831,3.07551-.54692-3.3668,1.35955-7.00669,4.08618-7.95481,3.38806-1.17811,5.90683-.10539,7.843,3.43341Zm22.13185,5.89444c-.16-1.4169-.21776-2.53815-.42211-3.632-.891-4.77015-4.25991-7.7164-8.91419-7.85193-5.0373-.14669-8.45871,2.441-9.65431,7.3567a15.95872,15.95872,0,0,0,.13687,8.1816,8.82951,8.82951,0,0,0,8.82932,6.88836c4.67815.04782,8.02646-2.33007,9.29358-6.75191A36.045,36.045,0,0,0,413.91259,142.18915Z" transform="translate(-0.23784 -0.24004)"/><path class="cls-1" d="M465.1358,169.08626v-56.018H600.10449v56.018Zm66.57972-32.8137a5.95674,5.95674,0,0,0-2.53746-4.01308,9.36978,9.36978,0,0,0-14.17571,4.62108,16.95623,16.95623,0,0,0-.33931,9.12154,9.17448,9.17448,0,0,0,13.95867,5.78519c4.5426-2.76943,4.61818-9.9308.13529-12.48088-3.13066-1.78084-8.96051-1.56621-11.30338,1.7697-.06615.09414-.23361.11712-.35384.17329l-.36141-.1688a36.11734,36.11734,0,0,1,1.553-5.07657c1.04232-2.23515,3.1364-2.95976,5.48982-2.92619,2.255.03218,4.03319.86352,4.9432,3.10279a1.07925,1.07925,0,0,0,.81862.57435A15.38184,15.38184,0,0,0,531.71552,136.27256Zm16.87019-4.90033c-2.10363-.39584-3.58482-.06918-4.93623,1.66818-3.01447,3.87552-6.28371,7.555-9.50174,11.26874a2.885,2.885,0,0,0-.55652,2.86343h12.352v5.3511h2.64586V147.0955h3.95437v-2.14737h-3.95777Z" transform="translate(-0.23784 -0.24004)"/><path class="cls-1" d="M465.14977,58.09663H600.12828v53.61071H465.14977ZM531.243,76.63152c-4.85877,5.455-8.51848,11.22936-8.561,18.76893h3.10682c.13119-1.33891.18843-2.61446.39047-3.86663a24.792,24.792,0,0,1,7.85712-14.19926,2.95619,2.95619,0,0,0,.89455-3.13845H518.42774v2.43541ZM544.271,74.221c-1.36576-.24342-2.36894-.25217-2.991,1.2419a4.17785,4.17785,0,0,1-3.20983,2.27384c-.65343.13764-1.32316.19818-2.01058.29727v2.28284a7.52986,7.52986,0,0,0,5.5531-1.38645v16.465H544.271Z" transform="translate(-0.23784 -0.24004)"/><path class="cls-1" d="M186.25858,224.76915V170.42474H321.2283v54.34441Zm51.95192-29.83272c-.0406-.37531-.07585-.64688-.09858-.91949a4.42462,4.42462,0,0,1,4.30169-5.13317,12.1206,12.1206,0,0,1,2.03716-.00727,4.38,4.38,0,0,1,4.28028,5.32758,7.90948,7.90948,0,0,1-2.97843,4.91138,40.6518,40.6518,0,0,1-9.35067,6.0236c-1.74633.847-1.82836,1.02273-1.34788,3.04956h17.06508v-2.50207H239.81682c2.29811-1.40967,4.53148-2.66044,6.633-4.10319a12.63317,12.63317,0,0,0,4.68079-5.35343c1.59856-3.71281.1793-7.67534-3.3203-9.04623a11.18469,11.18469,0,0,0-8.65646.10919,5.96406,5.96406,0,0,0-3.8311,4.84848c-.3509,2.357-.15671,2.60848,2.151,2.793C237.6679,194.94987,237.8643,194.93643,238.2105,194.93643Zm16.29678,7.20079a6.46423,6.46423,0,0,0,2.49006,4.71129,9.12043,9.12043,0,0,0,4.87154,1.82749,11.85441,11.85441,0,0,0,7.54052-1.29491,5.68918,5.68918,0,0,0,2.76858-6.04084c-.28412-2.36077-1.87151-3.49081-3.98765-4.09a5.84923,5.84923,0,0,1-.67611-.2991c.30755-.14039.48512-.22519.66556-.30322,2.29817-.99372,3.31269-2.42389,3.2903-4.64027a4.89006,4.89006,0,0,0-3.47982-4.80757,12.34722,12.34722,0,0,0-9.24735.1254,5.9618,5.9618,0,0,0-3.80274,5.793c.78252.16289,1.58722.33041,2.44571.50914.13526-.53463.234-.99777.37022-1.4496a4.19141,4.19141,0,0,1,2.53239-2.85716,8.27906,8.27906,0,0,1,6.42437.06766,3.20093,3.20093,0,0,1,.8678,5.41945,8.71444,8.71444,0,0,1-3.30023,1.1867,10.8861,10.8861,0,0,1-2.38538.03283v2.08941c1.73012.2302,3.37239.32837,4.95252.69461a3.158,3.158,0,0,1,2.52659,2.8718,3.67794,3.67794,0,0,1-1.49822,3.687c-2.11834,1.52732-6.72644,1.4398-8.74822-.23136a5.60289,5.60289,0,0,1-1.38094-1.76932c-.82086-1.63494-.77671-1.65785-2.65857-1.3604C254.935,202.03349,254.78464,202.07552,254.50728,202.13722Z" transform="translate(-0.23784 -0.24004)"/><path class="cls-1" d="M463.7986,111.739H322.60145V58.138H463.7986ZM413.8791,79.1581a5.94826,5.94826,0,0,0-2.273-3.81827c-4.64347-3.64258-12.1551-1.61133-14.24482,3.88032a16.58208,16.58208,0,0,0-.56,9.56671,9.14757,9.14757,0,0,0,13.89032,5.92465,7.05207,7.05207,0,0,0,3.48282-7.12547c-.23672-2.87831-1.64892-5.071-4.481-5.92455-3.83725-1.15648-7.44729-.8915-10.24913,2.47759-.03023.03633-.14235.00452-.21624.0011-.18873-3.88262,1.53067-6.97546,4.37493-7.8695,3.30311-1.03828,5.38269-.1151,7.71229,3.48462ZM393.71263,79.15a5.87726,5.87726,0,0,0-2.25419-3.80007c-4.62817-3.65225-12.14159-1.62783-14.25562,3.8565a16.589,16.589,0,0,0-.75308,8.50759c.91,6.207,5.37445,9.29356,11.52231,8.01232a7.35944,7.35944,0,0,0,6.0784-7.65455c-.10186-3.84269-2.43187-6.36161-6.48659-6.88006-3.25875-.41668-6.18735.26142-8.44854,2.95419.028-2.55291.35089-4.978,2.33865-6.76921a6.06179,6.06179,0,0,1,9.26953,1.691,1.12093,1.12093,0,0,0,.82828.56578A15.32478,15.32478,0,0,0,393.71263,79.15Z" transform="translate(-0.23784 -0.24004)"/><path class="cls-1" d="M600.13824,170.43544v54.32323H465.18373V170.43544Zm-81.58592,35.33481c2.42607-1.48589,4.65415-2.73406,6.7538-4.17006a12.66207,12.66207,0,0,0,4.692-5.34341c1.81155-4.17322-.11378-8.32607-4.4114-9.45a11.46276,11.46276,0,0,0-7.30494.37547,6.068,6.068,0,0,0-4.07162,4.92725c-.36492,2.39414-.16875,2.63927,2.22937,2.83475.18738.01528.37705.002.64055.002-.035-.36074-.06358-.62839-.08654-.89653a4.42171,4.42171,0,0,1,4.26673-5.16232,11.61285,11.61285,0,0,1,2.15614-.00359,4.36908,4.36908,0,0,1,4.1997,5.286,7.87367,7.87367,0,0,1-2.95728,4.92193,40.51766,40.51766,0,0,1-9.34418,6.03112c-1.77387.86209-1.82426.96266-1.40244,3.07227h17.09947v-2.4249Zm29.308-18.72007c-2.10387-.38943-3.58283-.06859-4.93547,1.67446-3.00961,3.87836-6.28207,7.55473-9.49963,11.26818a2.86374,2.86374,0,0,0-.5499,2.8618h12.351v5.34144h2.649v-5.42782H551.821v-2.14671h-3.96064Z" transform="translate(-0.23784 -0.24004)"/><path class="cls-1" d="M755.65635,226.1151v48.564H601.50377v-48.564Zm-69.57491,23.7673c-.69428.2937-1.24817.49433-1.77182.75563a5.00793,5.00793,0,0,0-3.01166,4.42353,4.85067,4.85067,0,0,0,2.5749,4.92164,13.37786,13.37786,0,0,0,12.87375.07568,5.17281,5.17281,0,0,0,2.80014-5.07794,5.09042,5.09042,0,0,0-3.24932-4.64552c-.483-.229-.97406-.44121-1.46648-.66346.08795-.1512.09867-.1991.12615-.21231.25072-.12056.5042-.23525.757-.3513a4.56264,4.56264,0,0,0,2.99643-4.11826,4.43424,4.43424,0,0,0-2.614-4.48762,12.54469,12.54469,0,0,0-11.43831.04554,4.46675,4.46675,0,0,0-2.61534,4.2637,4.68267,4.68267,0,0,0,2.68916,4.34888C685.13937,249.379,685.54712,249.59658,686.08144,249.8824Zm-7.262-5.10928a5.77619,5.77619,0,0,0-2.29588-3.86331c-4.68258-3.62-12.13594-1.55868-14.22117,3.96081a16.58437,16.58437,0,0,0-.55647,9.453,9.15751,9.15751,0,0,0,13.85584,6.027,7.329,7.329,0,0,0,3.50912-7.461c-.47092-3.1803-2.25463-5.25156-5.31293-5.89612-3.5632-.751-6.85716-.33961-9.36908,2.689-.03017.03638-.14261.00451-.216.00451-.28014-3.73225,1.52859-6.94926,4.39687-7.83025,3.35426-1.03022,5.64785-.00119,7.61027,3.50005Z" transform="translate(-0.23784 -0.24004)"/><path class="cls-1" d="M321.239,111.73943H186.28082V58.13762H321.239Zm-68.41257-32.566a5.84832,5.84832,0,0,0-2.29623-3.85973c-4.62638-3.58854-12.07883-1.58922-14.18258,3.83844a16.49193,16.49193,0,0,0-.57368,9.68114,9.16587,9.16587,0,0,0,13.92649,5.86028,7.34453,7.34453,0,0,0,3.41068-7.39844c-.46766-3.15-2.18458-5.19673-5.19287-5.86837-3.5971-.80309-6.93343-.41368-9.4847,2.65451-.03023.03635-.14249.00452-.21645.00139-.3018-3.68757,1.5213-6.93963,4.38535-7.82258,3.3595-1.0357,5.67961.00315,7.61273,3.49781Zm22.12966,5.8804c-.1662-1.44831-.22359-2.57012-.43269-3.6629-.91157-4.76387-4.2868-7.68538-8.95368-7.808-4.97956-.13083-8.39036,2.44244-9.59006,7.28854a15.94707,15.94707,0,0,0,.13312,8.297,8.8247,8.8247,0,0,0,8.86239,6.84389c4.61552.04224,7.94036-2.30851,9.22122-6.68406A35.78137,35.78137,0,0,0,274.95609,85.05379Z" transform="translate(-0.23784 -0.24004)"/><path class="cls-1" d="M322.57921,274.68976V226.10414H463.78884v48.58562ZM394.12753,255.674a6.51463,6.51463,0,0,0,2.7182,4.34854,9.1434,9.1434,0,0,0,13.97068-4.48518,17.50615,17.50615,0,0,0,.26244-10.04954,7.45885,7.45885,0,0,0-3.84217-5.12492,10.42116,10.42116,0,0,0-10.33063.30585,6.21958,6.21958,0,0,0-3.04011,6.44972,5.90827,5.90827,0,0,0,4.45729,5.50939c3.7831,1.08721,7.37352.9022,10.24658-2.29.03-.03334.14135.00657.47478.03249a41.92957,41.92957,0,0,1-.98253,4.78351,5.444,5.444,0,0,1-5.56508,4.07678c-2.91384.03717-4.34678-.96159-5.51379-3.83494a1.61431,1.61431,0,0,0-.24733-.31218C395.928,255.26635,395.11651,255.4501,394.12753,255.674Zm-3.68821-15.95033c-4.63684,0-9.147-.01346-13.6565.03662-.24545.00273-.64828.51005-.699.82713-.221,1.37975-.342,2.77567-.49333,4.16639-.26271,2.41385-.52108,4.8282-.77866,7.21827,1.83525.52181,2.55976.43723,3.01758-.30079a6.23877,6.23877,0,0,1,8.20989-2.41831,5.506,5.506,0,0,1,2.29732,2.43876,5.20744,5.20744,0,0,1-2.38172,6.95765c-3.11549,1.38463-7.09286.34782-8.30593-2.31732a1.3859,1.3859,0,0,0-1.91358-.94274c-.4454.1168-.909.16432-1.36157.24272a6.15092,6.15092,0,0,0,3.15454,4.56776,10.54709,10.54709,0,0,0,10.75406-.047c2.75616-1.56243,3.8521-4.74545,3.14282-8.3939a6.39893,6.39893,0,0,0-5.62983-5.292c-3.01049-.4162-5.83875-.05288-8.03089,2.37969-.02215.02461-.128-.02622-.27665-.06093.23027-1.81342.537-3.62618.66243-5.45138.071-1.03316.49623-1.21375,1.416-1.19938,3.19755.05,6.39633.02177,9.59464.01617.41854-.00073.837-.043,1.2784-.06731Z" transform="translate(-0.23784 -0.24004)"/><path class="cls-1" d="M186.25732,274.68792V226.106h134.969v48.58191Zm49.57533-22.55186a12.13171,12.13171,0,0,0,1.99666.10793,1.53417,1.53417,0,0,0,1.01188-.57126,6.27411,6.27411,0,0,1,8.11541-2.47634,5.52938,5.52938,0,0,1,2.36725,2.37093,5.25539,5.25539,0,0,1-2.20448,7.024c-3.088,1.47129-7.18415.4493-8.42334-2.24294-.45686-.99252-.9591-1.21881-1.90253-.96287-.44763.12143-.91671.16377-1.4706.258a6.967,6.967,0,0,0,3.53191,4.7414,10.54806,10.54806,0,0,0,6.03743,1.163c5.16731-.3985,8.34019-3.99208,7.756-8.70548-.351-2.83148-1.54465-5.10524-4.4095-5.993-3.12079-.967-6.16436-.84427-8.82015,1.40042-.248.20959-.47664.442-.93143.86652.27874-2.20785.56588-4.10029.73509-6.00323.07151-.80418.39559-.97845,1.12633-.9718,3.27788.02988,6.55621.0152,9.83436.00983.42155-.00069.843-.041,1.26076-.0627v-2.24376a1.93675,1.93675,0,0,0-.41054-.10995c-4.35747-.00773-8.71513-.02634-13.072.02287-.29074.00326-.77288.49155-.82884.813-.23266,1.33626-.3389,2.69473-.48615,4.04563C236.3786,247.07061,236.11487,249.52533,235.83265,252.13606Zm19.17933,3.53163a6.54245,6.54245,0,0,0,3.28456,4.56035,10.55073,10.55073,0,0,0,10.65073-.042c2.86975-1.60556,4.03026-5.07021,3.14294-8.7167-.7287-2.99467-2.99344-4.8189-6.34347-5.09072a8.3198,8.3198,0,0,0-7.58787,2.83553c.28588-2.26922.58263-4.15665.73665-6.05568.07139-.88021.446-1.02464,1.20776-1.01742,3.23792.03076,6.47628.01519,9.71449.0104.425-.00063.85-.03662,1.2798-.05648v-2.37254c-4.58047,0-9.05581.01008-13.531-.0093-.80007-.00347-.75108.53568-.80783,1.0446-.37207,3.3366-.7631,6.67136-1.09017,10.01241a2.373,2.373,0,0,0,.35953,1.34235c.86048-.03981,1.85719.72109,2.56413-.48284a6.24206,6.24206,0,0,1,8.43439-2.25205,5.34081,5.34081,0,0,1-.18615,9.19383c-3.007,1.46853-7.13385.54123-8.37314-2.08453A1.65585,1.65585,0,0,0,256.164,255.443C255.82283,255.53271,255.47042,255.57979,255.012,255.66769Z" transform="translate(-0.23784 -0.24004)"/><path class="cls-1" d="M600.13766,226.116v48.56224H465.18455V226.116Zm-68.431,18.64061a5.822,5.822,0,0,0-2.17588-3.74978c-4.56445-3.69609-12.14894-1.73543-14.29512,3.71307a16.56326,16.56326,0,0,0-.78187,8.62067c.9099,6.19183,5.40334,9.28218,11.54379,7.98137a7.34663,7.34663,0,0,0,6.0542-7.19613c.05865-3.68-1.87448-6.36864-5.33883-7.102a15.32272,15.32272,0,0,0-4.27576-.18439,7.203,7.203,0,0,0-5.28229,3.04684c-.44578-3.46972,1.34168-6.93495,3.95449-7.91139,3.2785-1.22522,5.65079-.24707,8.05641,3.38218Zm5.53113,2.98811c-.03392-.35968-.0614-.62745-.08414-.89561-.23449-2.77315,1.17445-4.67556,3.91354-5.10055a9.59052,9.59052,0,0,1,2.98253.01292,4.26345,4.26345,0,0,1,3.74145,5.09006,7.92984,7.92984,0,0,1-3.06223,5.12195,40.78333,40.78333,0,0,1-9.25611,5.95031c-1.77252.85986-1.81986.9527-1.40185,3.077h17.10333V258.515H538.7954c2.30648-1.40678,4.50105-2.6311,6.57017-4.03984a12.84489,12.84489,0,0,0,4.79039-5.41356c1.83516-4.21345-.14964-8.40567-4.52009-9.48646a11.46826,11.46826,0,0,0-7.3019.44918,6.05689,6.05689,0,0,0-3.96474,4.88124c-.36809,2.397-.1701,2.64582,2.2275,2.83739C536.75417,247.7556,536.91343,247.74467,537.2378,247.74467Z" transform="translate(-0.23784 -0.24004)"/><path d="M82.25921,148.43982v-6.57346H76.56755v6.5471H73.47644V133.7352h3.03718v5.42454h5.72681v-5.44006h3.05823v14.72014Z" transform="translate(-0.23784 -0.24004)"/><path d="M98.64662,133.7194v2.56044H91.00051v3.06659h7.05941v2.63685H91.00285v3.88008h8.01383v2.54958H87.984V133.7194Z" transform="translate(-0.23784 -0.24004)"/><path d="M100.57994,143.87894a16.19984,16.19984,0,0,1,2.14339.02856,1.29236,1.29236,0,0,1,.83152.6125c.912,1.76376,4.45392,2.33963,5.8662.91982a1.40348,1.40348,0,0,0-.54272-2.40613c-1.11909-.407-2.3062-.62676-3.46325-.92954-.65554-.17155-1.31768-.32208-1.9645-.522a3.4412,3.4412,0,0,1-2.65194-3.191,4.13659,4.13659,0,0,1,1.865-4.03069,7.89707,7.89707,0,0,1,7.671.06542,4.40085,4.40085,0,0,1,1.98011,3.65146,21.23423,21.23423,0,0,1-2.34483-.02948,1.07667,1.07667,0,0,1-.71325-.62028c-.63125-1.822-4.08912-1.82671-5.0475-.87469a1.82855,1.82855,0,0,0-.48076,1.461,1.85845,1.85845,0,0,0,1.10643,1.07332c1.20983.398,2.477.62025,3.7185.924.54286.13282,1.08855.2656,1.616.4476a3.39057,3.39057,0,0,1,2.59,2.70473,4.25487,4.25487,0,0,1-1.45371,4.20886c-2.15233,1.75269-6.711,1.83806-8.93622.16368A4.384,4.384,0,0,1,100.57994,143.87894Z" transform="translate(-0.23784 -0.24004)"/><path d="M71.50886,138.49646a18.43178,18.43178,0,0,1-2.224-.02759,1.26482,1.26482,0,0,1-.8615-.59147,3.04672,3.04672,0,0,0-2.98636-1.808,3.14985,3.14985,0,0,0-3.12527,1.8217,7.13108,7.13108,0,0,0,.0452,6.46642,3.08712,3.08712,0,0,0,3.06147,1.721,2.97,2.97,0,0,0,2.91881-1.90961,1.06669,1.06669,0,0,1,1.25663-.78269c.62019.04507,1.24622.00978,1.87485.00978a5.6899,5.6899,0,0,1-4.34487,5.11009c-4.2404,1.03467-7.74045-1.20461-8.44352-5.51283a12.05355,12.05355,0,0,1-.02278-3.68726c.703-4.644,4.86066-7.04618,9.2757-5.449A5.13158,5.13158,0,0,1,71.50886,138.49646Z" transform="translate(-0.23784 -0.24004)"/><path d="M117.5914,136.26283h-4.43v-2.53278h11.88849v2.51088h-4.31824v12.17082H117.5914Z" transform="translate(-0.23784 -0.24004)"/><path d="M101.87909,22.58443h10.68214V25.1009h-7.62392V28.239h7.02528v2.63254h-7.02313V34.7552h8.02268v2.56355h-11.083Z" transform="translate(-0.23784 -0.24004)"/><path d="M70.38487,32.75812a12.94615,12.94615,0,0,1,1.98418.02818,1.4446,1.4446,0,0,1,.94471.622c.91861,1.75483,4.4694,2.32919,5.87282.907a1.40571,1.40571,0,0,0-.555-2.40513c-1.11926-.40627-2.30635-.62544-3.46337-.928-.6556-.17143-1.31766-.32247-1.96431-.523a3.43886,3.43886,0,0,1-2.646-3.19563,4.13925,4.13925,0,0,1,1.87177-4.02792,7.90855,7.90855,0,0,1,7.67134.074,4.37974,4.37974,0,0,1,1.96967,3.6485,21.0958,21.0958,0,0,1-2.34839-.02982,1.08269,1.08269,0,0,1-.70848-.62737c-.64157-1.82268-4.10631-1.81507-5.05019-.86318a1.83206,1.83206,0,0,0-.47426,1.46328,1.86473,1.86473,0,0,0,1.1122,1.06779c1.21013.39738,2.477.62057,3.71852.92445.54286.13287,1.089.26448,1.6161.44724a3.38849,3.38849,0,0,1,2.58392,2.71013,4.25017,4.25017,0,0,1-1.46032,4.20582c-2.16268,1.75277-6.70951,1.8282-8.93786.15744A4.26719,4.26719,0,0,1,70.38487,32.75812Z" transform="translate(-0.23784 -0.24004)"/><path d="M89.06792,25.21411V22.603H100.227a4.03739,4.03739,0,0,1-.76064,3.45012c-2.12732,2.48563-4.10011,5.1036-6.13106,7.67145-.21032.26592-.38931.55662-.71769,1.03036h7.64331v2.55477H88.852a4.30241,4.30241,0,0,1,.84443-3.75832c2.257-2.63276,4.3634-5.39455,6.718-8.33725Z" transform="translate(-0.23784 -0.24004)"/><path d="M87.49827,37.35592H84.54218V22.60084h2.95609Z" transform="translate(-0.23784 -0.24004)"/><path d="M122.45317,205.4007h7.99427v2.564H119.43583V193.24833h10.65238v2.50423h-7.63705v3.136h7.03864v2.63515h-7.03663Z" transform="translate(-0.23784 -0.24004)"/><path d="M92.76126,193.22252h10.678v2.51323H95.81966V198.916h7.063V201.507h-7.0609v3.884h8.01792v2.56585H92.76126Z" transform="translate(-0.23784 -0.24004)"/><path d="M89.44093,198.88088v2.63444H82.37748v3.8839h8.02638v2.56166H79.31706v-14.708H90.00392v2.49224H82.37525v3.13571Z" transform="translate(-0.23784 -0.24004)"/><path d="M64.7231,197.59926a19.789,19.789,0,0,1-2.22559-.02749,1.2262,1.2262,0,0,1-.7479-.58128c-.90633-1.544-3.659-2.1267-5.02414-.94463a1.78377,1.78377,0,0,0-.52162,1.44256,1.81364,1.81364,0,0,0,1.066,1.10229c1.20768.40332,2.47562.62491,3.71715.92882.54291.13292,1.08934.26264,1.61742.44286a3.41081,3.41081,0,0,1,2.64523,2.79207,4.242,4.242,0,0,1-1.52033,4.18243c-2.15083,1.69259-6.62777,1.76642-8.84321.15043a4.44416,4.44416,0,0,1-1.81729-3.682,20.56789,20.56789,0,0,1,2.32579.03178c.25042.02867.5348.39106.673.66642.87071,1.73443,4.56467,2.25237,5.88476.80471a1.41322,1.41322,0,0,0-.66035-2.38491c-1.12494-.39327-2.31082-.61145-3.46856-.91188-.656-.17021-1.31711-.32637-1.962-.53235a3.42965,3.42965,0,0,1-2.591-3.24008,3.90676,3.90676,0,0,1,1.94483-3.9775,7.46058,7.46058,0,0,1,7.5553.06814A4.02153,4.02153,0,0,1,64.7231,197.59926Z" transform="translate(-0.23784 -0.24004)"/><path d="M104.97327,193.23661c3.046-.26325,3.04606-.26328,3.84176,2.53428.78492,2.75965,1.56958,5.51935,2.44489,8.59743.23025-.61121.3708-.91882.46335-1.24027.82957-2.88124,1.69976-5.75228,2.44825-8.65463.2696-1.04536.71736-1.49657,1.798-1.32579a11.63788,11.63788,0,0,0,1.62716.01235,8.09323,8.09323,0,0,1-.19608,1.0078c-1.46463,4.35354-2.95133,8.69971-4.39892,13.05888-.216.6504-.56907.96256-1.213.80135-.73125-.18307-1.76627.57938-2.1733-.62427q-2.34317-6.92925-4.65224-13.87A1.05516,1.05516,0,0,1,104.97327,193.23661Z" transform="translate(-0.23784 -0.24004)"/><path d="M70.48191,205.35511h7.24978v2.60072H67.4915V193.22552h2.99041Z" transform="translate(-0.23784 -0.24004)"/><path d="M89.16473,88.7582a15.45919,15.45919,0,0,1-2.45886-.03883,1.73609,1.73609,0,0,1-.99008-.8324c-1.79683-3.10606-3.55155-6.23649-5.54915-9.33025V88.67944h-2.832V73.88026a13.17811,13.17811,0,0,1,2.25324.03392,2.00833,2.00833,0,0,1,1.27216.772c1.52421,2.57789,2.9663,5.20429,4.43823,7.81315a4.30781,4.30781,0,0,0,.99135,1.281V73.97767h2.87515Z" transform="translate(-0.23784 -0.24004)"/><path d="M102.10836,83.25662H98.9117V80.85915h5.97073v7.82614h-1.87375l-.35789-1.5355a16.79429,16.79429,0,0,1-3.41024,1.62128,6.31131,6.31131,0,0,1-7.69388-4.60985c-.90827-3.23063-.59069-6.32057,1.95918-8.77212,2.92566-2.81285,8.60751-2.17016,10.57166,1.12352a15.01116,15.01116,0,0,1,.79165,1.93382c-1.5458-.0415-2.74956.46493-3.84268-1.08029-1.4594-2.063-4.92579-1.4434-6.10733.94053a6.89905,6.89905,0,0,0-.14754,5.81417,3.86229,3.86229,0,0,0,4.3643,2.21393A3.449,3.449,0,0,0,102.10836,83.25662Z" transform="translate(-0.23784 -0.24004)"/><path d="M122.6558,88.69172h-3.09455v-14.712h3.02423V79.395h5.72687V73.964h3.10407V88.67551h-3.02275V82.11108H122.6558Z" transform="translate(-0.23784 -0.24004)"/><path d="M67.22186,82.2647v3.84109h8.05555v2.56833H64.204V73.98092H74.80965a1.20024,1.20024,0,0,1,.12876.32525c.15758,2.21357.15607,2.21368-2.06822,2.21367h-5.608v3.11167H74.32V82.2647Z" transform="translate(-0.23784 -0.24004)"/><path d="M110.62594,76.49686h-4.42759V73.9668h11.89512V76.486h-4.32681V88.65435h-3.14072Z" transform="translate(-0.23784 -0.24004)"/><path d="M52.11548,73.94226H55.148V86.066h7.04663c.14231.1967.22039.25535.22753.32163.25575,2.37208.25482,2.37547-2.11034,2.37134q-3.9555-.0069-7.911-.02838c-.07051-.00035-.14072-.05923-.28531-.12414Z" transform="translate(-0.23784 -0.24004)"/><path d="M668.4381,22.28446a30.84046,30.84046,0,0,1,3.12059.03529,1.55024,1.55024,0,0,1,.9208.74443c.75644,1.257,1.44468,2.55505,2.269,4.03685.77684-1.36444,1.51019-2.50186,2.08623-3.714a1.70958,1.70958,0,0,1,1.96-1.12048,21.79322,21.79322,0,0,0,2.1832.01332c-.3842.62612-.65531,1.08105-.939,1.528-1.02738,1.61849-2.03912,3.2475-3.10014,4.84369a1.175,1.175,0,0,0-.00914,1.50576c1.24834,1.9031,2.43621,3.84594,3.64154,5.77713.20391.32675.38034.67074.68831,1.21782-1.22239,0-2.24461.05586-3.2536-.035-.29144-.02626-.62115-.42924-.80267-.73663-.80889-1.3694-1.57055-2.76672-2.45661-4.34519-.82781,1.39132-1.61484,2.58531-2.26552,3.84947a1.96,1.96,0,0,1-2.23834,1.29026,14.87711,14.87711,0,0,0-2.00186-.01529c.26918-.50031.42686-.83912.62438-1.15281,1.19191-1.89266,2.37263-3.79294,3.60281-5.66057a1.27857,1.27857,0,0,0,.00428-1.61372C671.15351,26.693,669.89064,24.617,668.4381,22.28446Z" transform="translate(-0.23784 -0.24004)"/><path d="M683.07277,22.34511h3.04043V34.47038H693.164c.13763.19745.21369.257.22054.32369.24311,2.36572.24229,2.36579-2.11974,2.36578-2.707,0-5.414,0-8.192,0Z" transform="translate(-0.23784 -0.24004)"/><path d="M667.09689,205.7886H679.3407v2.41686H662.29865c-.57938-1.84551-.41127-2.24129,1.25525-3.04571a40.50527,40.50527,0,0,0,9.44859-6.0892,7.79356,7.79356,0,0,0,2.95266-5.05194c.27832-2.65938-1.0306-4.571-3.66223-5.03214a9.33418,9.33418,0,0,0-3.21339.00058c-2.88868.52417-4.00453,2.35773-3.69065,5.978a16.1534,16.1534,0,0,1-2.32605-.21165c-.24768-.05556-.50994-.55751-.56315-.888a5.92011,5.92011,0,0,1,2.96116-6.09633,10.68041,10.68041,0,0,1,10.25121-.23769c3.03708,1.48764,4.09623,5.33214,2.59218,8.75766a12.65163,12.65163,0,0,1-4.61,5.26106c-1.80275,1.245-3.75111,2.27954-5.63941,3.39986-.33111.19643-.68244.35865-1.02445.53669Z" transform="translate(-0.23784 -0.24004)"/><path d="M694.32517,189.45883H681.1605v-2.45009h16.50018a2.9603,2.9603,0,0,1-.87709,3.10088,24.78294,24.78294,0,0,0-7.87735,14.18757c-.2042,1.25534-.26056,2.53473-.39363,3.8915h-3.1081C685.42993,200.65352,689.12638,194.86749,694.32517,189.45883Z" transform="translate(-0.23784 -0.24004)"/><path d="M678.34847,136.292l-2.61258.58534c-1.96652-3.54451-4.45353-4.60561-7.84072-3.43438-2.727.94294-4.61215,4.52931-4.10262,7.96523,2.20618-2.85491,5.17483-3.525,8.47875-3.08559,4.03928.53724,6.34729,3.08112,6.42076,6.93618a7.35859,7.35859,0,0,1-6.14455,7.5987c-6.18386,1.22559-10.56035-1.83937-11.4672-8.08591a16.49888,16.49888,0,0,1,.78328-8.50328c2.13018-5.45717,9.7016-7.44369,14.28187-3.76244A5.85592,5.85592,0,0,1,678.34847,136.292Zm-8.16627,14.608a18.06677,18.06677,0,0,0,2.86582-.74216,4.55264,4.55264,0,0,0,2.78069-4.15028,4.60948,4.60948,0,0,0-1.99922-4.5803c-2.25534-1.4595-6.30053-1.14087-8.15344.79475-2.26307,2.36412-2.161,3.70532-.58963,6.04672A6.33941,6.33941,0,0,0,670.1822,150.90006Z" transform="translate(-0.23784 -0.24004)"/><path d="M695.67165,141.80857c-2.86142,3.18306-6.43881,3.439-10.23656,2.3652a5.9246,5.9246,0,0,1-4.52015-5.45987,6.24209,6.24209,0,0,1,3.06814-6.54894,10.3277,10.3277,0,0,1,10.22367-.31172c2.897,1.44058,3.96117,4.17966,4.32715,7.19057a17.99756,17.99756,0,0,1-.64336,7.94547,9.16561,9.16561,0,0,1-14.0407,4.52615,6.47162,6.47162,0,0,1-2.67885-4.30872l2.63039-.61283a2.3988,2.3988,0,0,1,.24088.36121c1.07408,2.75639,2.4818,3.76681,5.29834,3.7962,2.72062.02841,4.68222-1.13305,5.59564-3.675a41.69827,41.69827,0,0,0,1.17944-5.15776Zm-6.45521.70559a7.033,7.033,0,0,0,5.86043-3.10253,2.77155,2.77155,0,0,0,.19189-2.72417c-1.57611-3.69671-7.36541-4.92278-10.2822-2.14762a4.48859,4.48859,0,0,0,1.232,7.23491A18.8405,18.8405,0,0,0,689.21644,142.51416Z" transform="translate(-0.23784 -0.24004)"/><path d="M695.70118,74.12229V76.494c-.47853.02165-.90392.057-1.32931.05761-3.23824.00472-6.47666.02108-9.71461-.01083-.7677-.00758-1.13033.14868-1.20164,1.02258-.15463,1.89756-.45111,3.78357-.73758,6.05473a8.31639,8.31639,0,0,1,7.59316-2.83912c3.349.27257,5.61241,2.09839,6.34032,5.095.88564,3.64577-.27622,7.11044-3.14889,8.71433a10.5438,10.5438,0,0,1-10.65111.03777,6.57883,6.57883,0,0,1-3.2836-4.55757c.46659-.08952.81955-.13534,1.16034-.22667a1.65461,1.65461,0,0,1,2.30044,1.04984c1.238,2.61952,5.37258,3.54786,8.37627,2.079a5.33986,5.33986,0,0,0,.17725-9.19429,6.24318,6.24318,0,0,0-8.433,2.25713c-.70722,1.20284-1.70543.43145-2.56588.47913A2.44151,2.44151,0,0,1,680.229,85.166c.32719-3.34106.71818-6.6759,1.08984-10.01261.057-.5109.01406-1.04437.81217-1.0408C686.60574,74.13268,691.08066,74.12229,695.70118,74.12229Z" transform="translate(-0.23784 -0.24004)"/><path d="M661.448,76.67864v-2.4614h16.52467a2.90626,2.90626,0,0,1-.85236,3.07686,24.78141,24.78141,0,0,0-7.89018,14.18253c-.20508,1.2557-.26373,2.53532-.3999,3.90577h-3.10465c.019-7.51877,3.71373-13.30508,8.901-18.70376Z" transform="translate(-0.23784 -0.24004)"/><path d="M138.31568,249.73053c1.72577.7814,1.71348,2.27,1.80605,3.71716.06677,1.04349.15211,2.08585.24236,3.307a22.72627,22.72627,0,0,1-2.46444-.035,1.05972,1.05972,0,0,1-.68594-.73231c-.13986-1.02451-.15624-2.06586-.21989-3.10081-.08-1.301-.5489-1.81321-1.84813-1.86357-1.23418-.04784-2.47165-.01031-3.90586-.01031v5.667h-2.9326V241.95621c2.76217,0,5.50717-.09242,8.24217.03287a3.70911,3.70911,0,0,1,3.57185,2.88915A4.18241,4.18241,0,0,1,138.31568,249.73053Zm-6.97243-5.23557v3.92494c1.52944,0,2.96215.08561,4.3789-.02786,1.07673-.08622,1.51977-.88919,1.51786-1.944-.00191-1.05718-.45077-1.84847-1.53245-1.927C134.25773,244.41575,132.7945,244.495,131.34325,244.495Z" transform="translate(-0.23784 -0.24004)"/><path d="M100.42965,256.75993V242.1082a77.79323,77.79323,0,0,1,8.27993.06646c2.49179.26994,4.0858,2.70557,4.26864,5.92116a12.99334,12.99334,0,0,1-.28833,3.5623c-.79337,3.50443-2.89435,5.09885-6.50327,5.10158C104.31305,256.7611,102.43947,256.75993,100.42965,256.75993Zm2.97018-2.56263c.7312,0,1.31975-.00008,1.90829,0,3.12775.0005,4.40889-1.21872,4.55816-4.35553a14.92449,14.92449,0,0,0-.00793-1.55754c-.15849-2.7761-1.3133-3.87227-4.06759-3.8785-.75022-.0017-1.50045-.00023-2.39093-.00023v9.7918Z" transform="translate(-0.23784 -0.24004)"/><path d="M57.56056,249.28357c.00957-5.87165,4.97226-9.26295,10.20294-6.95982,2.81008,1.23731,3.81082,3.65619,3.91742,6.47687.13,3.44047-.943,6.51-4.53047,7.73264C63.03742,257.935,57.5395,256.0847,57.56056,249.28357Zm11.11363.37489c-.09238-.89408-.104-1.4574-.2149-2.00045-.43821-2.14661-1.78024-3.34557-3.7294-3.37619a3.528,3.528,0,0,0-3.86384,3.29407,12.14455,12.14455,0,0,0,.3261,4.45186,3.24876,3.24876,0,0,0,3.39018,2.33083,3.46525,3.46525,0,0,0,3.48581-2.24352A14.68246,14.68246,0,0,0,68.67419,249.65846Z" transform="translate(-0.23784 -0.24004)"/><path d="M46.75482,250.14739v6.51117H43.71091v-14.6885h3.05216v5.43462H52.49v-5.45033h3.0557v14.73073H52.57248v-6.53769Z" transform="translate(-0.23784 -0.24004)"/><path d="M124.95745,250.27987c-1.28478,0-2.43762,0-3.59046,0-1.14743,0-2.29485,0-3.50265,0v3.82155H125.915V256.672H114.84621V241.98347h10.6004a1.11791,1.11791,0,0,1,.12989.31586c.16524,2.22032.16369,2.22046-2.05883,2.22049-1.836,0-3.672,0-5.6128,0v3.10687h7.05258Z" transform="translate(-0.23784 -0.24004)"/><path d="M141.86137,252.11673a11.26114,11.26114,0,0,1,1.99725.03146,1.59816,1.59816,0,0,1,1.00676.70533c.89391,1.70874,4.61849,2.21411,5.90493.75638a1.41945,1.41945,0,0,0-.70191-2.37779c-1.12737-.38751-2.31233-.60677-3.47065-.90513-.61767-.15911-1.23785-.31166-1.84752-.49787a3.45692,3.45692,0,0,1-2.68207-3.29634,3.936,3.936,0,0,1,2.06994-4.02952,7.50393,7.50393,0,0,1,7.24791.03944,4.35026,4.35026,0,0,1,2.24054,3.76845c-.90622,0-1.69661.04512-2.47585-.02827a.96656.96656,0,0,1-.60829-.59434c-.601-1.83308-4.06276-1.85177-5.037-.90849a1.45063,1.45063,0,0,0,.58906,2.53979c1.20886.40026,2.47639.62174,3.71789.92549.5429.13283,1.08825.26611,1.61656.446a3.39256,3.39256,0,0,1,2.606,2.69062,4.24439,4.24439,0,0,1-1.52635,4.29041c-2.16479,1.68548-6.65045,1.74891-8.84123.11737A4.38967,4.38967,0,0,1,141.86137,252.11673Z" transform="translate(-0.23784 -0.24004)"/><path d="M41.39406,246.31856a19.42844,19.42844,0,0,1-2.22884-.02971,1.07845,1.07845,0,0,1-.71035-.62473c-.62825-1.81408-4.08535-1.82635-5.04909-.86871a1.82485,1.82485,0,0,0-.47666,1.46212,1.85359,1.85359,0,0,0,1.10966,1.06983c1.28922.41441,2.632.661,3.95135.98341.46526.1137.932.23148,1.38364.389a3.39229,3.39229,0,0,1,2.58585,2.70823,4.24974,4.24974,0,0,1-1.45791,4.2065c-2.16293,1.75324-6.7112,1.83654-8.9362.15914a4.36465,4.36465,0,0,1-1.78217-3.65194,20.38371,20.38371,0,0,1,2.2638.029,1.17119,1.17119,0,0,1,.71377.6099c.90137,1.76695,4.4567,2.33771,5.86284.91611a1.40386,1.40386,0,0,0-.54979-2.40521c-1.1193-.40644-2.30663-.62537-3.46376-.92792-.65567-.17142-1.31739-.32359-1.96453-.52292a3.45354,3.45354,0,0,1-2.65919-3.31407,3.91483,3.91483,0,0,1,1.99263-3.95493,7.47733,7.47733,0,0,1,7.45528.06226A3.86118,3.86118,0,0,1,41.39406,246.31856Z" transform="translate(-0.23784 -0.24004)"/><path d="M82.51984,241.91611H85.6675c0,.45179,0,.86939,0,1.287.00006,2.63581-.03117,5.27206.00711,7.90731.06657,4.58285-2.87064,6.09349-6.68183,5.82381-3.816-.27006-5.34593-2.12282-5.35053-5.95816-.00348-2.9149.01364-5.82979.02621-8.74467a1.05252,1.05252,0,0,1,.11352-.2806h3.00586q0,.6249,0,1.25169c.00028,2.75561-.02188,5.51148.00842,8.26676a2.59161,2.59161,0,0,0,2.99757,2.88847,2.48,2.48,0,0,0,2.72007-2.78218c.02164-2.75543.00584-5.51115.00593-8.26677C82.51986,242.87822,82.51984,242.44771,82.51984,241.91611Z" transform="translate(-0.23784 -0.24004)"/><path d="M88.58481,256.75987v-14.796h3.06308V254.083H98.7097c.12411.2008.194.26308.20015.33117.21189,2.34563.211,2.34571-2.14555,2.34571C94.05868,256.75984,91.35305,256.75987,88.58481,256.75987Z" transform="translate(-0.23784 -0.24004)"/><path d="M403.31571,37.09651h-2.75939V25.61345l-.27885-.0408c-.38083,1.64664-.76869,3.29167-1.14055,4.94032-.42147,1.86848-.888,3.72977-1.21878,5.61457-.18633,1.0616-.81774,1.10248-1.62794,1.035-.77271-.06435-1.62117.30426-1.87424-1.01779-.67427-3.52234-1.51137-7.0135-2.496-10.50719V37.07374h-2.81959V22.28337c1.2729,0,2.54168-.0483,3.80124.03814.27282.01873.66425.48424.74362.80724.73339,2.98357,1.40932,5.98124,2.10463,8.9742a3.11261,3.11261,0,0,0,.62724,1.40261c.84633-3.69617,1.69263-7.39233,2.55334-11.15138h4.38525Z" transform="translate(-0.23784 -0.24004)"/><path d="M530.34987,34.46767h7.0476c.14109.1973.21844.25621.22559.32261.25207,2.36951.25119,2.3729-2.11436,2.36867q-3.95533-.007-7.91068-.02876c-.07026-.00035-.14028-.06012-.2836-.1256V22.37287h3.03545Z" transform="translate(-0.23784 -0.24004)"/><path d="M252.99307,32.76268a20.02891,20.02891,0,0,1,2.28944.03049c.25632.03007.55523.37006.69164.64062.88312,1.75154,4.51186,2.29513,5.8756.8576a1.40715,1.40715,0,0,0-.60814-2.39406c-1.12225-.39962-2.30851-.61917-3.46588-.92079-.65578-.17089-1.3176-.32359-1.9633-.527a3.43576,3.43576,0,0,1-2.61814-3.2187,3.90658,3.90658,0,0,1,1.91458-3.99167,7.39963,7.39963,0,0,1,7.55206.03791,4.30944,4.30944,0,0,1,2.08441,3.68033c-.86763,0-1.64769.04336-2.41752-.02615-.23417-.02114-.50895-.31318-.648-.54994a3.65373,3.65373,0,0,0-5.00921-.99384,1.784,1.784,0,0,0-.54972,1.43,1.787,1.787,0,0,0,1.039,1.1219c1.20636.40627,2.475.62621,3.71646.93022.543.133,1.08846.26512,1.61771.4426a3.42126,3.42126,0,0,1,2.67047,2.7706,4.23693,4.23693,0,0,1-1.58476,4.26734c-2.15748,1.6376-6.55467,1.70448-8.74511.11321A4.30006,4.30006,0,0,1,252.99307,32.76268Z" transform="translate(-0.23784 -0.24004)"/><path d="M379.542,194.48323c-.373-.0198-.64506-.02786-.916-.04967-2.04126-.16431-2.19735-.34868-1.99465-2.38428a6.1,6.1,0,0,1,4.07092-5.32378,11.44934,11.44934,0,0,1,7.30351-.41684c4.35855,1.10591,6.30755,5.31116,4.44934,9.51962a12.675,12.675,0,0,1-4.61824,5.25416c-1.804,1.24311-3.75273,2.27654-5.64108,3.39664a2.82012,2.82012,0,0,0-.96835.75947h12.23812v2.49509h-17.021c-.54161-1.94511-.41174-2.23954,1.29231-3.06406a40.40036,40.40036,0,0,0,9.44373-6.09625,7.848,7.848,0,0,0,2.90672-4.82136,4.39373,4.39373,0,0,0-4.24717-5.36041c-.199-.01719-.3994-.02021-.59924-.02463C380.98006,188.27258,379.21162,190.122,379.542,194.48323Z" transform="translate(-0.23784 -0.24004)"/><path d="M410.30058,186.59274v13.504h3.97825v2.19364H410.361v5.44538h-2.69317v-5.40109H395.341a2.87323,2.87323,0,0,1,.59853-2.8664c3.24756-3.74022,6.42742-7.53924,9.63076-11.31782C407.195,186.23405,407.56864,186.10512,410.30058,186.59274Zm-11.79577,13.46474h9.08384V189.41621C404.57354,192.94825,401.605,196.42575,398.50481,200.05748Z" transform="translate(-0.23784 -0.24004)"/><path d="M251.45768,131.31587v2.35829h-1.79534c-2.9983,0-5.99732.03668-8.99452-.02094-.97019-.01864-1.4176.16782-1.486,1.25931-.11417,1.82154-.42719,3.63063-.70324,5.81481a8.34544,8.34544,0,0,1,7.58345-2.83022c3.35063.27334,5.6177,2.09657,6.34731,5.08791.889,3.645-.26844,7.11-3.13848,8.71854a10.5585,10.5585,0,0,1-10.65155.04776,6.01371,6.01371,0,0,1-3.1751-4.58455c.34246-.06608.69413-.1155,1.036-.20334a1.6584,1.6584,0,0,1,2.30589,1.03981c1.23484,2.62788,5.36171,3.55743,8.37065,2.09055a5.35942,5.35942,0,0,0,.30146-9.14307,6.2652,6.2652,0,0,0-8.54317,2.19535c-.70729,1.20868-1.70313.44147-2.5628.48878a2.37489,2.37489,0,0,1-.36429-1.33927c.32327-3.30122.74614-6.59279,1.05772-9.895.08664-.91852.39383-1.19343,1.3154-1.182,3.99713.04972,7.99523.01952,11.993.02442C250.70323,131.24353,251.05242,131.288,251.45768,131.31587Z" transform="translate(-0.23784 -0.24004)"/><path d="M261.55008,152.55131h-3.10626c.02537-7.57487,3.72149-13.36257,8.91963-18.77194H254.20078v-2.45066h16.50047a2.96722,2.96722,0,0,1-.88005,3.10338,24.78773,24.78773,0,0,0-7.87614,14.191C261.741,149.87845,261.68593,151.15805,261.55008,152.55131Z" transform="translate(-0.23784 -0.24004)"/><path d="M391.78074,136.29471l-2.60907.58383c-1.9362-3.5388-4.455-4.61152-7.843-3.43341-2.72663.94812-4.6331,4.588-4.08618,7.95481,2.2021-2.85779,5.175-3.51315,8.47831-3.07551,4.03051.53393,6.34034,3.085,6.41129,6.94333a7.35841,7.35841,0,0,1-6.15313,7.59077c-6.18706,1.22175-10.56044-1.84706-11.45947-8.09484a16.4791,16.4791,0,0,1,.788-8.50216c2.14075-5.45553,9.701-7.43427,14.28372-3.75174A5.76134,5.76134,0,0,1,391.78074,136.29471Zm-8.21763,14.60261a17.10354,17.10354,0,0,0,2.87361-.714c3.251-1.418,3.90873-6.39311,1.17665-8.52031-2.9939-2.33107-8.19641-1.08141-9.80472,2.33366a3.31587,3.31587,0,0,0-.07163,2.86817A6.38727,6.38727,0,0,0,383.56311,150.89732Z" transform="translate(-0.23784 -0.24004)"/><path d="M413.91259,142.18915a36.045,36.045,0,0,1-.73084,4.1908c-1.26712,4.42184-4.61543,6.79973-9.29358,6.75191a8.82951,8.82951,0,0,1-8.82932-6.88836,15.95872,15.95872,0,0,1-.13687-8.1816c1.1956-4.91575,4.617-7.50339,9.65431-7.3567,4.65428.13553,8.02318,3.08178,8.91419,7.85193C413.69483,139.651,413.75257,140.77225,413.91259,142.18915Zm-16.91666-.32947a44.16685,44.16685,0,0,0,1.6478,5.72259,5.47236,5.47236,0,0,0,5.32175,3.23149,5.70591,5.70591,0,0,0,5.59134-3.02581,12.32771,12.32771,0,0,0,.04251-11.73333,5.71476,5.71476,0,0,0-5.58413-3.04563c-2.41363.03514-4.44812.99757-5.4242,3.269A43.91,43.91,0,0,0,396.99593,141.85968Z" transform="translate(-0.23784 -0.24004)"/><path d="M531.71552,136.27256a15.38184,15.38184,0,0,1-2.17254.48242,1.07925,1.07925,0,0,1-.81862-.57435c-.91-2.23927-2.68822-3.07061-4.9432-3.10279-2.35342-.03357-4.4475.691-5.48982,2.92619a36.11734,36.11734,0,0,0-1.553,5.07657l.36141.1688c.12023-.05617.28769-.07915.35384-.17329,2.34287-3.33591,8.17272-3.55054,11.30338-1.7697,4.48289,2.55008,4.40731,9.71145-.13529,12.48088A9.17448,9.17448,0,0,1,514.663,146.0021a16.95623,16.95623,0,0,1,.33931-9.12154,9.36978,9.36978,0,0,1,14.17571-4.62108A5.95674,5.95674,0,0,1,531.71552,136.27256Zm-7.93026,4.2797c-3.07007-.06089-5.39144,1.4116-6.27035,4.0314a2.73559,2.73559,0,0,0-.11115,1.3858,6.41461,6.41461,0,0,0,9.61518,3.87936,4.66411,4.66411,0,0,0,2.11828-3.33346C529.69626,142.91977,527.6337,140.6286,523.78526,140.55226Z" transform="translate(-0.23784 -0.24004)"/><path d="M548.58571,131.37223v13.5759h3.95777v2.14737h-3.95437v5.42818h-2.64586v-5.3511h-12.352a2.885,2.885,0,0,1,.55652-2.86343c3.218-3.71376,6.48727-7.39322,9.50174-11.26874C545.00089,131.30305,546.48208,130.97639,548.58571,131.37223Zm-2.74019,2.836c-3.0317,3.54535-6.01489,7.03393-9.11274,10.65665h9.11274Z" transform="translate(-0.23784 -0.24004)"/><path d="M531.243,76.63152H518.42774V74.19611H534.931a2.95619,2.95619,0,0,1-.89455,3.13845,24.792,24.792,0,0,0-7.85712,14.19926c-.202,1.25217-.25928,2.52772-.39047,3.86663h-3.10682C522.72454,87.86088,526.38425,82.08656,531.243,76.63152Z" transform="translate(-0.23784 -0.24004)"/><path d="M544.271,74.221V95.39534H541.6127v-16.465a7.52986,7.52986,0,0,1-5.5531,1.38645V78.034c.68742-.09909,1.35715-.15963,2.01058-.29727A4.17785,4.17785,0,0,0,541.28,75.46287C541.902,73.9688,542.90522,73.97755,544.271,74.221Z" transform="translate(-0.23784 -0.24004)"/><path d="M238.2105,194.93643c-.3462,0-.5426.01344-.7367-.00208-2.30773-.1845-2.50192-.436-2.151-2.793a5.96406,5.96406,0,0,1,3.8311-4.84848,11.18469,11.18469,0,0,1,8.65646-.10919c3.4996,1.37089,4.91886,5.33342,3.3203,9.04623a12.63317,12.63317,0,0,1-4.68079,5.35343c-2.10155,1.44275-4.33492,2.69352-6.633,4.10319h12.30233v2.50207H235.05407c-.48048-2.02683-.39845-2.20254,1.34788-3.04956a40.6518,40.6518,0,0,0,9.35067-6.0236,7.90948,7.90948,0,0,0,2.97843-4.91138,4.38,4.38,0,0,0-4.28028-5.32758,12.1206,12.1206,0,0,0-2.03716.00727,4.42462,4.42462,0,0,0-4.30169,5.13317C238.13465,194.28955,238.1699,194.56112,238.2105,194.93643Z" transform="translate(-0.23784 -0.24004)"/><path d="M254.50728,202.13722c.27736-.0617.42774-.10373.58093-.12794,1.88186-.29745,1.83771-.27454,2.65857,1.3604a5.60289,5.60289,0,0,0,1.38094,1.76932c2.02178,1.67116,6.62988,1.75868,8.74822.23136a3.67794,3.67794,0,0,0,1.49822-3.687,3.158,3.158,0,0,0-2.52659-2.8718c-1.58013-.36624-3.2224-.46441-4.95252-.69461V196.0275a10.8861,10.8861,0,0,0,2.38538-.03283,8.71444,8.71444,0,0,0,3.30023-1.1867,3.20093,3.20093,0,0,0-.8678-5.41945,8.27906,8.27906,0,0,0-6.42437-.06766,4.19141,4.19141,0,0,0-2.53239,2.85716c-.13626.45183-.235.915-.37022,1.4496-.85849-.17873-1.66319-.34625-2.44571-.50914a5.9618,5.9618,0,0,1,3.80274-5.793,12.34722,12.34722,0,0,1,9.24735-.1254,4.89006,4.89006,0,0,1,3.47982,4.80757c.02239,2.21638-.99213,3.64655-3.2903,4.64027-.18044.078-.358.16283-.66556.30322a5.84923,5.84923,0,0,0,.67611.2991c2.11614.5992,3.70353,1.72924,3.98765,4.09a5.68918,5.68918,0,0,1-2.76858,6.04084,11.85441,11.85441,0,0,1-7.54052,1.29491,9.12043,9.12043,0,0,1-4.87154-1.82749A6.46423,6.46423,0,0,1,254.50728,202.13722Z" transform="translate(-0.23784 -0.24004)"/><path d="M413.8791,79.1581l-2.56385.5972c-2.3296-3.59972-4.40918-4.5229-7.71229-3.48462-2.84426.894-4.56366,3.98688-4.37493,7.87121.07389.00171.186.03352.21624-.00281,2.80184-3.36909,6.41188-3.63407,10.24913-2.47759,2.8321.85355,4.2443,3.04624,4.481,5.92455a7.05207,7.05207,0,0,1-3.48282,7.12547,9.14757,9.14757,0,0,1-13.89032-5.92465,16.58208,16.58208,0,0,1,.56-9.56671c2.08972-5.49165,9.60135-7.5229,14.24482-3.88032A5.94826,5.94826,0,0,1,413.8791,79.1581Zm-7.94528,4.27459c-3.06776-.057-5.38268,1.41993-6.26657,4.04042a2.64134,2.64134,0,0,0-.13374,1.27172c.81844,4.33631,6.4962,6.52689,9.9092,3.723a5.72645,5.72645,0,0,0,1.79926-3.09539C411.95008,85.81076,409.78618,83.50425,405.93382,83.43269Z" transform="translate(-0.23784 -0.24004)"/><path d="M393.71263,79.15a15.32478,15.32478,0,0,1-2.16085.48352,1.12093,1.12093,0,0,1-.82828-.56578,6.06179,6.06179,0,0,0-9.26953-1.691c-1.98776,1.79122-2.31064,4.2163-2.33865,6.76921,2.26119-2.69277,5.18979-3.37087,8.44854-2.95419,4.05472.51845,6.38473,3.03737,6.48659,6.88006a7.35944,7.35944,0,0,1-6.0784,7.65455c-6.14786,1.28124-10.61232-1.80533-11.52231-8.01232a16.589,16.589,0,0,1,.75308-8.50759c2.114-5.48433,9.62745-7.50875,14.25562-3.8565A5.87726,5.87726,0,0,1,393.71263,79.15Zm-7.91109,4.28254c-3.06727-.06794-5.391,1.398-6.28128,4.0159a2.73084,2.73084,0,0,0-.12021,1.38457,6.41354,6.41354,0,0,0,9.70415,3.83725,4.66848,4.66848,0,0,0,2.03133-3.25862C391.70644,85.81867,389.64754,83.51771,385.80154,83.43252Z" transform="translate(-0.23784 -0.24004)"/><path d="M518.55232,205.77025h12.45937v2.4249H513.91222c-.42182-2.10961-.37143-2.21018,1.40244-3.07227a40.51766,40.51766,0,0,0,9.34418-6.03112,7.87367,7.87367,0,0,0,2.95728-4.92193,4.36908,4.36908,0,0,0-4.1997-5.286,11.61285,11.61285,0,0,0-2.15614.00359,4.42171,4.42171,0,0,0-4.26673,5.16232c.023.26814.0515.53579.08654.89653-.2635,0-.45317.01325-.64055-.002-2.39812-.19548-2.59429-.44061-2.22937-2.83475a6.068,6.068,0,0,1,4.07162-4.92725,11.46276,11.46276,0,0,1,7.30494-.37547c4.29762,1.12392,6.22295,5.27677,4.4114,9.45a12.66207,12.66207,0,0,1-4.692,5.34341C523.20647,203.03619,520.97839,204.28436,518.55232,205.77025Z" transform="translate(-0.23784 -0.24004)"/><path d="M547.86032,187.05018v13.57135H551.821v2.14671h-3.94558v5.42782h-2.649v-5.34144h-12.351a2.86374,2.86374,0,0,1,.5499-2.8618c3.21756-3.71345,6.49-7.38982,9.49963-11.26818C544.27749,186.98159,545.75645,186.66075,547.86032,187.05018Zm-2.74652,2.84c-3.01412,3.5314-5.993,7.02155-9.10864,10.67193h9.10864Z" transform="translate(-0.23784 -0.24004)"/><path d="M686.08144,249.8824c-.53432-.28582-.94207-.50338-1.34936-.72181a4.68267,4.68267,0,0,1-2.68916-4.34888,4.46675,4.46675,0,0,1,2.61534-4.2637,12.54469,12.54469,0,0,1,11.43831-.04554,4.43424,4.43424,0,0,1,2.614,4.48762,4.56264,4.56264,0,0,1-2.99643,4.11826c-.25283.11605-.50631.23074-.757.3513-.02748.01321-.0382.06111-.12615.21231.49242.22225.9835.43445,1.46648.66346a5.09042,5.09042,0,0,1,3.24932,4.64552,5.17281,5.17281,0,0,1-2.80014,5.07794,13.37786,13.37786,0,0,1-12.87375-.07568,4.85067,4.85067,0,0,1-2.5749-4.92164,5.00793,5.00793,0,0,1,3.01166-4.42353C684.83327,250.37673,685.38716,250.1761,686.08144,249.8824Zm4.4465,9.68385a34.41885,34.41885,0,0,0,4.24559-1.21869,3.16974,3.16974,0,0,0,1.90218-3.19409,3.01417,3.01417,0,0,0-1.96066-2.89163c-1.239-.52169-2.58369-.78624-3.84568-1.26047-1.86434-.70058-3.454-.02789-4.95029.93967a3.613,3.613,0,0,0,.32144,6.42492A24.88066,24.88066,0,0,0,690.52794,259.56625Zm-.276-18.481a22.64824,22.64824,0,0,0-3.87516,1.15377,2.83052,2.83052,0,0,0-.69428,4.49535c1.96911,2.12226,6.63182,2.50242,8.90578.72606a3.1012,3.1012,0,0,0-.58541-5.4524A23.649,23.649,0,0,0,690.25191,241.08528Z" transform="translate(-0.23784 -0.24004)"/><path d="M678.81945,244.77312l-2.59946.58382c-1.96242-3.50124-4.256-4.53027-7.61027-3.50005-2.86828.881-4.677,4.098-4.39687,7.83025.07342,0,.18586.03187.216-.00451,2.51192-3.02863,5.80588-3.44,9.36908-2.689,3.0583.64456,4.842,2.71582,5.31293,5.89612a7.329,7.329,0,0,1-3.50912,7.461,9.15751,9.15751,0,0,1-13.85584-6.027,16.58437,16.58437,0,0,1,.55647-9.453c2.08523-5.51949,9.53859-7.5808,14.22117-3.96081A5.77619,5.77619,0,0,1,678.81945,244.77312Zm-8.10223,4.259c-2.97931.01394-5.18074,1.44009-6.06439,3.983a2.596,2.596,0,0,0-.138,1.38269,5.83535,5.83535,0,0,0,4.60119,4.6711c3.04641.68668,5.81092-.49937,6.80555-2.87379C677.53531,252.34267,675.115,249.01152,670.71722,249.03212Z" transform="translate(-0.23784 -0.24004)"/><path d="M252.82643,79.17339l-2.61126.58445c-1.93312-3.49466-4.25323-4.53351-7.61273-3.49781-2.864.88295-4.68715,4.135-4.38535,7.82415.074.00156.18622.03339.21645-.003,2.55127-3.06819,5.8876-3.4576,9.4847-2.65451,3.00829.67164,4.72521,2.71842,5.19287,5.86837a7.34453,7.34453,0,0,1-3.41068,7.39844,9.16587,9.16587,0,0,1-13.92649-5.86028,16.49193,16.49193,0,0,1,.57368-9.68114c2.10375-5.42766,9.5562-7.427,14.18258-3.83844A5.84832,5.84832,0,0,1,252.82643,79.17339ZM244.6073,93.77867a17.13916,17.13916,0,0,0,2.87225-.71757c3.25617-1.42381,3.90888-6.3857,1.17088-8.52053a6.81355,6.81355,0,0,0-9.852,2.4488,3.19031,3.19031,0,0,0-.0586,2.6447A6.36148,6.36148,0,0,0,244.6073,93.77867Z" transform="translate(-0.23784 -0.24004)"/><path d="M274.95609,85.05379a35.78137,35.78137,0,0,1-.7597,4.27453c-1.28086,4.37555-4.6057,6.7263-9.22122,6.68406a8.8247,8.8247,0,0,1-8.86239-6.84389,15.94707,15.94707,0,0,1-.13312-8.297c1.1997-4.8461,4.6105-7.41937,9.59006-7.28854,4.66688.12261,8.04211,3.04412,8.95368,7.808C274.7325,82.48367,274.78989,83.60548,274.95609,85.05379Zm-2.61293-.27138a41.21739,41.21739,0,0,0-1.5368-5.499c-1.03582-2.40382-3.162-3.417-5.72024-3.395a5.71325,5.71325,0,0,0-5.58067,3.4418,12.85136,12.85136,0,0,0,.07769,11.0116,5.68954,5.68954,0,0,0,5.51124,3.35318c2.52867.01941,4.61153-.98031,5.63748-3.32313A41.83707,41.83707,0,0,0,272.34316,84.78241Z" transform="translate(-0.23784 -0.24004)"/><path d="M394.12753,255.674c.989-.22388,1.8005-.40763,2.60833-.59053a1.61431,1.61431,0,0,1,.24733.31218c1.167,2.87335,2.6,3.87211,5.51379,3.83494a5.444,5.444,0,0,0,5.56508-4.07678,41.92957,41.92957,0,0,0,.98253-4.78351c-.33343-.02592-.44478-.06583-.47478-.03249-2.87306,3.19225-6.46348,3.37726-10.24658,2.29a5.90827,5.90827,0,0,1-4.45729-5.50939,6.21958,6.21958,0,0,1,3.04011-6.44972,10.42116,10.42116,0,0,1,10.33063-.30585,7.45885,7.45885,0,0,1,3.84217,5.12492,17.50615,17.50615,0,0,1-.26244,10.04954,9.1434,9.1434,0,0,1-13.97068,4.48518A6.51463,6.51463,0,0,1,394.12753,255.674Zm7.46977-4.80662c3.05672-.05232,5.3032-.82292,6.5518-3.28195a3.03984,3.03984,0,0,0,.13322-2.14324c-1.35794-3.92619-7.2663-5.2951-10.3091-2.44708a4.4894,4.4894,0,0,0,1.28121,7.29392A13.49321,13.49321,0,0,0,401.5973,250.86736Z" transform="translate(-0.23784 -0.24004)"/><path d="M390.43932,239.72365v2.36007c-.44139.0243-.85986.06658-1.2784.06731-3.19831.0056-6.39709.03382-9.59464-.01617-.9198-.01437-1.345.16622-1.416,1.19938-.12545,1.8252-.43216,3.638-.66243,5.45138.14862.03471.2545.08554.27665.06093,2.19214-2.43257,5.0204-2.79589,8.03089-2.37969a6.39893,6.39893,0,0,1,5.62983,5.292c.70928,3.64845-.38666,6.83147-3.14282,8.3939a10.54709,10.54709,0,0,1-10.75406.047,6.15092,6.15092,0,0,1-3.15454-4.56776c.45257-.0784.91617-.12592,1.36157-.24272a1.3859,1.3859,0,0,1,1.91358.94274c1.21307,2.66514,5.19044,3.702,8.30593,2.31732a5.20744,5.20744,0,0,0,2.38172-6.95765,5.506,5.506,0,0,0-2.29732-2.43876,6.23877,6.23877,0,0,0-8.20989,2.41831c-.45782.738-1.18233.8226-3.01758.30079.25758-2.39007.51595-4.80442.77866-7.21827.15137-1.39072.27234-2.78664.49333-4.16639.05077-.31708.4536-.8244.699-.82713C381.29228,239.71019,385.80248,239.72365,390.43932,239.72365Z" transform="translate(-0.23784 -0.24004)"/><path d="M235.83265,252.13606c.28222-2.61073.546-5.06545.8135-7.51976.14725-1.3509.25349-2.70937.48615-4.04563.056-.32142.5381-.80971.82884-.813,4.3569-.04921,8.71456-.0306,13.072-.02287a1.93675,1.93675,0,0,1,.41054.10995v2.24376c-.41774.02174-.83921.062-1.26076.0627-3.27815.00537-6.55648.02-9.83436-.00983-.73074-.00665-1.05482.16762-1.12633.9718-.16921,1.90294-.45635,3.79538-.73509,6.00323.45479-.42452.68345-.65693.93143-.86652,2.65579-2.24469,5.69936-2.36745,8.82015-1.40042,2.86485.88773,4.05852,3.16149,4.4095,5.993.58418,4.7134-2.5887,8.307-7.756,8.70548a10.54806,10.54806,0,0,1-6.03743-1.163,6.967,6.967,0,0,1-3.53191-4.7414c.55389-.09428,1.023-.13662,1.4706-.258.94343-.25594,1.44567-.02965,1.90253.96287,1.23919,2.69224,5.33531,3.71423,8.42334,2.24294a5.25539,5.25539,0,0,0,2.20448-7.024,5.52938,5.52938,0,0,0-2.36725-2.37093,6.27411,6.27411,0,0,0-8.11541,2.47634,1.53417,1.53417,0,0,1-1.01188.57126A12.13171,12.13171,0,0,1,235.83265,252.13606Z" transform="translate(-0.23784 -0.24004)"/><path d="M255.012,255.66769c.45844-.0879.81085-.135,1.152-.22471a1.65585,1.65585,0,0,1,2.30326,1.04388c1.23929,2.62576,5.36619,3.55306,8.37314,2.08453a5.34081,5.34081,0,0,0,.18615-9.19383,6.24206,6.24206,0,0,0-8.43439,2.25205c-.70694,1.20393-1.70365.443-2.56413.48284a2.373,2.373,0,0,1-.35953-1.34235c.32707-3.34105.7181-6.67581,1.09017-10.01241.05675-.50892.00776-1.04807.80783-1.0446,4.47524.01938,8.95058.0093,13.531.0093v2.37254c-.42981.01986-.85476.05585-1.2798.05648-3.23821.00479-6.47657.02036-9.71449-.0104-.76181-.00722-1.13637.13721-1.20776,1.01742-.154,1.899-.45077,3.78646-.73665,6.05568a8.3198,8.3198,0,0,1,7.58787-2.83553c3.35.27182,5.61477,2.096,6.34347,5.09072.88732,3.64649-.27319,7.11114-3.14294,8.7167a10.55073,10.55073,0,0,1-10.65073.042A6.54245,6.54245,0,0,1,255.012,255.66769Z" transform="translate(-0.23784 -0.24004)"/><path d="M531.70667,244.75656l-2.54086.60047c-2.40562-3.62925-4.77791-4.6074-8.05641-3.38218-2.61281.97644-4.40027,4.44167-3.95449,7.91139a7.203,7.203,0,0,1,5.28229-3.04684,15.32272,15.32272,0,0,1,4.27576.18439c3.46435.73333,5.39748,3.422,5.33883,7.102a7.34663,7.34663,0,0,1-6.0542,7.19613c-6.14045,1.30081-10.63389-1.78954-11.54379-7.98137a16.56326,16.56326,0,0,1,.78187-8.62067c2.14618-5.4485,9.73067-7.40916,14.29512-3.71307A5.822,5.822,0,0,1,531.70667,244.75656Zm-7.99828,4.27535c-3.06053-.03442-5.38014,1.47835-6.22219,4.10289a2.61649,2.61649,0,0,0-.09609,1.27382,6.42421,6.42421,0,0,0,9.79095,3.80883,4.67975,4.67975,0,0,0,1.951-3.17982C529.72966,251.40777,527.61741,249.07589,523.70839,249.03191Z" transform="translate(-0.23784 -0.24004)"/><path d="M537.2378,247.74467c-.32437,0-.48363.01093-.64107-.00167-2.3976-.19157-2.59559-.44039-2.2275-2.83739a6.05689,6.05689,0,0,1,3.96474-4.88124,11.46826,11.46826,0,0,1,7.3019-.44918c4.37045,1.08079,6.35525,5.273,4.52009,9.48646a12.84489,12.84489,0,0,1-4.79039,5.41356c-2.06912,1.40874-4.26369,2.63306-6.57017,4.03984h12.37892v2.48566H534.071c-.418-2.12426-.37067-2.2171,1.40185-3.077a40.78333,40.78333,0,0,0,9.25611-5.95031,7.92984,7.92984,0,0,0,3.06223-5.12195,4.26345,4.26345,0,0,0-3.74145-5.09006,9.59052,9.59052,0,0,0-2.98253-.01292c-2.73909.425-4.148,2.3274-3.91354,5.10055C537.1764,247.11722,537.20388,247.385,537.2378,247.74467Z" transform="translate(-0.23784 -0.24004)"/><path class="cls-1" d="M670.1822,150.90006a6.33941,6.33941,0,0,1-5.09578-2.63127c-1.57137-2.3414-1.67344-3.6826.58963-6.04672,1.85291-1.93562,5.8981-2.25425,8.15344-.79475a4.60948,4.60948,0,0,1,1.99922,4.5803,4.55264,4.55264,0,0,1-2.78069,4.15028A18.06677,18.06677,0,0,1,670.1822,150.90006Z" transform="translate(-0.23784 -0.24004)"/><path class="cls-1" d="M689.21644,142.51416a18.8405,18.8405,0,0,1-2.99783-.73941,4.48859,4.48859,0,0,1-1.232-7.23491c2.91679-2.77516,8.70609-1.54909,10.2822,2.14762a2.77155,2.77155,0,0,1-.19189,2.72417A7.033,7.033,0,0,1,689.21644,142.51416Z" transform="translate(-0.23784 -0.24004)"/><path class="cls-1" d="M131.34325,244.495c1.45125,0,2.91448-.07921,4.36431.026,1.08168.07855,1.53054.86984,1.53245,1.927.00191,1.05483-.44113,1.8578-1.51786,1.944-1.41675.11347-2.84946.02786-4.3789.02786Z" transform="translate(-0.23784 -0.24004)"/><path class="cls-1" d="M103.39983,254.1973v-9.7918c.89048,0,1.64071-.00147,2.39093.00023,2.75429.00623,3.9091,1.1024,4.06759,3.8785a14.92449,14.92449,0,0,1,.00793,1.55754c-.14927,3.13681-1.43041,4.356-4.55816,4.35553C104.71958,254.19722,104.131,254.1973,103.39983,254.1973Z" transform="translate(-0.23784 -0.24004)"/><path class="cls-1" d="M68.67419,249.65846a14.68246,14.68246,0,0,1-.606,2.4566,3.46525,3.46525,0,0,1-3.48581,2.24352,3.24876,3.24876,0,0,1-3.39018-2.33083,12.14455,12.14455,0,0,1-.3261-4.45186,3.528,3.528,0,0,1,3.86384-3.29407c1.94916.03062,3.29119,1.22958,3.7294,3.37619C68.57015,248.20106,68.58181,248.76438,68.67419,249.65846Z" transform="translate(-0.23784 -0.24004)"/><path class="cls-1" d="M398.50481,200.05748c3.10019-3.63173,6.06873-7.10923,9.08384-10.64127v10.64127Z" transform="translate(-0.23784 -0.24004)"/><path class="cls-1" d="M383.56311,150.89732a6.38727,6.38727,0,0,1-5.82609-4.03245,3.31587,3.31587,0,0,1,.07163-2.86817c1.60831-3.41507,6.81082-4.66473,9.80472-2.33366,2.73208,2.1272,2.07431,7.10231-1.17665,8.52031A17.10354,17.10354,0,0,1,383.56311,150.89732Z" transform="translate(-0.23784 -0.24004)"/><path class="cls-1" d="M396.99593,141.85968A43.91,43.91,0,0,1,398.591,136.278c.97608-2.27141,3.01057-3.23384,5.4242-3.269a5.71476,5.71476,0,0,1,5.58413,3.04563,12.32771,12.32771,0,0,1-.04251,11.73333,5.70591,5.70591,0,0,1-5.59134,3.02581,5.47236,5.47236,0,0,1-5.32175-3.23149A44.16685,44.16685,0,0,1,396.99593,141.85968Z" transform="translate(-0.23784 -0.24004)"/><path class="cls-1" d="M523.78526,140.55226c3.84844.07634,5.911,2.36751,5.352,5.9631a4.66411,4.66411,0,0,1-2.11828,3.33346,6.41461,6.41461,0,0,1-9.61518-3.87936,2.73559,2.73559,0,0,1,.11115-1.3858C518.39382,141.96386,520.71519,140.49137,523.78526,140.55226Z" transform="translate(-0.23784 -0.24004)"/><path class="cls-1" d="M545.84552,134.20823v10.65665h-9.11274C539.83063,141.24216,542.81382,137.75358,545.84552,134.20823Z" transform="translate(-0.23784 -0.24004)"/><path class="cls-1" d="M405.93382,83.43269c3.85236.07156,6.01626,2.37807,5.30815,5.93975a5.72645,5.72645,0,0,1-1.79926,3.09539c-3.413,2.80389-9.09076.61331-9.9092-3.723a2.64134,2.64134,0,0,1,.13374-1.27172C400.55114,84.85262,402.86606,83.3757,405.93382,83.43269Z" transform="translate(-0.23784 -0.24004)"/><path class="cls-1" d="M385.80154,83.43252c3.846.08519,5.9049,2.38615,5.334,5.9791a4.66848,4.66848,0,0,1-2.03133,3.25862,6.41354,6.41354,0,0,1-9.70415-3.83725,2.73084,2.73084,0,0,1,.12021-1.38457C380.4105,84.83055,382.73427,83.36458,385.80154,83.43252Z" transform="translate(-0.23784 -0.24004)"/><path class="cls-1" d="M545.1138,189.89016v10.67193h-9.10864C539.12083,196.91171,542.09968,193.42156,545.1138,189.89016Z" transform="translate(-0.23784 -0.24004)"/><path class="cls-1" d="M690.52794,259.56625a24.88066,24.88066,0,0,1-4.28742-1.20029,3.613,3.613,0,0,1-.32144-6.42492c1.49625-.96756,3.086-1.64025,4.95029-.93967,1.262.47423,2.60672.73878,3.84568,1.26047a3.01417,3.01417,0,0,1,1.96066,2.89163,3.16974,3.16974,0,0,1-1.90218,3.19409A34.41885,34.41885,0,0,1,690.52794,259.56625Z" transform="translate(-0.23784 -0.24004)"/><path class="cls-1" d="M690.25191,241.08528a23.649,23.649,0,0,1,3.75093.92278,3.1012,3.1012,0,0,1,.58541,5.4524c-2.274,1.77636-6.93667,1.3962-8.90578-.72606a2.83052,2.83052,0,0,1,.69428-4.49535A22.64824,22.64824,0,0,1,690.25191,241.08528Z" transform="translate(-0.23784 -0.24004)"/><path class="cls-1" d="M670.71722,249.03212c4.39781-.0206,6.81809,3.31055,5.20436,7.163-.99463,2.37442-3.75914,3.56047-6.80555,2.87379a5.83535,5.83535,0,0,1-4.60119-4.6711,2.596,2.596,0,0,1,.138-1.38269C665.53648,250.47221,667.73791,249.04606,670.71722,249.03212Z" transform="translate(-0.23784 -0.24004)"/><path class="cls-1" d="M244.6073,93.77867a6.36148,6.36148,0,0,1-5.86751-4.1446,3.19031,3.19031,0,0,1,.0586-2.6447,6.81355,6.81355,0,0,1,9.852-2.4488c2.738,2.13483,2.08529,7.09672-1.17088,8.52053A17.13916,17.13916,0,0,1,244.6073,93.77867Z" transform="translate(-0.23784 -0.24004)"/><path class="cls-1" d="M272.34316,84.78241a41.83707,41.83707,0,0,1-1.6113,5.58947c-1.02595,2.34282-3.10881,3.34254-5.63748,3.32313a5.68954,5.68954,0,0,1-5.51124-3.35318,12.85136,12.85136,0,0,1-.07769-11.0116,5.71325,5.71325,0,0,1,5.58067-3.4418c2.5582-.022,4.68442.99115,5.72024,3.395A41.21739,41.21739,0,0,1,272.34316,84.78241Z" transform="translate(-0.23784 -0.24004)"/><path class="cls-1" d="M401.5973,250.86736a13.49321,13.49321,0,0,1-2.34287-.57835,4.4894,4.4894,0,0,1-1.28121-7.29392c3.0428-2.848,8.95116-1.47911,10.3091,2.44708a3.03984,3.03984,0,0,1-.13322,2.14324C406.9005,250.04444,404.654,250.815,401.5973,250.86736Z" transform="translate(-0.23784 -0.24004)"/><path class="cls-1" d="M523.70839,249.03191c3.909.044,6.02127,2.37586,5.42367,6.00572a4.67975,4.67975,0,0,1-1.951,3.17982,6.42421,6.42421,0,0,1-9.79095-3.80883,2.61649,2.61649,0,0,1,.09609-1.27382C518.32825,250.51026,520.64786,248.99749,523.70839,249.03191Z" transform="translate(-0.23784 -0.24004)"/></g></g></svg>