<svg xmlns="http://www.w3.org/2000/svg" viewBox="0 0 755.82131 275.28001"><defs><style>.cls-1{fill:#fff;}</style></defs><title>t-shirt</title><g id="Слой_2" data-name="Слой 2"><g id="Слой_1-2" data-name="Слой 1"><path d="M755.76,275.52H.24V.24H755.76c.033.47552.09492.951.09492,1.42656q.00642,136.15218,0,272.30437C755.85486,274.48729,755.793,275.00364,755.76,275.52ZM1.62618,168.43157h182.513c.2682-1.39233.21479-54.90925-.03657-55.76191H1.62618ZM1.62355,1.61548V56.029c1.41686.27879,181.73838.2125,182.64282-.061V1.61548ZM1.62576,224.0407a1.874,1.874,0,0,0,.42028.12227q90.6536.01725,181.30718.02268a5.36536,5.36536,0,0,0,.71133-.0794c.03237-.00438.0608-.04646.08862-.07357.02856-.02788.05418-.05882.08111-.08839.25134-2.89272.1265-53.03545-.13111-53.91528H1.62576Zm182.605-112.94821V57.68891H1.72156c-.272,1.11813-.2477,52.42184.03233,53.40358ZM601.113,1.62177c-.25629,1.58914-.17848,53.63448.068,54.47117,2.07633.26713,152.42086.14718,153.28113-.126V1.62177Zm.1142,56.06594c-.29426,1.39474-.22219,52.529.06064,53.35926,1.85449.25161,152.29242.14907,153.17115-.11016V57.68771ZM754.31965,168.45054c.31582-1.0067.30972-54.872-.0007-55.82048H601.15371v55.82048Zm-153.174,55.58974a1.86627,1.86627,0,0,0,.41988.12258q76.01388.01731,152.02769.02276a5.37091,5.37091,0,0,0,.71133-.07931c.0324-.00438.06088-.04643.0886-.07358.02859-.02789.05419-.05882.08109-.08843.25084-2.88369.12639-53.03486-.13084-53.91532H601.14563Zm-416.915,1.6485H1.72158c-.2721,1.1186-.24763,47.38294.02311,48.33058H184.23062ZM463.15078,56.06851V1.7249c-1.13329-.27184-140.03209-.25083-140.96833.00753V56.06851Zm-.00428,112.3884V112.6044H322.19c-.255,2.68417-.1425,54.91676.11669,55.8525Zm1.58414-112.46558c1.49412.265,133.871.19977,134.72379-.05366.25436-2.00678.14315-53.414-.12855-54.31281H464.73064Zm-144.1379,56.702H185.887v55.7302H320.59274Zm-134.742-56.7018c1.49609.26505,133.87163.19952,134.72388-.054.25433-2.01054.14279-53.41459-.12885-54.31261h-134.595ZM754.481,225.68675H601.23949c-.276,1.163-.24287,47.40753.02953,48.33029H754.481ZM463.1499,224.13407V170.09761c-1.44993-.27127-140.106-.21069-140.93959.0398v53.99666ZM599.4934,112.6715H464.7467v55.6573c1.30184.29114,133.79133.2437,134.7467-.05216ZM185.93383,170.0081c-.266,1.44357-.2067,53.22972.04916,54.0871,1.98271.24927,133.69792.14106,134.59637-.12041V170.0081ZM464.74635,110.968c1.29261.2906,133.78693.245,134.68822-.03239.23484-1.54382.15873-52.31185-.08889-53.22457H464.74635Zm-1.577-53.26044H322.26059c-.254,1.57872-.18457,52.51845.06249,53.35429,2.17089.254,139.91481.13727,140.8463-.13753Zm-142.55627-.01561H185.93644c-.25463,1.656-.17993,52.53652.067,53.37,2.25659.26364,133.6877.13976,134.60962-.14474ZM599.4907,170.00953H464.82105c-.24849,1.55575-.18416,53.24449.056,54.09053,2.14553.25657,133.68876.13906,134.61366-.13833ZM322.17141,273.93469c1.41545.30105,140.09405.23428,140.95646-.05244.24551-1.82095.14731-47.30151-.11057-48.183H322.17141ZM185.86594,273.927c1.30989.29631,133.80378.24618,134.6942-.037.23358-1.6115.15255-47.28453-.09554-48.19542H185.86594Zm413.57988.10386c.29379-2.58923.161-47.46321-.12041-48.30483H464.76053v48.30483Z" transform="translate(-0.24 -0.23999)"/><path class="cls-1" d="M755.76,275.52c.033-.51636.09486-1.03271.09492-1.54907q.00633-136.15218,0-272.30437c0-.47552-.06193-.951-.09492-1.42657.08.04.22652.07582.22934.12067C756.00932.67941,756,1,756,1.32q0,136.56-.01477,273.12C755.98518,274.79121,756.262,275.25378,755.76,275.52Z" transform="translate(-0.24 -0.23999)"/><path class="cls-1" d="M1.62618,168.43157V112.66966H184.10265c.25136.85266.30477,54.36958.03657,55.76191Zm96.98011-23.14085c-2.68094-.15359-5.33936.02582-8.01432-.1037v-3.58529h7.01449v-2.86046H90.61993v-2.97319h7.5397v-2.54174a76.76455,76.76455,0,0,0-10.74112.08724V147.8465a68.44917,68.44917,0,0,0,11.18778-.03583Zm1.52365-1.95542a3.87121,3.87121,0,0,0,2.15993,4.0649,8.41978,8.41978,0,0,0,7.72827.08585c1.77407-.84522,2.51507-2.3254,2.33588-4.5651-.14208-1.776-1.294-2.64732-2.87278-3.10807-.49714-.14508-.99438-.2916-1.49677-.41662-1.16029-.28871-2.33074-.53905-3.48374-.85377-.94625-.2583-1.27083-.64614-1.27124-1.35076-.0004-.68613.395-1.16111,1.20761-1.4508a3.36433,3.36433,0,0,1,4.14547,1.19053c.21132.26191.49775.60823.78031.63978a21.42664,21.42664,0,0,0,2.40761.02046,3.99512,3.99512,0,0,0-2.25407-3.95153,7.49777,7.49777,0,0,0-7.34427.10994c-1.69365.91857-2.10971,2.49564-1.94461,4.29445a3.38752,3.38752,0,0,0,2.71162,3.11754c1.18716.342,2.39324.61789,3.58609.941a10.33553,10.33553,0,0,1,1.81933.57522,1.26543,1.26543,0,0,1,.35815,2.1699,2.661,2.661,0,0,1-.89375.57017,3.90549,3.90549,0,0,1-4.50331-1.30283c-.23645-.29475-.532-.701-.844-.74483A16.80607,16.80607,0,0,0,100.12994,143.3353ZM76.1471,147.963v-6.499h5.616v6.4948h2.95845c.31834-1.262.27645-13.837-.0528-14.79784a12.09631,12.09631,0,0,0-3.123.18227v5.19564H76.06726v-5.30219H72.94011V147.963Zm-4.99538-5.18092c-.66614,0-1.17529.01477-1.68326-.00333a1.84821,1.84821,0,0,0-1.85686,1.05684,2.898,2.898,0,0,1-2.92809,1.69217,3.334,3.334,0,0,1-2.99085-2.23808,7.10186,7.10186,0,0,1-.05907-5.25335,3.20306,3.20306,0,0,1,2.86038-2.3701,3.07738,3.07738,0,0,1,3.2987,1.67336,1.38069,1.38069,0,0,0,.8944.66223,19.57143,19.57143,0,0,0,2.39013.0311,3.79382,3.79382,0,0,0-1.169-3.0454,6.5942,6.5942,0,0,0-6.9949-1.96229,6.36724,6.36724,0,0,0-4.82934,5.39524,13.924,13.924,0,0,0,.00919,4.15994c.91232,6.15955,7.49588,7.00621,10.9095,4.34122A5.83637,5.83637,0,0,0,71.15172,142.78208Zm45.88673-6.948v12.02654a5.59142,5.59142,0,0,0,3.246-.08857v-3.9133c0-1.35742-.00789-2.7149.00229-4.07224.00973-1.29866-.04618-2.60151.04875-4.0303h4.19548v-2.52054H112.64263v2.59841Z" transform="translate(-0.24 -0.23999)"/><path class="cls-1" d="M1.62355,1.61548H184.26637V55.968c-.90444.27353-181.226.33982-182.64282.061Zm110.404,23.12934v-2.6213a69.40078,69.40078,0,0,0-10.69892.13886v14.449c1.24185.34546,10.24357.29155,11.17573-.07982a5.678,5.678,0,0,0-.24351-2.53882h-7.653V30.46155h6.86269V27.61629h-6.8884V24.74482ZM81.63473,26.43435a4.3821,4.3821,0,0,0-1.82215-3.58966,7.76187,7.76187,0,0,0-8.05771-.08667,4.24307,4.24307,0,0,0-1.83054,4.047,3.48406,3.48406,0,0,0,2.66027,3.19082c.94187.31726,1.92543.50935,2.88659.77118.80739.21994,1.6246.41792,2.40886.704A1.31025,1.31025,0,0,1,78.88674,32.803a1.50188,1.50188,0,0,1-1.08794,1.30553,3.46612,3.46612,0,0,1-.81244.17706c-.55691.04174-1.11687.04168-1.67534.06433a2.40956,2.40956,0,0,1-2.36217-1.31667,1.85542,1.85542,0,0,0-1.07894-.81476,9.57812,9.57812,0,0,0-1.97306-.036,3.91945,3.91945,0,0,0,2.29373,4.17438,8.5078,8.5078,0,0,0,7.51934.04827c1.82428-.84141,2.60652-2.38425,2.40115-4.64617-.16111-1.77446-1.3361-2.62356-2.90928-3.081-.1911-.05556-.38124-.11522-.57419-.16347-1.46915-.36744-2.94934-.69566-4.40545-1.10885-1.41241-.40079-1.61254-1.33553-.53754-2.35093a2.48514,2.48514,0,0,1,.80649-.49612,3.14451,3.14451,0,0,1,3.72818,1.11346c.23358.29195.53686.68858.847.72764A21.15935,21.15935,0,0,0,81.63473,26.43435Zm14.11575-1.74482c-.46036.611-.73332.9952-1.02846,1.36152q-2.78231,3.45338-5.57308,6.9a3.91557,3.91557,0,0,0-.82608,3.84713,81.58514,81.58514,0,0,0,11.44139-.09253V34.10174H92.34973c.38225-.5313.59669-.85778.83919-1.16188q2.83964-3.561,5.69109-7.11249a3.93086,3.93086,0,0,0,.83155-3.76814H88.58646v2.6303Zm-8.75214,12.1548V22.08459H83.98211V36.84433Z" transform="translate(-0.24 -0.23999)"/><path class="cls-1" d="M1.62576,224.0407V170.029H184.10317c.25761.87983.38245,51.02256.13111,53.91528-.02693.02957-.05255.06051-.08111.08839-.02782.02711-.05625.06919-.08862.07357a5.36536,5.36536,0,0,1-.71133.0794Q92.69964,224.17983,2.046,224.163A1.874,1.874,0,0,1,1.62576,224.0407Zm101.74329-16.629v-2.653H95.47534v-3.70327h6.94823v-2.72974c-2.34965-.14591-4.65106.03781-6.96035-.10973v-2.91345h7.43414V192.709h-10.684v14.64435A79.61559,79.61559,0,0,0,103.36905,207.41169ZM78.797,192.69861V207.396a70.64186,70.64186,0,0,0,11.0529-.05895v-2.66562H81.95707v-3.53777h6.94959V198.181H81.98249v-2.85H89.542v-2.6324Zm40.04286,14.68106a71.16123,71.16123,0,0,0,11.11111-.03975v-2.601h-7.851V201.1098h6.87731v-2.83113h-6.86583v-2.94583h7.48525v-2.566H118.83984ZM52.6317,202.80473a3.84459,3.84459,0,0,0,2.05649,4.0753,8.39425,8.39425,0,0,0,7.94829.05109c1.86189-.93419,2.3717-2.58882,2.196-4.53446a3.41961,3.41961,0,0,0-2.804-3.042c-.22861-.07022-.4568-.1432-.68858-.20141-1.47052-.36923-2.95259-.69744-4.4101-1.11214-1.37856-.39226-1.595-1.25268-.59426-2.26658a2.64527,2.64527,0,0,1,1.00686-.608,3.10733,3.10733,0,0,1,3.61184,1.17366c.24173.29212.5361.70326.84727.74365a20.53663,20.53663,0,0,0,2.56494.03546,4.28921,4.28921,0,0,0-2.02035-3.74393,7.3588,7.3588,0,0,0-7.75285-.04572,3.9923,3.9923,0,0,0-1.95537,3.97607A3.55126,3.55126,0,0,0,55.29,200.64142c.33856.11777.68726.20818,1.03454.29876,1.352.35257,2.71406.66994,4.05524,1.05944,1.00159.29091,1.35457.7309,1.33612,1.45087-.01766.68867-.46286,1.18659-1.34112,1.4999a4.32784,4.32784,0,0,1-4.65925-1.32151,2.23905,2.23905,0,0,0-1.10613-.78915A9.89892,9.89892,0,0,0,52.6317,202.80473Zm51.673-10.066c.12334.45687.1981.80246.30949,1.13581q2.03052,6.07652,4.07433,12.14856c.49787,1.47144.78771,1.64851,2.36834,1.61987,1.05826-.01916,1.24567-.13254,1.57664-1.10348q2.222-6.51848,4.42027-13.045a5.08956,5.08956,0,0,0,.132-.89661c-.56071,0-.99512.02036-1.42708-.00362-1.64228-.09115-1.816.039-2.25393,1.60072q-1.06713,3.8051-2.16524,7.60145c-.1037.36088-.25027.70946-.45385,1.27864-.2165-.54781-.36722-.86282-.46738-1.19319-.74119-2.44472-1.46223-4.89557-2.20984-7.33828-.58463-1.9102-1.1705-2.26443-3.17263-1.97666C104.84321,192.59465,104.65532,192.65521,104.3047,192.73875Zm-37.37091,14.731H77.22813v-2.78357H70.099V192.754H66.93379Z" transform="translate(-0.24 -0.23999)"/><path class="cls-1" d="M184.23076,111.09249H1.75389c-.28-.98174-.30434-52.28545-.03233-53.40358h182.5092ZM76.83775,73.27506V88.17945h2.88437V78.37428a3.16332,3.16332,0,0,1,.79245.98074q2.22393,3.89964,4.44246,7.80233c.3.52663.6154,1.09114,1.285,1.14548.78011.06333,1.5693.01479,2.31577.01479.33936-1.40336.2754-14.03225-.048-14.89618H85.661V76.578c0,1.07845.0046,2.15692-.00133,3.23535-.00547.9938-.02227,1.98754-.03408,2.98131a3.56423,3.56423,0,0,1-.88221-1.10663q-2.04085-3.59043-4.07515-7.18459c-.34371-.60863-.72009-1.1855-1.50127-1.22108C78.41974,73.24837,77.6698,73.27506,76.83775,73.27506Zm27.57214,4.75722a6.01172,6.01172,0,0,0-1.8536-3.38907,7.554,7.554,0,0,0-9.58994.17975,8.10778,8.10778,0,0,0-2.16646,8.37331c1.34158,5.31345,6.5917,6.649,10.18358,4.19187a10.85731,10.85731,0,0,1,1.02317-.55106l.51354,1.45277,1.84374-.09383V80.43817a22.69969,22.69969,0,0,0-5.95077.07557v2.34508h3.04647c-.58443,2.04059-1.51958,2.81354-3.31421,2.85007-2.11187.043-3.43126-.79347-3.97837-2.56173a7.386,7.386,0,0,1-.0423-4.3653,3.7311,3.7311,0,0,1,2.89864-2.87673,3.47386,3.47386,0,0,1,3.88,1.47468,1.51807,1.51807,0,0,0,.93843.62321A24.23281,24.23281,0,0,0,104.40989,78.03228Zm-40.77656,10.077A69.57621,69.57621,0,0,0,74.744,88.05147V85.444H66.90547V81.81425h6.86931a5.5445,5.5445,0,0,0-.117-2.83042H66.91945V76.099c1.33471,0,2.5705.004,3.80625-.00113,1.22348-.00511,2.44694-.01951,3.66359-.02978V73.48674a77.56515,77.56515,0,0,0-10.756.12027Zm67.28355.09378V73.41634h-3.15935c-.03288,1.79631-.06457,3.52626-.097,5.29941-1.928.0423-3.66353.06656-5.53963-.00617v-5.2991h-3.03758V88.17294h3.10863V81.7481c1.91985-.07132,3.72513-.08156,5.65736.00191v6.453ZM110.07807,76.129V88.20671h3.245V76.053h4.2269v-2.6094a83.49372,83.49372,0,0,0-11.87587.1303v2.555ZM54.71438,85.50379V73.42939H51.65084V88.194H61.89535V85.50379Z" transform="translate(-0.24 -0.23999)"/><path class="cls-1" d="M601.113,1.62177h153.3491V55.96691c-.86027.27321-151.2048.39316-153.28113.126C600.93451,55.25625,600.8567,3.21091,601.113,1.62177ZM680.8677,36.71823c-.37471-.675-.6218-1.16242-.907-1.62646-1.04461-1.69956-2.07967-3.40576-3.16441-5.07963a1.80056,1.80056,0,0,1,.00375-2.20444c1.05351-1.59894,2.05406-3.23293,3.06644-4.85869.21967-.35272.39762-.73143.68039-1.25746-.72773,0-1.23562.02935-1.73912-.00536-1.68943-.11646-1.99869.07018-2.80588,1.60921-.52371.99837-1.1022,1.96795-1.74029,3.09982-.76383-1.352-1.38205-2.51-2.06824-3.62631a2.13333,2.13333,0,0,0-.9825-.963,6.60618,6.60618,0,0,0-3.2932-.01016c.278.51607.47824.93875.7231,1.33379.98789,1.59409,1.95768,3.20094,2.99924,4.75958a1.82678,1.82678,0,0,1,.00217,2.29758c-1.13315,1.68977-2.2033,3.42214-3.28067,5.14864-.23994.38445-.40306.81681-.69632,1.42294,1.05082,0,1.88279.00937,2.71447-.00284a1.76267,1.76267,0,0,0,1.50838-1.02828c.30521-.51438.57439-1.05022.8809-1.56379.45627-.76473.9314-1.51826,1.46654-2.38689.7851,1.38181,1.46865,2.59587,2.16381,3.80326.30281.52615.6491,1.07974,1.30968,1.12224C678.68561,36.76483,679.66934,36.71823,680.8677,36.71823ZM692.872,33.80591h-7.1823V21.8276h-3.042a140.91459,140.91459,0,0,0,.09833,14.8578c3.33773-.00383,6.70933.02374,10.126-.01577Z" transform="translate(-0.24 -0.23999)"/><path class="cls-1" d="M601.22719,57.68771H754.459v53.2491c-.87873.25923-151.31666.36177-153.17115.11016C601.005,110.21668,600.93293,59.08245,601.22719,57.68771ZM688.05773,94.925c.14051-1.28772.23092-2.518.41514-3.73407a23.22228,23.22228,0,0,1,5.586-11.87677c.7831-.90666,1.65211-1.73863,2.45683-2.62732a2.58117,2.58117,0,0,0,.61471-3.01963H680.60918v2.58652h12.48223c-.38414.57465-.61489.93435-.86,1.284-1.10168,1.57129-2.21766,3.13264-3.30938,4.71079a21.28893,21.28893,0,0,0-3.63762,7.75815,20.75633,20.75633,0,0,0-.43453,4.91835Zm-8.15912-21.2186h-16.535v2.47287h6.44c1.03975,0,2.08043-.02632,3.11907.00736a14.2456,14.2456,0,0,1,3.29836.14649c-4.95364,5.2913-8.6911,11.01081-8.668,18.5666h3.17039a2.55921,2.55921,0,0,0,.1033-.33588c.06516-.55563.14391-1.11057.1834-1.6682a22.84084,22.84084,0,0,1,5.43685-13.18148c.864-1.04552,1.83457-2.00355,2.76622-2.99235A2.69778,2.69778,0,0,0,679.89861,73.70642Z" transform="translate(-0.24 -0.23999)"/><path class="cls-1" d="M754.31965,168.45054H601.15371V112.63006H754.319C754.62937,113.57849,754.63547,167.44384,754.31965,168.45054Zm-69.52418-27.551c-.61125.27195-1.01449.44332-1.411.62911a5.133,5.133,0,0,0-3.185,5.04753,4.8806,4.8806,0,0,0,3.28588,4.83146,19.18946,19.18946,0,0,0,4.3776,1.159,11.67073,11.67073,0,0,0,7.776-1.284,5.53686,5.53686,0,0,0-.368-10.04693c-.37658-.18461-.74526-.38565-1.13713-.58927.10881-.11779.1306-.15693.16389-.17508.27984-.15264.55816-.30856.84363-.45015a4.79713,4.79713,0,0,0-.16061-8.66212,13.76389,13.76389,0,0,0-6.77033-1.22134,10.09613,10.09613,0,0,0-4.66523,1.38577,4.86947,4.86947,0,0,0-.04811,8.6251C683.86541,140.372,684.24275,140.58053,684.79547,140.89957Zm-6.89678-5.051a5.726,5.726,0,0,0-2.419-4.08816,9.49028,9.49028,0,0,0-14.35336,4.40468,16.78581,16.78581,0,0,0-.48522,9.08545,9.22717,9.22717,0,0,0,10.72741,7.42443c4.83017-.89735,7.133-4.30209,6.89267-8.23267a6.62936,6.62936,0,0,0-5.59851-6.53246,16.50634,16.50634,0,0,0-3.21364-.23471,7.39592,7.39592,0,0,0-5.28984,2.1756c-.207.19925-.4452.36614-.79705.65212a8.41538,8.41538,0,0,1,1.54559-5.59468,5.78572,5.78572,0,0,1,9.4105.19673c.2925.4218.56485.85761.8966,1.36324Z" transform="translate(-0.24 -0.23999)"/><path class="cls-1" d="M601.14563,224.04028V170.029H754.34338c.25723.88046.38168,51.03163.13084,53.91534-.0269.02959-.0525.06052-.08109.08841-.02772.02715-.0562.0692-.0886.07358a5.37091,5.37091,0,0,1-.71133.07931q-76.01387-.00581-152.02769-.02276A1.86627,1.86627,0,0,1,601.14563,224.04028Zm77.63876-21.74874a5.48493,5.48493,0,0,0,1.76239,3.80115,8.77272,8.77272,0,0,0,6.69134,2.4068,9.20764,9.20764,0,0,0,8.5711-7.15452,21.10359,21.10359,0,0,0,.46775-6.42354,9.4575,9.4575,0,0,0-14.40228-7.92821c-3.82928,2.16038-4.11686,6.253-2.86588,9.23748a4.93229,4.93229,0,0,0,2.85187,2.76356,15.83277,15.83277,0,0,0,2.98354.84709,8.60994,8.60994,0,0,0,7.96359-2.26425,7.11378,7.11378,0,0,1,.57217-.46251,24.92078,24.92078,0,0,1-.72463,4.40956c-.82359,3.19963-3.249,4.56872-6.53836,4.28564a4.62142,4.62142,0,0,1-3.99873-2.82683c-.20045-.42243-.42562-.8331-.67336-1.31515Zm-16.68158-7.74163c-.05519-.55512-.10693-.94359-.13031-1.33378a4.12616,4.12616,0,0,1,3.05924-4.45453,7.95092,7.95092,0,0,1,3.9099-.15652,4.0733,4.0733,0,0,1,3.54293,4.6236,7.46019,7.46019,0,0,1-2.86418,5.20809,41.31964,41.31964,0,0,1-9.63838,6.214c-1.58719.772-1.80187,1.40767-1.06828,3.06452h17.04639v-2.52706H664.21277a2.48082,2.48082,0,0,1,.82711-.74661c1.92762-1.21056,3.8966-2.36039,5.77424-3.644a11.20083,11.20083,0,0,0,4.44586-5.651c1.23053-3.57817-.22025-7.1549-3.51234-8.51309a10.90493,10.90493,0,0,0-9.1759.23932,6.04637,6.04637,0,0,0-3.55072,6.24105c.08988,1.13859.195,1.23974,1.37654,1.32065C660.908,194.46949,661.4185,194.50364,662.10281,194.54991Z" transform="translate(-0.24 -0.23999)"/><path class="cls-1" d="M184.23062,225.68878v48.33058H1.74469c-.27074-.94764-.29521-47.212-.02311-48.33058Zm-56.47377,15.7561v14.73426h3.1056V250.604c1.32922,0,2.55731-.03475,3.78247.01,1.15761.04231,1.56917.44435,1.69111,1.5893.10136.9518.12741,1.91139.21483,2.86494.048.524.14372,1.14141.76377,1.21263a24.10263,24.10263,0,0,0,2.66373.02426c-.1588-1.7756-.29218-3.3622-.44569-4.94684a2.93527,2.93527,0,0,0-1.39789-2.15672c.22647-.24419.41347-.44607.60078-.64769a4.14513,4.14513,0,0,0,.79612-4.66714,3.687,3.687,0,0,0-3.71083-2.49431q-3.65526-.027-7.31058-.04457A6.00773,6.00773,0,0,0,127.75685,241.44488ZM99.89439,256.14114c.17618.08751.2454.15176.315.15214,2.23515.012,4.47537.11417,6.7041-.00243a5.22344,5.22344,0,0,0,4.74155-3.31617,10.4976,10.4976,0,0,0,.33789-8.04175,4.96677,4.96677,0,0,0-4.64907-3.54761c-2.2292-.12992-4.46735-.10929-6.70175-.14225a4.18456,4.18456,0,0,0-.7477.134Zm-28.70473-7.3984a19.29405,19.29405,0,0,0-.23874-2.44974,6.75381,6.75381,0,0,0-8.43933-5.04229,6.50591,6.50591,0,0,0-5.33045,5.464,12.8365,12.8365,0,0,0-.08443,3.43837,6.54247,6.54247,0,0,0,5.91912,6.34424c3.81293.57679,7.29116-1.56217,7.97062-5.32073C71.12747,250.39646,71.12293,249.59,71.18966,248.74274Zm70.13866,2.82065a4.3388,4.3388,0,0,0,1.68906,3.74238,6.52031,6.52031,0,0,0,3.34242,1.20082,7.90039,7.90039,0,0,0,5.71143-1.27427c1.51919-1.10056,1.753-2.70319,1.52754-4.4008a3.29386,3.29386,0,0,0-2.57958-2.70316c-.94709-.30434-1.93041-.49468-2.89431-.74833a20.30542,20.30542,0,0,1-2.646-.74728,1.29018,1.29018,0,0,1-.25172-2.37045,2.29048,2.29048,0,0,1,.85537-.40043,3.61982,3.61982,0,0,1,3.76079,1.23992,2.37421,2.37421,0,0,0,1.11191.79632,9.56726,9.56726,0,0,0,1.956.03524,3.62747,3.62747,0,0,0-1.89633-3.92725,7.47358,7.47358,0,0,0-7.55575-.01462c-1.76735.9546-2.12784,2.58982-1.93164,4.41771a3.35174,3.35174,0,0,0,2.701,2.99569c1.18947.33824,2.39506.61946,3.58985.93952a11.09159,11.09159,0,0,1,1.71318.52492,1.31353,1.31353,0,0,1,.36108,2.32043,2.70416,2.70416,0,0,1-.81861.4771,3.90187,3.90187,0,0,1-4.493-1.33653c-.26427-.34013-.42888-.78055-.97723-.77021C142.89315,251.57353,142.18206,251.56339,141.32832,251.56339Zm-16.321-7.47911v-2.60115H114.35969a132.1494,132.1494,0,0,0,.09069,14.78044h10.94134v-2.80546h-7.85528v-3.66373H124.439v-2.786c-2.37112-.01178-4.66108-.02317-6.95907-.03463v-2.88943ZM51.99505,249.7691v6.39618a8.53035,8.53035,0,0,0,3.078-.00662v-14.738h-3.1546l-.10063,5.29366c-1.92712.04532-3.66125.06618-5.53416-.00314v-5.30467H43.233V256.202H46.3675V249.7691Zm-11.03763-3.96946a3.91147,3.91147,0,0,0-1.68305-3.58524,7.757,7.757,0,0,0-8.05884-.11964,4.16216,4.16216,0,0,0-1.85774,3.916,3.56924,3.56924,0,0,0,2.74983,3.37966c.56888.18217,1.15032.32578,1.72792.47988,1.1554.30823,2.314.60469,3.4675.91975a1.39765,1.39765,0,0,1,1.15686,1.21878,1.5616,1.5616,0,0,1-.98048,1.508,4.46849,4.46849,0,0,1-4.95384-.99062c-.94458-1.11038-1.74685-1.30831-3.30429-.778a4.28517,4.28517,0,0,0,2.59563,4.07142,8.63545,8.63545,0,0,0,7.30958-.04111c1.82724-.8366,2.61415-2.36627,2.427-4.63224-.147-1.7797-1.3198-2.62969-2.887-3.09976-.19064-.05718-.38006-.1197-.57314-.16722-1.43219-.35224-2.87022-.68233-4.29538-1.06087-.56635-.15044-1.26731-.289-1.32367-1.02082a1.87772,1.87772,0,0,1,1.00091-1.6618,2.19915,2.19915,0,0,1,.54155-.24846,3.17166,3.17166,0,0,1,3.63107,1.12276c.258.31255.60682.702.95864.75407A16.13928,16.13928,0,0,0,40.95742,245.79964Zm40.98352-4.38412c-.02554.49711-.06559.92574-.0666,1.35444-.00606,2.59765-.00029,5.1953-.00622,7.79294a9.395,9.395,0,0,1-.06826,1.3147,1.98247,1.98247,0,0,1-1.364,1.672c-2.28059.83481-4.04809-.36413-4.06674-2.78695-.02062-2.67715-.00477-5.35458-.0048-8.03187,0-.42468,0-.84935,0-1.24681a6.908,6.908,0,0,0-3.27849.09027c-.02917.31788-.08826.669-.08933,1.02034-.00793,2.5976-.018,5.19537.005,7.7928a12.00473,12.00473,0,0,0,.20248,2.02368,4.6676,4.6676,0,0,0,3.95274,3.96085,9.52669,9.52669,0,0,0,3.688.03267,4.85644,4.85644,0,0,0,4.38-4.89524c.01764-.27891.01855-.55919.01869-.83883q.002-4.01591-.0018-8.03181c-.00072-.38817-.03666-.77627-.05927-1.22318Zm9.26111,12.02489V241.43193H88.16016a143.22245,143.22245,0,0,0,.08045,14.73625,69.47663,69.47663,0,0,0,10.10324-.084v-2.64372Z" transform="translate(-0.24 -0.23999)"/><path class="cls-1" d="M463.15078,56.06851H322.18245V1.73243c.93624-.25836,139.835-.27937,140.96833-.00753ZM402.83912,36.60443V21.83133h-4.50677c-.84149,3.66623-1.66664,7.26111-2.49178,10.856l-.23775-.00228q-1.27023-5.42334-2.539-10.8407h-4.47735V36.5877h2.85843V25.79284a7.78882,7.78882,0,0,1,.68186,2.05244c.55389,2.45122,1.08445,4.908,1.66506,7.3528.33729,1.42033.60794,1.58772,2.08473,1.56528.07993-.00122.15991-.00133.23977-.00451,1.07393-.04269,1.1059-.06111,1.34476-1.11425.653-2.87922,1.2965-5.76062,1.95008-8.63971.12033-.53007.27038-1.05338.40676-1.57981l.21237.0278V36.60443Z" transform="translate(-0.24 -0.23999)"/><path class="cls-1" d="M463.1465,168.45691H322.30664c-.25919-.93574-.37169-53.16833-.11669-55.8525H463.1465Zm-68.18973-32.6188a5.89236,5.89236,0,0,0-2.39892-4.05538,9.50724,9.50724,0,0,0-14.38649,4.35542,17.46133,17.46133,0,0,0-.65517,8.28121,9.24073,9.24073,0,0,0,10.8767,8.25689c4.85109-.92767,7.18723-4.31931,6.91014-8.23114-.22752-3.2123-1.97871-5.89017-5.58449-6.5642a17.16144,17.16144,0,0,0-2.02-.24375,8.07521,8.07521,0,0,0-6.48263,2.19672c-.21226.20619-.45463.38146-.80845.67515a8.06083,8.06083,0,0,1,1.83595-5.9539,5.65077,5.65077,0,0,1,8.6315.06255c.49.57354.93144,1.18853,1.44425,1.84738Zm2.047,1.30261a22.71587,22.71587,0,0,0,2.84892-.26218,21.55365,21.55365,0,0,0,2.6351-.93714V152.026h2.80588V130.83513c-1.52815-.42862-2.43726-.20709-2.93153.92141-.75806,1.7308-2.18373,2.32008-3.86707,2.60221-.49679.08326-.98965.18986-1.4913.28711Z" transform="translate(-0.24 -0.23999)"/><path class="cls-1" d="M464.73064,55.99133V1.62486H599.32588c.2717.89883.38291,52.306.12855,54.31281C598.60166,56.1911,466.22476,56.25634,464.73064,55.99133ZM537.06709,36.61v-2.657c-2.41717-.21853-4.76578.07112-7.21313-.19176V21.88349h-3.06263V36.61Z" transform="translate(-0.24 -0.23999)"/><path class="cls-1" d="M320.59274,112.69329v55.7302H185.887v-55.7302Zm-85.87526,33.918a7.02555,7.02555,0,0,0,4.15494,5.14572,11.14674,11.14674,0,0,0,8.63382.1851c3.39393-1.25254,5.183-4.41995,4.74-8.38046a6.74321,6.74321,0,0,0-6.254-6.22787,8.48028,8.48028,0,0,0-7.43164,2.1601,2.98627,2.98627,0,0,1-.43458.27727c.22958-1.82057.44492-3.52024.65795-5.22022.15986-1.2756.18093-1.30295,1.48725-1.30491,3.11884-.00468,6.2377.00089,9.35652-.00459.42191-.00073.84375-.0411,1.28666-.06423v-2.40656H236.59384c-.45529,4.15171-.90452,8.24816-1.366,12.45607.74061.0418,1.29065.06248,1.83885.10634a1.54975,1.54975,0,0,0,1.54208-.875,5.88328,5.88328,0,0,1,1.71821-1.78172,6.41734,6.41734,0,0,1,6.09277-.40471,4.22,4.22,0,0,1,2.69918,3.79074,10.06729,10.06729,0,0,1-.01169,1.67575,4.35863,4.35863,0,0,1-2.9795,3.97264,6.18194,6.18194,0,0,1-7.50161-2.05249c-.39334-.4938-.75728-1.011-1.1348-1.51749Zm31.62961-13.2952.09788.24626c-4.87427,5.19482-8.59365,10.91727-8.57309,18.44875h3.23989c.13681-1.30311.21422-2.50018.39483-3.68146a24.29382,24.29382,0,0,1,7.1069-13.56889,15.43444,15.43444,0,0,0,1.16871-1.20435,2.47762,2.47762,0,0,0,.4212-2.723H253.69125v2.4827Z" transform="translate(-0.24 -0.23999)"/><path class="cls-1" d="M185.85073,55.99149V1.62492h134.595c.27164.898.38318,52.30207.12885,54.31261C319.72236,56.191,187.34682,56.25654,185.85073,55.99149Zm78.44256-29.49978a4.3863,4.3863,0,0,0-2.49214-4.03015,7.54264,7.54264,0,0,0-7.13414.11321c-1.57271.8149-2.24569,2.31955-2.03982,4.36351a3.4021,3.4021,0,0,0,2.72575,3.10739c1.18825.3392,2.39326.61913,3.58717.939a11.069,11.069,0,0,1,1.71214.52486,1.31344,1.31344,0,0,1,.361,2.31956,2.7016,2.7016,0,0,1-.81794.47718,3.92876,3.92876,0,0,1-4.5-1.32389c-.23528-.294-.53651-.6918-.85008-.73556a16.84956,16.84956,0,0,0-2.32379-.03493,3.94163,3.94163,0,0,0,2.29054,4.1349,8.5003,8.5003,0,0,0,7.52042.0693c1.82631-.83584,2.61366-2.36666,2.42-4.63585-.15146-1.77495-1.31428-2.637-2.89157-3.094-.49746-.14413-.99524-.28882-1.49771-.41368-1.16063-.28842-2.33119-.53938-3.48443-.85422-.924-.25228-1.25968-.66411-1.24986-1.369.00949-.68116.41382-1.15433,1.22883-1.438a3.38813,3.38813,0,0,1,4.14219,1.216,1.66983,1.66983,0,0,0,.90642.63455A19.59315,19.59315,0,0,0,264.29329,26.49171Z" transform="translate(-0.24 -0.23999)"/><path class="cls-1" d="M754.481,225.68675V274.017H601.269c-.2724-.92276-.3055-47.16726-.02953-48.33029ZM683.659,257.978l-.01043-.19972c1.89762-1.17624,3.84375-2.28255,5.676-3.5531a20.14257,20.14257,0,0,0,3.43576-2.95625A8.34049,8.34049,0,0,0,695.08,244.8007a5.84829,5.84829,0,0,0-2.47887-4.57826,10.67358,10.67358,0,0,0-11.84847.241,5.73838,5.73838,0,0,0-2.26858,5.602c.05807.49.1094,1.08583.82553,1.13639.703.04969,1.40683.0876,2.19164.13568-.0365-.62367-.08941-1.13063-.09188-1.63781a4.0229,4.0229,0,0,1,3.01993-4.114,8.03115,8.03115,0,0,1,3.90978-.1891,4.07735,4.07735,0,0,1,3.57774,4.70727,7.53271,7.53271,0,0,1-2.91358,5.18174,41.1802,41.1802,0,0,1-9.54281,6.141c-1.61432.78346-1.8099,1.34109-1.15471,3.04772,1.52672.27572,16.23756.184,17.07668-.11212V257.978Zm-10.63054-16.09521.10963.24891a36.86749,36.86749,0,0,0-6.09334,8.37958,21.15222,21.15222,0,0,0-2.3502,10.07156h3.06182c.087-.10591.12838-.13309.13318-.16564.04617-.31524.10582-.63021.12516-.94746a23.69743,23.69743,0,0,1,3.56179-11.42189,30.77284,30.77284,0,0,1,4.73444-5.70633,2.57145,2.57145,0,0,0,.69638-3.01923c-1.37238-.2424-15.63281-.18888-16.62515.08437,0,.47791-.01061.99081.00439,1.503.00791.271.06047.5406.11244.97317Z" transform="translate(-0.24 -0.23999)"/><path class="cls-1" d="M463.1499,224.13407H322.21031V170.13741c.83356-.25049,139.48966-.31107,140.93959-.0398ZM410.33121,196.294c.63375-.33567,1.08706-.582,1.54579-.81779,3.03706-1.561,3.02763-6.6732-.1185-8.22449a12.363,12.363,0,0,0-11.7264-.10878,4.70743,4.70743,0,0,0-2.81924,4.27168,4.97323,4.97323,0,0,0,2.63446,4.42123c.36211.22467.73161.43744,1.22716.73285-.55652.258-.97919.44786-1.3967.6484a5.416,5.416,0,0,0,.24768,9.952,16.18179,16.18179,0,0,0,7.98114,1.12525,9.47239,9.47239,0,0,0,4.26958-1.46,5.52053,5.52053,0,0,0-.36808-9.81474C411.38789,196.80161,410.95846,196.60143,410.33121,196.294Zm-30.01608-1.73285c-.02912-.42251-.04213-.72759-.07237-1.031a4.14824,4.14824,0,0,1,3.54411-4.867,9.58346,9.58346,0,0,1,2.61342-.18422c1.85338.15791,3.41165.86172,4.09433,2.78733a5.4108,5.4108,0,0,1,.06683,3.06983,7.20412,7.20412,0,0,1-3.30249,4.532q-4.57907,2.96051-9.20107,5.85441c-1.418.89193-1.57778,1.32532-.93633,2.95664,1.64754.28614,16.24966.1801,17.06534-.12708v-2.46919H382.42157a2.19646,2.19646,0,0,1,.87446-.69728,33.93753,33.93753,0,0,0,6.63064-4.28018,11.31968,11.31968,0,0,0,3.5908-4.99983c1.14861-3.41065-.07078-6.8148-3.15393-8.26679a10.52349,10.52349,0,0,0-10.12151.36526,5.83262,5.83262,0,0,0-2.96194,6.08906c.04652.45934.0597,1.01879.70869,1.08922C378.728,194.46258,379.472,194.49847,380.31513,194.56115Z" transform="translate(-0.24 -0.23999)"/><path class="cls-1" d="M599.4934,112.6715v55.60514c-.95537.29586-133.44486.3433-134.7467.05216V112.6715Zm-68.22861,23.171a6.00259,6.00259,0,0,0-2.69157-4.28078,9.55347,9.55347,0,0,0-14.22586,4.93083,16.81667,16.81667,0,0,0-.007,10.0392,7.83049,7.83049,0,0,0,5.95735,5.81536,13.914,13.914,0,0,0,3.80578.27845,7.49088,7.49088,0,0,0,7.42283-6.14122,6.88087,6.88087,0,0,0-4.57969-8.29355,11.54322,11.54322,0,0,0-2.92441-.55628,8.25726,8.25726,0,0,0-6.41983,2.07475c-.249.22815-.50841.44489-.88365.77213a8.04547,8.04547,0,0,1,1.78664-5.85206,5.69461,5.69461,0,0,1,8.725-.01861,15.28878,15.28878,0,0,1,.99229,1.35264.78288.78288,0,0,0,.90861.39337C529.82068,136.18746,530.51145,136.02372,531.26479,135.84248Zm2.49468,10.75169a6.87412,6.87412,0,0,0,3.8352,5.02227,11.14835,11.14835,0,0,0,9.62174.04922,6.23027,6.23027,0,0,0,3.72627-4.41845,11.326,11.326,0,0,0,.30556-3.43475,6.52361,6.52361,0,0,0-3.68742-5.76285c-2.54988-1.24639-7.3783-1.2313-9.87258,1.36527a4.39049,4.39049,0,0,1-.54756.39142c.24012-1.819.44514-3.47883.68233-5.1341.19084-1.33231.306-1.42275,1.67924-1.42565,3.07752-.00649,6.15509.00028,9.23261-.005.42235-.00072.84463-.03932,1.27647-.06087v-2.39354H535.6285c-.37184,4.14911-1.08106,8.18877-1.25766,12.246,1.94074.6358,2.469.50714,3.526-.88317,2.05641-2.70464,5.04516-2.94558,7.73133-1.79464a3.98936,3.98936,0,0,1,2.38412,2.829,6.83813,6.83813,0,0,1-.11513,3.78352,4.022,4.022,0,0,1-2.23905,2.52141c-3.182,1.43866-6.15175.70621-8.10861-1.9387-.32906-.44469-.6385-.9038-.988-1.40036Z" transform="translate(-0.24 -0.23999)"/><path class="cls-1" d="M185.93383,170.0081H320.57936v53.96669c-.89845.26147-132.61366.36968-134.59637.12041C185.72713,223.23782,185.6678,171.45167,185.93383,170.0081Zm48.6132,37.6884c1.912.25219,16.17785.15844,17.09707-.12167V205.1007h-3.88189c-1.31948,0-2.63926.01824-3.9583-.0053a25.68375,25.68375,0,0,1-3.97-.12588c.92482-.5512,1.66094-.94816,2.35332-1.41061,1.89077-1.26285,3.82719-2.47035,5.62292-3.85846a9.54008,9.54008,0,0,0,3.14437-4.58918c1.15324-3.4079-.06469-6.8181-3.14639-8.26913a10.49814,10.49814,0,0,0-10.22392.42161,5.84989,5.84989,0,0,0-2.8555,6.14432c.04861.43394.11256.91667.69235.97476.74083.07424,1.48488.11633,2.15521.16683.10125-.12621.14827-.15791.14677-.1871q-.02723-.53195-.06726-1.06321a4.11374,4.11374,0,0,1,2.97794-4.50756,7.733,7.733,0,0,1,4.1406-.166,4.065,4.065,0,0,1,3.39533,4.51736,7.48348,7.48348,0,0,1-2.89588,5.31622,40.82333,40.82333,0,0,1-9.5387,6.14906C234.08471,205.40621,233.90118,205.89186,234.547,207.6965Zm18.86789-18.62543h12.57487l.162.23448c-4.88681,5.18351-8.531,10.92236-8.52944,18.41621H260.845c.0958-.78719.21082-1.49322.26341-2.20387a21.12886,21.12886,0,0,1,3.75536-10.713,55.53156,55.53156,0,0,1,4.29923-5.12646,2.934,2.934,0,0,0,.824-3.16889h-16.5721Z" transform="translate(-0.24 -0.23999)"/><path class="cls-1" d="M464.74635,110.968V57.711H599.34568c.24762.91272.32373,51.68075.08889,53.22457C598.53328,111.213,466.039,111.25857,464.74635,110.968Zm79.38316-27.33524c.50063-.26027.89432-.44855,1.27231-.66421a4.57118,4.57118,0,0,0,2.35558-4.51,4.39855,4.39855,0,0,0-2.65711-4.19723,17.06126,17.06126,0,0,0-2.576-.952,10.89327,10.89327,0,0,0-8.85264,1.35225,5.50388,5.50388,0,0,0-2.59951,5.22321c.88676.1816,1.68709.3455,2.51807.5157.28757-.788.50894-1.46673.78117-2.12436a3.72417,3.72417,0,0,1,2.34539-2.247,8.789,8.789,0,0,1,5.7583-.02162,3.01661,3.01661,0,0,1,2.30379,2.99621,3.19212,3.19212,0,0,1-2.348,3.24292,13.30584,13.30584,0,0,1-2.59225.33887c-.58019.05639-1.16566.05873-1.77052.08625v2.2296c1.78886.27827,3.482.503,5.15871.816a2.62274,2.62274,0,0,1,2.11922,2.05613,3.6177,3.6177,0,0,1-1.99758,4.59505,8.705,8.705,0,0,1-4.91977.5777,5.29925,5.29925,0,0,1-4.43607-3.2c-.20766-.462-.44854-.909-.69733-1.40952l-2.60976.40835a4.8631,4.8631,0,0,0,.003.5992,6.73191,6.73191,0,0,0,5.06578,5.63633,13.01375,13.01375,0,0,0,7.22127.26345c3.26519-.83551,5.904-2.58854,5.5122-7.0514a4.26964,4.26964,0,0,0-2.25832-3.58688C545.60631,84.26109,544.93564,84.0024,544.12951,83.63273ZM512.8551,76.27452h12.57217l.13857.23259c-4.852,5.21683-8.545,10.95117-8.49645,18.47056h3.22618c.13793-1.29466.22289-2.52515.40681-3.74066a23.2384,23.2384,0,0,1,5.56547-11.88716c.80871-.93714,1.70842-1.79507,2.53928-2.71385a2.60819,2.60819,0,0,0,.60058-2.93053H512.8551Z" transform="translate(-0.24 -0.23999)"/><path class="cls-1" d="M463.16938,57.70753v53.21676c-.93149.2748-138.67541.39152-140.8463.13753-.24706-.83584-.3165-51.77557-.06249-53.35429ZM411.04251,83.48542c.61649-.31322,1.01382-.49854,1.39553-.71187a4.483,4.483,0,0,0,2.39086-4.48076,4.33717,4.33717,0,0,0-2.639-3.95764,13.86262,13.86262,0,0,0-6.98827-1.31834,10.0939,10.0939,0,0,0-4.55563,1.34507,4.87873,4.87873,0,0,0-.07084,8.68539c.36471.21738.73078.43245,1.22165.72279-.56772.261-.99454.448-1.41346.65128a5.14243,5.14243,0,0,0-3.14136,5.07766,4.94206,4.94206,0,0,0,3.434,4.85506,19.50424,19.50424,0,0,0,4.1504,1.08983,11.79832,11.79832,0,0,0,7.99459-1.36423,5.52279,5.52279,0,0,0-.33639-9.87868C412.07142,83.98231,411.64717,83.78458,411.04251,83.48542Zm-16.11712-4.7483a5.83737,5.83737,0,0,0-2.59515-4.23739,9.53812,9.53812,0,0,0-14.30663,4.88318,16.37731,16.37731,0,0,0-.01013,9.91309,8.14729,8.14729,0,0,0,6.676,6.13158,12.7767,12.7767,0,0,0,2.98442.10253c4.846-.30911,7.83275-3.60364,7.6219-8.34736a6.41277,6.41277,0,0,0-4.57638-6.09688,14.10242,14.10242,0,0,0-2.92951-.53886,8.09558,8.09558,0,0,0-6.70066,2.22736c-.17877.17116-.39088.30747-.6975.54526a7.57118,7.57118,0,0,1,2.4213-6.40011,5.61552,5.61552,0,0,1,8.20095.65086c.32743.40069.56479.87785.90947,1.26049a1.09,1.09,0,0,0,.76541.38946C393.42612,79.12551,394.14841,78.91427,394.92539,78.73712Z" transform="translate(-0.24 -0.23999)"/><path class="cls-1" d="M320.61311,57.69192v53.22527c-.92192.2845-132.353.40838-134.60962.14474-.247-.83349-.32168-51.714-.067-53.37Zm-82.727,25.543a7.76739,7.76739,0,0,1,1.32375-5.18216c1.89588-2.8127,6.93355-3.99816,9.55178-.09011a5.26537,5.26537,0,0,0,.60809.88593,1.14494,1.14494,0,0,0,.77484.3709c.738-.09821,1.46092-.31007,2.23286-.48763a5.75353,5.75353,0,0,0-2.602-4.2246,9.53894,9.53894,0,0,0-14.34737,4.9873,18.1049,18.1049,0,0,0-.4535,7.95143,9.22994,9.22994,0,0,0,10.88077,8.1091c3.457-.66962,6.07146-2.65989,6.786-6.21883a7.04931,7.04931,0,0,0-4.81527-8.40094c-3.54161-.90563-6.91453-.66763-9.65146,2.183C238.12664,83.16829,238.03535,83.17666,237.88608,83.235Zm22.06509-4.55975c0,1.96688,0,3.75249,0,5.53809,0,1.79915-.01359,3.59843.00381,5.3974.01726,1.7824-.07934,3.5705.06533,5.333h2.73894V73.7753c-1.50284-.53718-2.44582-.311-2.99162.88a4.29353,4.29353,0,0,1-2.893,2.3068c-.75636.23684-1.53088.41562-2.33775.63131v2.25571A7.69073,7.69073,0,0,0,259.95117,78.67521Z" transform="translate(-0.24 -0.23999)"/><path class="cls-1" d="M599.4907,170.00953v53.9522c-.9249.27739-132.46813.3949-134.61366.13833-.24015-.846-.30448-52.53478-.056-54.09053Zm-52.84283,26.292c.60006-.315,1.02369-.52606,1.43672-.75632a4.04394,4.04394,0,0,0,2.11793-2.49272c.68391-2.649-.05648-4.7942-2.45514-5.95607a13.81772,13.81772,0,0,0-6.99662-1.27156,10.00728,10.00728,0,0,0-4.54928,1.36427,4.87435,4.87435,0,0,0,.02063,8.68276c.35947.212.7125.43474,1.17363.71681-.59379.26579-1.03353.44642-1.4591.65588a5.14109,5.14109,0,0,0-3.09428,5.10672,4.903,4.903,0,0,0,3.37237,4.7733,19.61808,19.61808,0,0,0,4.26468,1.12513,11.71155,11.71155,0,0,0,7.98739-1.39578,5.52129,5.52129,0,0,0-.32151-9.82482C547.7277,196.80267,547.29047,196.61222,546.64787,196.30156Zm-27.85295,8.88449-.05994-.20812c.26408-.16548.5277-.33177.79236-.49632,1.86545-1.1598,3.76858-2.26378,5.58739-3.49252a11.30392,11.30392,0,0,0,4.92381-6.565,6.45757,6.45757,0,0,0-4.10567-7.92053,13.4485,13.4485,0,0,0-3.74367-.7109,9.8264,9.8264,0,0,0-5.62277,1.37821,6.06071,6.06071,0,0,0-2.94616,6.22093c.05438.34022.30961.86094.55887.918a18.205,18.205,0,0,0,2.4832.25152c-.05578-.60854-.11677-1.042-.13177-1.477a4.03542,4.03542,0,0,1,2.84929-4.24035,7.58615,7.58615,0,0,1,4.82924-.0641,3.6903,3.6903,0,0,1,2.74477,3.03019,7.45111,7.45111,0,0,1-.11069,2.60614,6.55313,6.55313,0,0,1-2.9499,4.21372c-3.14021,2.05727-6.31119,4.06789-9.48428,6.0743-1.39892.88454-1.5822,1.35381-.99181,2.95888,1.3739.27067,16.2116.19767,17.09144-.09511v-2.38193Z" transform="translate(-0.24 -0.23999)"/><path class="cls-1" d="M322.17141,273.93469v-48.2354H463.0173c.25788.88145.35608,46.362.11057,48.183C462.26546,274.169,323.58686,274.23574,322.17141,273.93469Zm57.25283-24.83048a10.21967,10.21967,0,0,1,.909-4.70243c1.54817-3.47141,7.42477-4.966,10.05486-.82292.2756.43414.57012.85626.9131,1.36966l2.662-.61485a6.11755,6.11755,0,0,0-3.53534-4.81322c-4.92612-2.56413-11.8444-.099-13.44281,5.71052a18.943,18.943,0,0,0-.42686,7.712,9.23241,9.23241,0,0,0,10.8973,8.21153c3.90627-.79078,7.12046-3.27732,6.88714-8.23031a6.63993,6.63993,0,0,0-5.11562-6.44807,11.0244,11.0244,0,0,0-2.23966-.35692A8.56772,8.56772,0,0,0,379.42424,249.10421Zm20.467-.88957c.222-1.76027.43711-3.45819.65-5.15638.1631-1.30133.18319-1.32982,1.46127-1.332,3.15721-.00538,6.31444.00061,9.47165-.00488.42059-.00073.84111-.04147,1.251-.0631v-2.38579H398.3569c-.4611,4.14773-.91309,8.21389-1.36186,12.25059,1.94543.59762,2.58395.41411,3.65273-.95587.12285-.15744.24935-.31269.383-.461,1.82886-2.0291,4.47038-2.41087,7.15688-1.34385,2.06256.81917,2.92292,2.6543,2.68532,5.466-.00671.07963-.0094.15981-.01992.23894a4.1476,4.1476,0,0,1-3.07951,3.72721,9.59038,9.59038,0,0,1-4.50859.12357,4.505,4.505,0,0,1-3.3496-2.63628c-.17039-.34538-.32871-.69667-.51471-1.09239l-2.84482.49764a6.31937,6.31937,0,0,0,3.10893,4.63679,11.12456,11.12456,0,0,0,5.48335,1.49774,10.66,10.66,0,0,0,5.58717-1.54356,7.55525,7.55525,0,0,0,3.18736-7.94848c-.515-2.85053-1.98829-4.90052-4.85822-5.62081-3.21533-.807-6.27354-.53917-8.80957,1.93271A1.50312,1.50312,0,0,1,399.89127,248.21464Z" transform="translate(-0.24 -0.23999)"/><path class="cls-1" d="M185.86594,273.927V225.69456H320.4646c.24809.91089.32912,46.58392.09554,48.19542C319.66972,274.17319,187.17583,274.22332,185.86594,273.927Zm68.75836-18.83273a6.18494,6.18494,0,0,0,2.52884,4.38263,9.28371,9.28371,0,0,0,14.324-4.47506,19.67677,19.67677,0,0,0,.717-7.34277,9.44065,9.44065,0,0,0-14.23931-7.948c-3.49658,1.91231-4.34446,5.282-3.22394,8.81893a5.27857,5.27857,0,0,0,3.42665,3.44388,14.37827,14.37827,0,0,0,2.65939.68786,8.65878,8.65878,0,0,0,7.94863-2.32234c.15838-.15958.32912-.30688.49412-.4599l.2204.0975c-.2908,1.42884-.53042,2.87042-.88251,4.284-.87311,3.50554-3.71654,4.76786-6.96563,4.28627a4.48588,4.48588,0,0,1-3.44815-2.49123c-.2613-.48627-.50868-.98-.81158-1.56544ZM236.599,239.2865c-.46215,4.18071-.98031,8.23749-1.345,12.41174.67341.04987,1.18536.06712,1.69161.13029a1.39907,1.39907,0,0,0,1.58151-.79858c1.30395-2.58252,4.94819-3.53675,7.8938-2.28223a4.22921,4.22921,0,0,1,2.7005,3.79172c.1534,1.99351-.06683,3.912-1.931,5.09467a6.22888,6.22888,0,0,1-8.01289-.83537c-.46529-.48762-.81241-1.08606-1.25255-1.60046-.18762-.21929-.4872-.51612-.71331-.49787-.81624.06583-1.62287.25066-2.476.398a6.79837,6.79837,0,0,0,3.88614,5.02945,11.15251,11.15251,0,0,0,9.514.03592,6.37669,6.37669,0,0,0,3.83353-4.6183,11.65442,11.65442,0,0,0,.26276-3.08918,6.56078,6.56078,0,0,0-5.84323-6.55107c-2.93-.48436-5.65694-.07272-7.884,2.1261a1.94112,1.94112,0,0,1-.39712.20947c.24758-1.89495.501-3.70859.71271-5.52707a1.04664,1.04664,0,0,1,.93256-.939,4.06562,4.06562,0,0,1,.95388-.04859c2.99812-.0029,5.99626.00078,8.99439-.00463.42184-.00076.84363-.04007,1.25645-.06108V239.2865Z" transform="translate(-0.24 -0.23999)"/><path class="cls-1" d="M599.44582,274.03087H464.76053V225.726H599.32541C599.60684,226.56766,599.73961,271.44164,599.44582,274.03087ZM538.119,249.37151c-.60111.27472-1.06769.4687-1.51711.6966a5.1435,5.1435,0,0,0-3.0416,5.01808,4.90874,4.90874,0,0,0,3.30926,4.81321,19.07438,19.07438,0,0,0,4.25713,1.14,12.42671,12.42671,0,0,0,8.31041-1.518c3.19717-1.91139,3.84662-7.56041-.4493-9.63894-.49189-.238-.97916-.48545-1.60424-.79591.5659-.29314.98614-.49511,1.39125-.72375a4.10223,4.10223,0,0,0,2.13569-2.47617c.71437-2.67328-.06305-4.828-2.40592-5.97066a13.7135,13.7135,0,0,0-7.10572-1.28351,10.00451,10.00451,0,0,0-4.5368,1.39355,4.87026,4.87026,0,0,0,.02783,8.62036C537.25406,248.86479,537.62133,249.07808,538.119,249.37151Zm-6.86121-5.03689a5.89212,5.89212,0,0,0-2.35465-4.05472,9.509,9.509,0,0,0-14.39478,4.29166,16.75124,16.75124,0,0,0-.49852,9.19862,9.1996,9.1996,0,0,0,10.74944,7.37812c5.04175-.95265,7.15254-4.54535,6.86308-8.25475-.2915-3.73494-2.4014-5.91108-5.48584-6.49687-.6259-.11889-1.25906-.212-1.8931-.27275a8.112,8.112,0,0,0-6.79594,2.27463c-.18217.1788-.40125.32-.72656.57566a8.13294,8.13294,0,0,1,1.61308-5.65182,5.68732,5.68732,0,0,1,8.94129-.16934c.45844.54728.86209,1.14044,1.34848,1.78907C529.45939,244.74942,530.30221,244.555,531.25781,244.33462Z" transform="translate(-0.24 -0.23999)"/><path d="M98.60629,145.29072v2.51995a68.44917,68.44917,0,0,1-11.18778.03583V133.31358a76.76455,76.76455,0,0,1,10.74112-.08724v2.54174h-7.5397v2.97319h6.98653v2.86046H90.592V145.187C93.26693,145.31654,95.92535,145.13713,98.60629,145.29072Z" transform="translate(-0.24 -0.23999)"/><path d="M100.12994,143.3353a16.80607,16.80607,0,0,1,2.33174.0354c.312.0438.60754.45008.844.74483a3.90549,3.90549,0,0,0,4.50331,1.30283,2.661,2.661,0,0,0,.89375-.57017,1.26543,1.26543,0,0,0-.35815-2.1699,10.33553,10.33553,0,0,0-1.81933-.57522c-1.19285-.32308-2.39893-.59893-3.58609-.941a3.38752,3.38752,0,0,1-2.71162-3.11754c-.1651-1.79881.251-3.37588,1.94461-4.29445a7.49777,7.49777,0,0,1,7.34427-.10994,3.99512,3.99512,0,0,1,2.25407,3.95153,21.42664,21.42664,0,0,1-2.40761-.02046c-.28256-.03155-.569-.37787-.78031-.63978a3.36433,3.36433,0,0,0-4.14547-1.19053c-.81266.28969-1.208.76467-1.20761,1.4508.00041.70462.325,1.09246,1.27124,1.35076,1.153.31472,2.32345.56506,3.48374.85377.50239.125.99963.27154,1.49677.41662,1.57883.46075,2.7307,1.33211,2.87278,3.10807.17919,2.2397-.56181,3.71988-2.33588,4.5651a8.41978,8.41978,0,0,1-7.72827-.08585A3.87121,3.87121,0,0,1,100.12994,143.3353Z" transform="translate(-0.24 -0.23999)"/><path d="M76.1471,147.963h-3.207V133.23671h3.12715v5.30219h5.47853v-5.19564a12.09631,12.09631,0,0,1,3.123-.18227c.32925.96081.37114,13.53589.0528,14.79784H81.76314V141.464h-5.616Z" transform="translate(-0.24 -0.23999)"/><path d="M71.15172,142.78208a5.83637,5.83637,0,0,1-2.14912,4.13955c-3.41362,2.665-9.99718,1.81833-10.9095-4.34122a13.924,13.924,0,0,1-.00919-4.15994,6.36724,6.36724,0,0,1,4.82934-5.39524,6.5942,6.5942,0,0,1,6.9949,1.96229,3.79382,3.79382,0,0,1,1.169,3.0454,19.57143,19.57143,0,0,1-2.39013-.0311,1.38069,1.38069,0,0,1-.8944-.66223,3.07738,3.07738,0,0,0-3.2987-1.67336,3.20306,3.20306,0,0,0-2.86038,2.3701,7.10186,7.10186,0,0,0,.05907,5.25335,3.334,3.334,0,0,0,2.99085,2.23808,2.898,2.898,0,0,0,2.92809-1.69217,1.84821,1.84821,0,0,1,1.85686-1.05684C69.97643,142.79685,70.48558,142.78208,71.15172,142.78208Z" transform="translate(-0.24 -0.23999)"/><path d="M117.03845,135.83408h-4.39582v-2.59841h11.88828v2.52054h-4.19548c-.09493,1.42879-.039,2.73164-.04875,4.0303-.01018,1.35734-.00229,2.71482-.00229,4.07224v3.9133a5.59142,5.59142,0,0,1-3.246.08857Z" transform="translate(-0.24 -0.23999)"/><path d="M112.02755,24.74482h-7.44538v2.87147h6.8884v2.84526h-6.86269v3.63122h7.653a5.678,5.678,0,0,1,.24351,2.53882c-.93216.37137-9.93388.42528-11.17573.07982v-14.449a69.40078,69.40078,0,0,1,10.69892-.13886Z" transform="translate(-0.24 -0.23999)"/><path d="M81.63473,26.43435a21.15935,21.15935,0,0,1-2.56842-.03464c-.31017-.03906-.61345-.43569-.847-.72764a3.14451,3.14451,0,0,0-3.72818-1.11346,2.48514,2.48514,0,0,0-.80649.49612c-1.075,1.0154-.87487,1.95014.53754,2.35093,1.45611.41319,2.9363.74141,4.40545,1.10885.19295.04825.38309.10791.57419.16347,1.57318.45743,2.74817,1.30653,2.90928,3.081.20537,2.26192-.57687,3.80476-2.40115,4.64617a8.5078,8.5078,0,0,1-7.51934-.04827,3.91945,3.91945,0,0,1-2.29373-4.17438,9.57812,9.57812,0,0,1,1.97306.036,1.85542,1.85542,0,0,1,1.07894.81476A2.40956,2.40956,0,0,0,75.311,34.3499c.55847-.02265,1.11843-.02259,1.67534-.06433a3.46612,3.46612,0,0,0,.81244-.17706A1.50188,1.50188,0,0,0,78.88674,32.803a1.31025,1.31025,0,0,0-1.00669-1.33192c-.78426-.28611-1.60147-.48409-2.40886-.704-.96116-.26183-1.94472-.45392-2.88659-.77118A3.48406,3.48406,0,0,1,69.92433,26.805a4.24307,4.24307,0,0,1,1.83054-4.047,7.76187,7.76187,0,0,1,8.05771.08667A4.3821,4.3821,0,0,1,81.63473,26.43435Z" transform="translate(-0.24 -0.23999)"/><path d="M95.75048,24.68953h-7.164v-2.6303h11.1251A3.93086,3.93086,0,0,1,98.88,25.82737q-2.85861,3.54573-5.69109,7.11249c-.2425.3041-.45694.63058-.83919,1.16188h7.41452V36.7056a81.58514,81.58514,0,0,1-11.44139.09253,3.91557,3.91557,0,0,1,.82608-3.84713q2.78832-3.44853,5.57308-6.89995C95.01716,25.68473,95.29012,25.30056,95.75048,24.68953Z" transform="translate(-0.24 -0.23999)"/><path d="M86.99834,36.84433H83.98211V22.08459h3.01623Z" transform="translate(-0.24 -0.23999)"/><path d="M103.36905,207.41169a79.61559,79.61559,0,0,1-11.15573-.05831V192.709h10.684v2.59342H95.46322v2.91345c2.30929.14754,4.6107-.03618,6.96035.10973v2.72974H95.47534v3.70327h7.89371Z" transform="translate(-0.24 -0.23999)"/><path d="M78.797,192.69861H89.542v2.6324H81.98249v2.85h6.92417v2.95264H81.95707v3.53777h7.89281v2.66562a70.64186,70.64186,0,0,1-11.0529.05895Z" transform="translate(-0.24 -0.23999)"/><path d="M118.83984,207.37967V192.76685h10.75682v2.566h-7.48525v2.94583h6.86583v2.83113h-6.87731v3.62911h7.851v2.601A71.16123,71.16123,0,0,1,118.83984,207.37967Z" transform="translate(-0.24 -0.23999)"/><path d="M52.6317,202.80473a9.89892,9.89892,0,0,1,1.97773.035,2.23905,2.23905,0,0,1,1.10613.78915,4.32784,4.32784,0,0,0,4.65925,1.32151c.87826-.31331,1.32346-.81123,1.34112-1.4999.01845-.72-.33453-1.16-1.33612-1.45087-1.34118-.3895-2.70325-.70687-4.05524-1.05944-.34728-.09058-.696-.181-1.03454-.29876a3.55126,3.55126,0,0,1-2.65217-3.33568,3.9923,3.9923,0,0,1,1.95537-3.97607,7.3588,7.3588,0,0,1,7.75285.04572,4.28921,4.28921,0,0,1,2.02035,3.74393,20.53663,20.53663,0,0,1-2.56494-.03546c-.31117-.04039-.60554-.45153-.84727-.74365a3.10733,3.10733,0,0,0-3.61184-1.17366,2.64527,2.64527,0,0,0-1.00686.608c-1.00077,1.0139-.7843,1.87432.59426,2.26658,1.45751.4147,2.93958.74291,4.4101,1.11214.23178.05821.46.13119.68858.20141a3.41961,3.41961,0,0,1,2.804,3.042c.17567,1.94564-.33414,3.60027-2.196,4.53446a8.39425,8.39425,0,0,1-7.94829-.05109A3.84459,3.84459,0,0,1,52.6317,202.80473Z" transform="translate(-0.24 -0.23999)"/><path d="M104.3047,192.73875c.35062-.08354.53851-.1441.73113-.17178,2.00213-.28777,2.588.06646,3.17263,1.97666.74761,2.44271,1.46865,4.89356,2.20984,7.33828.10016.33037.25088.64538.46738,1.19319.20358-.56918.35015-.91776.45385-1.27864q1.09143-3.79821,2.16524-7.60145c.438-1.56176.61165-1.69187,2.25393-1.60072.432.024.86637.00362,1.42708.00362a5.08956,5.08956,0,0,1-.132.89661q-2.19772,6.52667-4.42027,13.045c-.331.97094-.51838,1.08432-1.57664,1.10348-1.58063.02864-1.87047-.14843-2.36834-1.61987q-2.05342-6.06879-4.07433-12.14856C104.5028,193.54121,104.428,193.19562,104.3047,192.73875Z" transform="translate(-0.24 -0.23999)"/><path d="M66.93379,207.46975V192.754H70.099v11.9322h7.12909v2.78357Z" transform="translate(-0.24 -0.23999)"/><path d="M76.83775,73.27506c.832,0,1.582-.02669,2.32916.00734.78118.03558,1.15756.61245,1.50127,1.22108q2.03083,3.5961,4.07515,7.18459a3.56423,3.56423,0,0,0,.88221,1.10663c.01181-.99377.02861-1.98751.03408-2.98131.00593-1.07843.00133-2.1569.00133-3.23535v-3.1566h2.84886c.32338.86393.38734,13.49282.048,14.89618-.74647,0-1.53566.04854-2.31577-.01479-.6696-.05434-.985-.61885-1.285-1.14548q-2.222-3.90072-4.44246-7.80233a3.16332,3.16332,0,0,0-.79245-.98074v9.80517H76.83775Z" transform="translate(-0.24 -0.23999)"/><path d="M104.40989,78.03228a24.23281,24.23281,0,0,1-2.56812-.02926,1.51807,1.51807,0,0,1-.93843-.62321,3.47386,3.47386,0,0,0-3.88-1.47468,3.7311,3.7311,0,0,0-2.89864,2.87673,7.386,7.386,0,0,0,.0423,4.3653c.54711,1.76826,1.8665,2.60472,3.97837,2.56173,1.79463-.03653,2.72978-.80948,3.31421-2.85007H98.41315V80.51374a22.69969,22.69969,0,0,1,5.95077-.07557V88.196l-1.84374.09383-.51354-1.45277a10.85731,10.85731,0,0,0-1.02317.55106c-3.59188,2.45715-8.842,1.12158-10.18358-4.19187A8.10778,8.10778,0,0,1,92.96635,74.823a7.554,7.554,0,0,1,9.58994-.17975A6.01172,6.01172,0,0,1,104.40989,78.03228Z" transform="translate(-0.24 -0.23999)"/><path d="M63.63333,88.10928V73.607a77.56515,77.56515,0,0,1,10.756-.12027v2.58139c-1.21665.01027-2.44011.02467-3.66359.02978-1.23575.00516-2.47154.00113-3.80625.00113v2.88479h6.73836a5.5445,5.5445,0,0,1,.117,2.83042H66.90547V85.444H74.744v2.60751A69.57621,69.57621,0,0,1,63.63333,88.10928Z" transform="translate(-0.24 -0.23999)"/><path d="M130.91688,88.20306h-3.0676V81.75c-1.93223-.08347-3.73751-.07323-5.65736-.00191v6.42484h-3.10863V73.41048h3.03758v5.2991c1.8761.07273,3.61163.04847,5.53963.00617.03246-1.77315.06415-3.5031.097-5.29941h3.15935Z" transform="translate(-0.24 -0.23999)"/><path d="M110.07807,76.129h-4.404v-2.555a83.49372,83.49372,0,0,1,11.87587-.1303V76.053H113.323V88.20671h-3.245Z" transform="translate(-0.24 -0.23999)"/><path d="M54.71438,85.50379h7.181V88.194H51.65084V73.42939h3.06354Z" transform="translate(-0.24 -0.23999)"/><path d="M680.8677,36.71823c-1.19836,0-2.18209.0466-3.15874-.01624-.66058-.0425-1.00687-.59609-1.30968-1.12224-.69516-1.20739-1.37871-2.42145-2.16381-3.80326-.53514.86863-1.01027,1.62216-1.46654,2.38689-.30651.51357-.57569,1.04941-.8809,1.56379a1.76267,1.76267,0,0,1-1.50838,1.02828c-.83168.01221-1.66365.00284-2.71447.00284.29326-.60613.45638-1.03849.69632-1.42294,1.07737-1.7265,2.14752-3.45887,3.28067-5.14864a1.82678,1.82678,0,0,0-.00217-2.29758c-1.04156-1.55864-2.01135-3.16549-2.99924-4.75958-.24486-.395-.44514-.81772-.7231-1.33379a6.60618,6.60618,0,0,1,3.2932.01016,2.13333,2.13333,0,0,1,.9825.963c.68619,1.11628,1.30441,2.27434,2.06824,3.62631.63809-1.13187,1.21658-2.10145,1.74029-3.09982.80719-1.539,1.11645-1.72567,2.80588-1.60921.5035.03471,1.01139.00536,1.73912.00536-.28277.526-.46072.90474-.68039,1.25746-1.01238,1.62576-2.01293,3.25975-3.06644,4.85869a1.80056,1.80056,0,0,0-.00375,2.20444c1.08474,1.67387,2.1198,3.38007,3.16441,5.07963C680.2459,35.55581,680.493,36.04325,680.8677,36.71823Z" transform="translate(-0.24 -0.23999)"/><path d="M692.872,33.80591v2.86372c-3.41666.03951-6.78826.01194-10.126.01577a140.91459,140.91459,0,0,1-.09833-14.8578h3.042V33.80591Z" transform="translate(-0.24 -0.23999)"/><path d="M688.05773,94.925h-3.20789a20.75633,20.75633,0,0,1,.43453-4.91835,21.28893,21.28893,0,0,1,3.63762-7.75815c1.09172-1.57815,2.2077-3.1395,3.30938-4.71079.24515-.34963.4759-.70933.86-1.284H680.60918V73.66723h16.52121a2.58117,2.58117,0,0,1-.61471,3.01963c-.80472.88869-1.67373,1.72066-2.45683,2.62732a23.22228,23.22228,0,0,0-5.586,11.87677C688.28865,92.407,688.19824,93.6373,688.05773,94.925Z" transform="translate(-0.24 -0.23999)"/><path d="M679.89861,73.70642a2.69778,2.69778,0,0,1-.68548,3.01541c-.93165.9888-1.90225,1.94683-2.76622,2.99235a22.84084,22.84084,0,0,0-5.43685,13.18148c-.03949.55763-.11824,1.11257-.1834,1.6682a2.55921,2.55921,0,0,1-.1033.33588H667.553c-.02309-7.55579,3.71437-13.2753,8.668-18.5666a14.2456,14.2456,0,0,0-3.29836-.14649c-1.03864-.03368-2.07932-.00736-3.11907-.00736h-6.44V73.70642Z" transform="translate(-0.24 -0.23999)"/><path d="M684.79547,140.89957c-.55272-.319-.93006-.52762-1.29844-.751a4.86947,4.86947,0,0,1,.04811-8.6251,10.09613,10.09613,0,0,1,4.66523-1.38577,13.76389,13.76389,0,0,1,6.77033,1.22134,4.79713,4.79713,0,0,1,.16061,8.66212c-.28547.14159-.56379.29751-.84363.45015-.03329.01815-.05508.05729-.16389.17508.39187.20362.76055.40466,1.13713.58927a5.53686,5.53686,0,0,1,.368,10.04693,11.67073,11.67073,0,0,1-7.776,1.284,19.18946,19.18946,0,0,1-4.3776-1.159,4.8806,4.8806,0,0,1-3.28588-4.83146,5.133,5.133,0,0,1,3.185-5.04753C683.781,141.34289,684.18422,141.17152,684.79547,140.89957Zm3.61957.79395a7.11515,7.11515,0,0,0-4.30371,1.97836,3.48967,3.48967,0,0,0,.28892,5.11243,8.47718,8.47718,0,0,0,5.39649,1.61035,12.5641,12.5641,0,0,0,3.90392-1.023,2.987,2.987,0,0,0,1.94907-3.01282,2.91859,2.91859,0,0,0-1.89176-3.03055c-.92151-.36967-1.87582-.66249-2.82662-.95306C690.10072,142.12143,689.25439,141.91878,688.415,141.69352Zm.72932-9.46414a19.492,19.492,0,0,0-3.44895.87457,2.8841,2.8841,0,0,0-.48352,5.06842,7.60526,7.60526,0,0,0,2.23776,1.0782,6.94363,6.94363,0,0,0,5.45584-.38832,3.57544,3.57544,0,0,0,2.11664-3.09559,3.26672,3.26672,0,0,0-2.67293-3.00469,2.65119,2.65119,0,0,0-.34594-.09342C691.14041,132.5331,690.27674,132.4026,689.14436,132.22938Z" transform="translate(-0.24 -0.23999)"/><path d="M677.89869,135.84854l-2.68389.61957c-.33175-.50563-.6041-.94144-.8966-1.36324a5.78572,5.78572,0,0,0-9.4105-.19673,8.41538,8.41538,0,0,0-1.54559,5.59468c.35185-.286.59-.45287.79705-.65212a7.39592,7.39592,0,0,1,5.28984-2.1756,16.50634,16.50634,0,0,1,3.21364.23471,6.62936,6.62936,0,0,1,5.59851,6.53246c.24035,3.93058-2.0625,7.33532-6.89267,8.23267a9.22717,9.22717,0,0,1-10.72741-7.42443,16.78581,16.78581,0,0,1,.48522-9.08545,9.49028,9.49028,0,0,1,14.35336-4.40468A5.726,5.726,0,0,1,677.89869,135.84854Zm-8.122,4.28149a5.87671,5.87671,0,0,0-5.64844,2.92781,3.728,3.728,0,0,0-.09287,3.77143,6.52157,6.52157,0,0,0,8.54906,2.83323,4.60208,4.60208,0,0,0,2.52282-3.0346c.96234-3.76422-1.0728-6.43179-4.97063-6.49761C670.01666,140.12826,669.89666,140.13,669.77666,140.13Z" transform="translate(-0.24 -0.23999)"/><path d="M678.78439,202.29154l2.66051-.62373c.24774.482.47291.89272.67336,1.31515a4.62142,4.62142,0,0,0,3.99873,2.82683c3.2894.28308,5.71477-1.086,6.53836-4.28564a24.92078,24.92078,0,0,0,.72463-4.40956,7.11378,7.11378,0,0,0-.57217.46251,8.60994,8.60994,0,0,1-7.96359,2.26425,15.83277,15.83277,0,0,1-2.98354-.84709,4.93229,4.93229,0,0,1-2.85187-2.76356c-1.251-2.98448-.9634-7.0771,2.86588-9.23748a9.4575,9.4575,0,0,1,14.40228,7.92821,21.10359,21.10359,0,0,1-.46775,6.42354,9.20764,9.20764,0,0,1-8.5711,7.15452,8.77272,8.77272,0,0,1-6.69134-2.4068A5.48493,5.48493,0,0,1,678.78439,202.29154Zm8.01469-4.684.02063-.1193a8.06451,8.06451,0,0,0,.83783-.00407,6.42169,6.42169,0,0,0,4.41627-2.11836,3.1549,3.1549,0,0,0,.91506-2.84948,5.27629,5.27629,0,0,0-1.79666-2.89856,7.63911,7.63911,0,0,0-7.92334-.42791,4.35337,4.35337,0,0,0-1.88455,4.58929,3.73543,3.73543,0,0,0,2.85029,3.32694A26.02308,26.02308,0,0,0,686.79908,197.60757Z" transform="translate(-0.24 -0.23999)"/><path d="M662.10281,194.54991c-.68431-.04627-1.19478-.08042-1.70525-.11535-1.18149-.08091-1.28666-.18206-1.37654-1.32065a6.04637,6.04637,0,0,1,3.55072-6.24105,10.90493,10.90493,0,0,1,9.1759-.23932c3.29209,1.35819,4.74287,4.93492,3.51234,8.51309a11.20083,11.20083,0,0,1-4.44586,5.651c-1.87764,1.28357-3.84662,2.4334-5.77424,3.644a2.48082,2.48082,0,0,0-.82711.74661h11.74735v2.52706H658.91373c-.73359-1.65685-.51891-2.29255,1.06828-3.06452a41.31964,41.31964,0,0,0,9.63838-6.214,7.46019,7.46019,0,0,0,2.86418-5.20809,4.0733,4.0733,0,0,0-3.54293-4.6236,7.95092,7.95092,0,0,0-3.9099.15652,4.12616,4.12616,0,0,0-3.05924,4.45453C661.99588,193.60632,662.04762,193.99479,662.10281,194.54991Z" transform="translate(-0.24 -0.23999)"/><path d="M127.75685,241.44488a6.00773,6.00773,0,0,1,.75342-.097q3.65534.01391,7.31058.04457a3.687,3.687,0,0,1,3.71083,2.49431,4.14513,4.14513,0,0,1-.79612,4.66714c-.18731.20162-.37431.4035-.60078.64769a2.93527,2.93527,0,0,1,1.39789,2.15672c.15351,1.58464.28689,3.17124.44569,4.94684a24.10263,24.10263,0,0,1-2.66373-.02426c-.62-.07122-.71572-.68862-.76377-1.21263-.08742-.95355-.11347-1.91314-.21483-2.86494-.12194-1.145-.5335-1.547-1.69111-1.5893-1.22516-.04479-2.45325-.01-3.78247-.01v5.57519h-3.1056Zm3.11636,6.42666c1.53173,0,2.92761.04717,4.31845-.01643.94-.043,1.38264-.58377,1.49622-1.5634.11684-1.00756-.2436-1.93421-.9732-2.11254a16.60491,16.60491,0,0,0-4.84147-.18176Z" transform="translate(-0.24 -0.23999)"/><path d="M99.89439,256.14114V241.37706a4.18456,4.18456,0,0,1,.7477-.134c2.2344.033,4.47255.01233,6.70175.14225a4.96677,4.96677,0,0,1,4.64907,3.54761,10.4976,10.4976,0,0,1-.33789,8.04175,5.22344,5.22344,0,0,1-4.74155,3.31617c-2.22873.1166-4.469.01447-6.7041.00243C100.13979,256.2929,100.07057,256.22865,99.89439,256.14114Zm3.14377-2.54713a9.95178,9.95178,0,0,0,4.18554-.22769,2.71351,2.71351,0,0,0,1.2859-1.16288,7.15041,7.15041,0,0,0,.38306-6.22266,2.72613,2.72613,0,0,0-1.80154-1.79423,13.07769,13.07769,0,0,0-4.053-.2343Z" transform="translate(-0.24 -0.23999)"/><path d="M71.18966,248.74274c-.06673.8473-.06219,1.65372-.20321,2.43381-.67946,3.75856-4.15769,5.89752-7.97062,5.32073a6.54247,6.54247,0,0,1-5.91912-6.34424,12.8365,12.8365,0,0,1,.08443-3.43837,6.50591,6.50591,0,0,1,5.33045-5.464,6.75381,6.75381,0,0,1,8.43933,5.04229A19.29405,19.29405,0,0,1,71.18966,248.74274Zm-7.00088-4.92291a3.308,3.308,0,0,0-3.34523,1.86274,6.96353,6.96353,0,0,0-.00314,6.22963,3.37609,3.37609,0,0,0,3.44554,1.90122,3.319,3.319,0,0,0,3.2474-2.20134,7.42713,7.42713,0,0,0,.155-5.25454A3.44487,3.44487,0,0,0,64.18878,243.81983Z" transform="translate(-0.24 -0.23999)"/><path d="M141.32832,251.56339c.85374,0,1.56483.01014,2.27548-.00328.54835-.01034.713.43008.97723.77021a3.90187,3.90187,0,0,0,4.493,1.33653,2.70416,2.70416,0,0,0,.81861-.4771,1.31353,1.31353,0,0,0-.36108-2.32043,11.09159,11.09159,0,0,0-1.71318-.52492c-1.19479-.32006-2.40038-.60128-3.58985-.93952a3.35174,3.35174,0,0,1-2.701-2.99569c-.1962-1.82789.16429-3.46311,1.93164-4.41771a7.47358,7.47358,0,0,1,7.55575.01462,3.62747,3.62747,0,0,1,1.89633,3.92725,9.56726,9.56726,0,0,1-1.956-.03524,2.37421,2.37421,0,0,1-1.11191-.79632,3.61982,3.61982,0,0,0-3.76079-1.23992,2.29048,2.29048,0,0,0-.85537.40043,1.29018,1.29018,0,0,0,.25172,2.37045,20.30542,20.30542,0,0,0,2.646.74728c.9639.25365,1.94722.444,2.89431.74833a3.29386,3.29386,0,0,1,2.57958,2.70316c.22551,1.69761-.00835,3.30024-1.52754,4.4008a7.90039,7.90039,0,0,1-5.71143,1.27427,6.52031,6.52031,0,0,1-3.34242-1.20082A4.3388,4.3388,0,0,1,141.32832,251.56339Z" transform="translate(-0.24 -0.23999)"/><path d="M125.0073,244.08428h-7.5274v2.88943c2.298.01146,4.588.02285,6.95907.03463v2.786h-6.90253v3.66373h7.85528v2.80546H114.45038a132.1494,132.1494,0,0,1-.09069-14.78044H125.0073Z" transform="translate(-0.24 -0.23999)"/><path d="M51.99505,249.7691H46.3675V256.202H43.233V241.40648h3.05069v5.30467c1.87291.06932,3.607.04846,5.53416.00314l.10063-5.29366H55.073v14.738a8.53035,8.53035,0,0,1-3.078.00662Z" transform="translate(-0.24 -0.23999)"/><path d="M40.95742,245.79964a16.13928,16.13928,0,0,1-2.35092-.03542c-.35182-.05205-.70067-.44152-.95864-.75407a3.17166,3.17166,0,0,0-3.63107-1.12276,2.19915,2.19915,0,0,0-.54155.24846,1.87772,1.87772,0,0,0-1.00091,1.6618c.05636.73183.75732.87038,1.32367,1.02082,1.42516.37854,2.86319.70863,4.29538,1.06087.19308.04752.3825.11.57314.16722,1.56717.47007,2.74,1.32006,2.887,3.09976.18716,2.266-.59975,3.79564-2.427,4.63224a8.63545,8.63545,0,0,1-7.30958.04111,4.28517,4.28517,0,0,1-2.59563-4.07142c1.55744-.5303,2.35971-.33237,3.30429.778a4.46849,4.46849,0,0,0,4.95384.99062,1.5616,1.5616,0,0,0,.98048-1.508,1.39765,1.39765,0,0,0-1.15686-1.21878c-1.15351-.31506-2.3121-.61152-3.4675-.91975-.5776-.1541-1.159-.29771-1.72792-.47988a3.56924,3.56924,0,0,1-2.74983-3.37966,4.16216,4.16216,0,0,1,1.85774-3.916,7.757,7.757,0,0,1,8.05884.11964A3.91147,3.91147,0,0,1,40.95742,245.79964Z" transform="translate(-0.24 -0.23999)"/><path d="M81.94094,241.41552h3.24147c.02261.44691.05855.835.05927,1.22318q.00745,4.01589.0018,8.03181c-.00014.27964-.00105.55992-.01869.83883a4.85644,4.85644,0,0,1-4.38,4.89524,9.52669,9.52669,0,0,1-3.688-.03267,4.6676,4.6676,0,0,1-3.95274-3.96085,12.00473,12.00473,0,0,1-.20248-2.02368c-.023-2.59743-.01293-5.1952-.005-7.7928.00107-.35133.06016-.70246.08933-1.02034a6.908,6.908,0,0,1,3.27849-.09027c0,.39746,0,.82213,0,1.24681,0,2.67729-.01582,5.35472.0048,8.03187.01865,2.42282,1.78615,3.62176,4.06674,2.78695a1.98247,1.98247,0,0,0,1.364-1.672,9.395,9.395,0,0,0,.06826-1.3147c.00593-2.59764.00016-5.19529.00622-7.79294C81.87535,242.34126,81.9154,241.91263,81.94094,241.41552Z" transform="translate(-0.24 -0.23999)"/><path d="M91.20205,253.44041h7.1418v2.64372a69.47663,69.47663,0,0,1-10.10324.084,143.22245,143.22245,0,0,1-.08045-14.73625h3.04189Z" transform="translate(-0.24 -0.23999)"/><path d="M402.83912,36.60443h-2.80887V25.45288l-.21237-.0278c-.13638.52643-.28643,1.04974-.40676,1.57981-.65358,2.87909-1.297,5.76049-1.95008,8.63971-.23886,1.05314-.27083,1.07156-1.34476,1.11425-.07986.00318-.15984.00329-.23977.00451-1.47679.02244-1.74744-.145-2.08473-1.56528-.58061-2.44485-1.11117-4.90158-1.66506-7.3528a7.78882,7.78882,0,0,0-.68186-2.05244V36.5877h-2.85843V21.84435h4.47735q1.26813,5.41437,2.539,10.8407l.23775.00228c.82514-3.59489,1.65029-7.18977,2.49178-10.856h4.50677Z" transform="translate(-0.24 -0.23999)"/><path d="M394.95677,135.83811l-2.63757.62695c-.51281-.65885-.95429-1.27384-1.44425-1.84738a5.65077,5.65077,0,0,0-8.6315-.06255,8.06083,8.06083,0,0,0-1.83595,5.9539c.35382-.29369.59619-.469.80845-.67515a8.07521,8.07521,0,0,1,6.48263-2.19672,17.16144,17.16144,0,0,1,2.02.24375c3.60578.674,5.357,3.3519,5.58449,6.5642.27709,3.91183-2.059,7.30347-6.91014,8.23114a9.24073,9.24073,0,0,1-10.8767-8.25689,17.46133,17.46133,0,0,1,.65517-8.28121,9.50724,9.50724,0,0,1,14.38649-4.35542A5.89236,5.89236,0,0,1,394.95677,135.83811Zm-8.08638,4.29117c-2.66332-.00357-4.4763.90232-5.61741,2.77761a3.81077,3.81077,0,0,0-.1486,3.98124,6.50279,6.50279,0,0,0,8.67868,2.67669,4.55706,4.55706,0,0,0,2.37923-3.00336c.907-3.72128-1.10145-6.35267-4.932-6.43087C387.11036,140.12814,386.99036,140.13028,386.87039,140.12928Z" transform="translate(-0.24 -0.23999)"/><path d="M397.00377,137.14072v-2.49486c.50165-.09725.99451-.20385,1.4913-.28711,1.68334-.28213,3.109-.87141,3.86707-2.60221.49427-1.1285,1.40338-1.35,2.93153-.92141V152.026h-2.80588V135.9414a21.55365,21.55365,0,0,1-2.6351.93714A22.71587,22.71587,0,0,1,397.00377,137.14072Z" transform="translate(-0.24 -0.23999)"/><path d="M537.06709,36.61H526.79133V21.88349H529.854V33.76132c2.44735.26288,4.796-.02677,7.21313.19176Z" transform="translate(-0.24 -0.23999)"/><path d="M234.71748,146.61127l2.77387-.4705c.37752.50648.74146,1.02369,1.1348,1.51749a6.18194,6.18194,0,0,0,7.50161,2.05249,4.35863,4.35863,0,0,0,2.9795-3.97264,10.06729,10.06729,0,0,0,.01169-1.67575,4.22,4.22,0,0,0-2.69918-3.79074,6.41734,6.41734,0,0,0-6.09277.40471,5.88328,5.88328,0,0,0-1.71821,1.78172,1.54975,1.54975,0,0,1-1.54208.875c-.5482-.04386-1.09824-.06454-1.83885-.10634.46146-4.20791.91069-8.30436,1.366-12.45607h14.32059v2.40656c-.44291.02313-.86475.0635-1.28666.06423-3.11882.00548-6.23768-.00009-9.35652.00459-1.30632.002-1.32739.02931-1.48725,1.30491-.213,1.7-.42837,3.39965-.65795,5.22022a2.98627,2.98627,0,0,0,.43458-.27727,8.48028,8.48028,0,0,1,7.43164-2.1601,6.74321,6.74321,0,0,1,6.254,6.22787c.443,3.96051-1.34607,7.12792-4.74,8.38046a11.14674,11.14674,0,0,1-8.63382-.1851A7.02555,7.02555,0,0,1,234.71748,146.61127Z" transform="translate(-0.24 -0.23999)"/><path d="M266.34709,133.31607H253.69125v-2.4827h16.51216a2.47762,2.47762,0,0,1-.4212,2.723,15.43444,15.43444,0,0,1-1.16871,1.20435,24.29382,24.29382,0,0,0-7.1069,13.56889c-.18061,1.18128-.258,2.37835-.39483,3.68146h-3.23989c-.02056-7.53148,3.69882-13.25393,8.57309-18.44875Z" transform="translate(-0.24 -0.23999)"/><path d="M264.29329,26.49171a19.59315,19.59315,0,0,1-2.387-.02977,1.66983,1.66983,0,0,1-.90642-.63455,3.38813,3.38813,0,0,0-4.14219-1.216c-.815.28365-1.21934.75682-1.22883,1.438-.00982.70488.32584,1.11671,1.24986,1.369,1.15324.31484,2.3238.5658,3.48443.85422.50247.12486,1.00025.26955,1.49771.41368,1.57729.457,2.74011,1.31908,2.89157,3.094.19365,2.26919-.5937,3.8-2.42,4.63585a8.5003,8.5003,0,0,1-7.52042-.0693,3.94163,3.94163,0,0,1-2.29054-4.1349,16.84956,16.84956,0,0,1,2.32379.03493c.31357.04376.6148.44156.85008.73556a3.92876,3.92876,0,0,0,4.5,1.32389,2.7016,2.7016,0,0,0,.81794-.47718,1.31344,1.31344,0,0,0-.361-2.31956,11.069,11.069,0,0,0-1.71214-.52486c-1.19391-.31989-2.39892-.59982-3.58717-.939a3.4021,3.4021,0,0,1-2.72575-3.10739c-.20587-2.044.46711-3.54861,2.03982-4.36351a7.54264,7.54264,0,0,1,7.13414-.11321A4.3863,4.3863,0,0,1,264.29329,26.49171Z" transform="translate(-0.24 -0.23999)"/><path d="M683.659,257.978h11.72344v2.38429c-.83912.29611-15.55.38784-17.07668.11212-.65519-1.70663-.45961-2.26426,1.15471-3.04772a41.1802,41.1802,0,0,0,9.54281-6.141,7.53271,7.53271,0,0,0,2.91358-5.18174,4.07735,4.07735,0,0,0-3.57774-4.70727,8.03115,8.03115,0,0,0-3.90978.1891,4.0229,4.0229,0,0,0-3.01993,4.114c.00247.50718.05538,1.01414.09188,1.63781-.78481-.04808-1.48863-.086-2.19164-.13568-.71613-.05056-.76746-.6464-.82553-1.13639a5.73838,5.73838,0,0,1,2.26858-5.602,10.67358,10.67358,0,0,1,11.84847-.241A5.84829,5.84829,0,0,1,695.08,244.8007a8.34049,8.34049,0,0,1-2.31973,6.46826,20.14257,20.14257,0,0,1-3.43576,2.95625c-1.83223,1.27055-3.77836,2.37686-5.676,3.5531Z" transform="translate(-0.24 -0.23999)"/><path d="M673.02844,241.88282H660.499c-.052-.43257-.10453-.70221-.11244-.97317-.015-.51215-.00439-1.025-.00439-1.503.99234-.27325,15.25277-.32677,16.62515-.08437a2.57145,2.57145,0,0,1-.69638,3.01923,30.77284,30.77284,0,0,0-4.73444,5.70633,23.69743,23.69743,0,0,0-3.56179,11.42189c-.01934.31725-.079.63222-.12516.94746-.0048.03255-.04617.05973-.13318.16564h-3.06182a21.15222,21.15222,0,0,1,2.3502-10.07156,36.86749,36.86749,0,0,1,6.09334-8.37958Z" transform="translate(-0.24 -0.23999)"/><path d="M410.33121,196.294c.62725.30743,1.05668.50761,1.47689.72559a5.52053,5.52053,0,0,1,.36808,9.81474,9.47239,9.47239,0,0,1-4.26958,1.46,16.18179,16.18179,0,0,1-7.98114-1.12525,5.416,5.416,0,0,1-.24768-9.952c.41751-.20054.84018-.39043,1.3967-.6484-.49555-.29541-.865-.50818-1.22716-.73285a4.97323,4.97323,0,0,1-2.63446-4.42123,4.70743,4.70743,0,0,1,2.81924-4.27168,12.363,12.363,0,0,1,11.7264.10878c3.14613,1.55129,3.15556,6.66349.1185,8.22449C411.41827,195.712,410.965,195.95833,410.33121,196.294Zm-5.63968,1.175a5.99761,5.99761,0,0,0-4.32829,2.01163,3.41074,3.41074,0,0,0,.288,4.92334,8.4058,8.4058,0,0,0,5.60687,1.65965,12.50459,12.50459,0,0,0,3.67488-.97383,3.02752,3.02752,0,0,0,2.04085-3.07,2.91332,2.91332,0,0,0-2.02456-3.05739c-1.37256-.52608-2.7886-.94135-4.19514-1.37421A5.56334,5.56334,0,0,0,404.69153,197.46905Zm1.45492-2.19616a6.06528,6.06528,0,0,0,4.04452-1.37842,3.05729,3.05729,0,0,0-.92573-5.19687,8.753,8.753,0,0,0-7.52059.26182,2.5896,2.5896,0,0,0-1.46086,2.87335,3.1375,3.1375,0,0,0,1.58054,2.2805A8.36125,8.36125,0,0,0,406.14645,195.27289Z" transform="translate(-0.24 -0.23999)"/><path d="M380.31513,194.56115c-.84311-.06268-1.5871-.09857-2.32635-.1788-.649-.07043-.66217-.62988-.70869-1.08922a5.83262,5.83262,0,0,1,2.96194-6.08906,10.52349,10.52349,0,0,1,10.12151-.36526c3.08315,1.452,4.30254,4.85614,3.15393,8.26679a11.31968,11.31968,0,0,1-3.5908,4.99983,33.93753,33.93753,0,0,1-6.63064,4.28018,2.19646,2.19646,0,0,0-.87446.69728H394.1869v2.46919c-.81568.30718-15.4178.41322-17.06534.12708-.64145-1.63132-.48167-2.06471.93633-2.95664q4.61566-2.90322,9.20107-5.85441a7.20412,7.20412,0,0,0,3.30249-4.532,5.4108,5.4108,0,0,0-.06683-3.06983c-.68268-1.92561-2.24095-2.62942-4.09433-2.78733a9.58346,9.58346,0,0,0-2.61342.18422,4.14824,4.14824,0,0,0-3.54411,4.867C380.273,193.83356,380.286,194.13864,380.31513,194.56115Z" transform="translate(-0.24 -0.23999)"/><path d="M531.26479,135.84248c-.75334.18124-1.44411.345-2.13352.51423a.78288.78288,0,0,1-.90861-.39337,15.28878,15.28878,0,0,0-.99229-1.35264,5.69461,5.69461,0,0,0-8.725.01861,8.04547,8.04547,0,0,0-1.78664,5.85206c.37524-.32724.63469-.544.88365-.77213a8.25726,8.25726,0,0,1,6.41983-2.07475,11.54322,11.54322,0,0,1,2.92441.55628,6.88087,6.88087,0,0,1,4.57969,8.29355,7.49088,7.49088,0,0,1-7.42283,6.14122,13.914,13.914,0,0,1-3.80578-.27845,7.83049,7.83049,0,0,1-5.95735-5.81536,16.81667,16.81667,0,0,1,.007-10.0392,9.55347,9.55347,0,0,1,14.22586-4.93083A6.00259,6.00259,0,0,1,531.26479,135.84248Zm-8.05565,14.427a5.29024,5.29024,0,0,0,5.45315-5.90191,4.14779,4.14779,0,0,0-2.14922-3.52316,7.52449,7.52449,0,0,0-7.60407.5796,8.19723,8.19723,0,0,0-1.6582,2.151,3.097,3.097,0,0,0-.03392,2.87949A6.35819,6.35819,0,0,0,523.20914,150.2695Z" transform="translate(-0.24 -0.23999)"/><path d="M533.75947,146.59417l2.80207-.44387c.34951.49656.659.95567.988,1.40036,1.95686,2.64491,4.92662,3.37736,8.10861,1.9387a4.022,4.022,0,0,0,2.23905-2.52141,6.83813,6.83813,0,0,0,.11513-3.78352,3.98936,3.98936,0,0,0-2.38412-2.829c-2.68617-1.15094-5.67492-.91-7.73133,1.79464-1.057,1.39031-1.58531,1.519-3.526.88317.1766-4.05727.88582-8.09693,1.25766-12.246h14.38283v2.39354c-.43184.02155-.85412.06015-1.27647.06087-3.07752.00527-6.15509-.0015-9.23261.005-1.37321.0029-1.4884.09334-1.67924,1.42565-.23719,1.65527-.44221,3.31514-.68233,5.1341a4.39049,4.39049,0,0,0,.54756-.39142c2.49428-2.59657,7.3227-2.61166,9.87258-1.36527a6.52361,6.52361,0,0,1,3.68742,5.76285,11.326,11.326,0,0,1-.30556,3.43475,6.23027,6.23027,0,0,1-3.72627,4.41845,11.14835,11.14835,0,0,1-9.62174-.04922A6.87412,6.87412,0,0,1,533.75947,146.59417Z" transform="translate(-0.24 -0.23999)"/><path d="M234.547,207.6965c-.64585-1.80464-.46232-2.29029,1.188-3.08811a40.82333,40.82333,0,0,0,9.5387-6.14906,7.48348,7.48348,0,0,0,2.89588-5.31622,4.065,4.065,0,0,0-3.39533-4.51736,7.733,7.733,0,0,0-4.1406.166,4.11374,4.11374,0,0,0-2.97794,4.50756q.03918.53125.06726,1.06321c.0015.02919-.04552.06089-.14677.1871-.67033-.0505-1.41438-.09259-2.15521-.16683-.57979-.05809-.64374-.54082-.69235-.97476a5.84989,5.84989,0,0,1,2.8555-6.14432,10.49814,10.49814,0,0,1,10.22392-.42161c3.0817,1.451,4.29963,4.86123,3.14639,8.26913a9.54008,9.54008,0,0,1-3.14437,4.58918c-1.79573,1.38811-3.73215,2.59561-5.62292,3.85846-.69238.46245-1.4285.85941-2.35332,1.41061a25.68375,25.68375,0,0,0,3.97.12588c1.319.02354,2.63882.0053,3.9583.0053h3.88189v2.47413C250.72488,207.85494,236.45906,207.94869,234.547,207.6965Z" transform="translate(-0.24 -0.23999)"/><path d="M253.41492,189.07107v-2.56158H269.987a2.934,2.934,0,0,1-.824,3.16889,55.53156,55.53156,0,0,0-4.29923,5.12646,21.12886,21.12886,0,0,0-3.75536,10.713c-.05259.71065-.16761,1.41668-.26341,2.20387h-3.22266c-.00158-7.49385,3.64263-13.2327,8.52944-18.41621l-.162-.23448Z" transform="translate(-0.24 -0.23999)"/><path d="M544.12951,83.63273c.80613.36967,1.4768.62836,2.09994.973a4.26964,4.26964,0,0,1,2.25832,3.58688c.39182,4.46286-2.247,6.21589-5.5122,7.0514a13.01375,13.01375,0,0,1-7.22127-.26345,6.73191,6.73191,0,0,1-5.06578-5.63633,4.8631,4.8631,0,0,1-.003-.5992l2.60976-.40835c.24879.50053.48967.94755.69733,1.40952a5.29925,5.29925,0,0,0,4.43607,3.2,8.705,8.705,0,0,0,4.91977-.5777,3.6177,3.6177,0,0,0,1.99758-4.59505,2.62274,2.62274,0,0,0-2.11922-2.05613c-1.67666-.313-3.36985-.53777-5.15871-.816v-2.2296c.60486-.02752,1.19033-.02986,1.77052-.08625a13.30584,13.30584,0,0,0,2.59225-.33887,3.19212,3.19212,0,0,0,2.348-3.24292,3.01661,3.01661,0,0,0-2.30379-2.99621,8.789,8.789,0,0,0-5.7583.02162,3.72417,3.72417,0,0,0-2.34539,2.247c-.27223.65763-.4936,1.33636-.78117,2.12436-.831-.1702-1.63131-.3341-2.51807-.5157a5.50388,5.50388,0,0,1,2.59951-5.22321,10.89327,10.89327,0,0,1,8.85264-1.35225,17.06126,17.06126,0,0,1,2.576.952,4.39855,4.39855,0,0,1,2.65711,4.19723,4.57118,4.57118,0,0,1-2.35558,4.51C545.02383,83.18418,544.63014,83.37246,544.12951,83.63273Z" transform="translate(-0.24 -0.23999)"/><path d="M512.8551,76.27452v-2.569h16.55261a2.60819,2.60819,0,0,1-.60058,2.93053c-.83086.91878-1.73057,1.77671-2.53928,2.71385A23.2384,23.2384,0,0,0,520.70238,91.237c-.18392,1.21551-.26888,2.446-.40681,3.74066h-3.22618c-.04857-7.51939,3.64448-13.25373,8.49645-18.47056l-.13857-.23259Z" transform="translate(-0.24 -0.23999)"/><path d="M411.04251,83.48542c.60466.29916,1.02891.49689,1.44208.71556a5.52279,5.52279,0,0,1,.33639,9.87868,11.79832,11.79832,0,0,1-7.99459,1.36423,19.50424,19.50424,0,0,1-4.1504-1.08983,4.94206,4.94206,0,0,1-3.434-4.85506,5.14243,5.14243,0,0,1,3.14136-5.07766c.41892-.20331.84574-.39031,1.41346-.65128-.49087-.29034-.85694-.50541-1.22165-.72279a4.87873,4.87873,0,0,1,.07084-8.68539,10.0939,10.0939,0,0,1,4.55563-1.34507,13.86262,13.86262,0,0,1,6.98827,1.31834,4.33717,4.33717,0,0,1,2.639,3.95764,4.483,4.483,0,0,1-2.39086,4.48076C412.05633,82.98688,411.659,83.1722,411.04251,83.48542Zm-5.63024,1.13389a6.71674,6.71674,0,0,0-4.34681,2.0547,3.47467,3.47467,0,0,0,.5867,5.16144,8.603,8.603,0,0,0,5.09657,1.44248,13.269,13.269,0,0,0,4.124-1.09891,2.95977,2.95977,0,0,0,1.81573-3.08845,2.82677,2.82677,0,0,0-1.80715-2.84242c-1.25449-.49863-2.55519-.88493-3.84662-1.28491C406.50879,84.80036,405.95394,84.73114,405.41227,84.61931Zm1.18309-2.15839a6.434,6.434,0,0,0,4.16359-1.22457,3.06708,3.06708,0,0,0-.69329-5.30162,8.74549,8.74549,0,0,0-7.62852.23912A2.58518,2.58518,0,0,0,400.9904,78.946a3.07161,3.07161,0,0,0,1.4204,2.252A7.6956,7.6956,0,0,0,406.59536,82.46092Z" transform="translate(-0.24 -0.23999)"/><path d="M394.92539,78.73712c-.777.17715-1.49927.38839-2.23655.48321a1.09,1.09,0,0,1-.76541-.38946c-.34468-.38264-.582-.8598-.90947-1.26049a5.61552,5.61552,0,0,0-8.20095-.65086,7.57118,7.57118,0,0,0-2.4213,6.40011c.30662-.23779.51873-.3741.6975-.54526a8.09558,8.09558,0,0,1,6.70066-2.22736,14.10242,14.10242,0,0,1,2.92951.53886,6.41277,6.41277,0,0,1,4.57638,6.09688c.21085,4.74372-2.77588,8.03825-7.6219,8.34736a12.7767,12.7767,0,0,1-2.98442-.10253,8.14729,8.14729,0,0,1-6.676-6.13158,16.37731,16.37731,0,0,1,.01013-9.91309,9.53812,9.53812,0,0,1,14.30663-4.88318A5.83737,5.83737,0,0,1,394.92539,78.73712Zm-8.96868,14.35107c3.80979.01846,5.83544-1.51326,6.33539-4.14556a4.7764,4.7764,0,0,0-2.30842-5.32819,6.92462,6.92462,0,0,0-8.81988,2.25414,3.4,3.4,0,0,0-.26845,3.51554C382.06863,91.90354,384.05505,93.09853,385.95671,93.08819Z" transform="translate(-0.24 -0.23999)"/><path d="M237.88608,83.235c.14927-.0583.24056-.06667.28853-.11663,2.73693-2.85061,6.10985-3.08861,9.65146-2.183a7.04931,7.04931,0,0,1,4.81527,8.40094c-.71455,3.55894-3.329,5.54921-6.786,6.21883a9.22994,9.22994,0,0,1-10.88077-8.1091,18.1049,18.1049,0,0,1,.4535-7.95143,9.53894,9.53894,0,0,1,14.34737-4.9873,5.75353,5.75353,0,0,1,2.602,4.2246c-.77194.17756-1.49484.38942-2.23286.48763a1.14494,1.14494,0,0,1-.77484-.3709,5.26537,5.26537,0,0,1-.60809-.88593c-2.61823-3.908-7.6559-2.72259-9.55178.09011A7.76739,7.76739,0,0,0,237.88608,83.235Zm6.47521-.215-.001-.02972a14.01635,14.01635,0,0,0-1.43391.08507,5.64806,5.64806,0,0,0-4.59146,3.40251,3.36187,3.36187,0,0,0-.025,2.779,5.99659,5.99659,0,0,0,4.51124,3.74872c3.10118.63391,5.53328-.541,6.57529-3.21244,1.36277-3.49368-.59294-6.5569-4.31617-6.7714C244.84134,83.008,244.601,83.02,244.36129,83.02Z" transform="translate(-0.24 -0.23999)"/><path d="M259.95117,78.67521a7.69073,7.69073,0,0,1-5.41424,1.17387V77.59337c.80687-.21569,1.58139-.39447,2.33775-.63131a4.29353,4.29353,0,0,0,2.893-2.3068c.5458-1.191,1.48878-1.41714,2.99162-.88V94.94366h-2.73894c-.14467-1.76246-.04807-3.55056-.06533-5.333-.0174-1.799-.00381-3.59825-.00381-5.3974C259.9512,82.4277,259.95117,80.64209,259.95117,78.67521Z" transform="translate(-0.24 -0.23999)"/><path d="M546.64787,196.30156c.6426.31066,1.07983.50111,1.49742.7276a5.52129,5.52129,0,0,1,.32151,9.82482,11.71155,11.71155,0,0,1-7.98739,1.39578,19.61808,19.61808,0,0,1-4.26468-1.12513,4.903,4.903,0,0,1-3.37237-4.7733,5.14109,5.14109,0,0,1,3.09428-5.10672c.42557-.20946.86531-.39009,1.4591-.65588-.46113-.28207-.81416-.50486-1.17363-.71681a4.87435,4.87435,0,0,1-.02063-8.68276,10.00728,10.00728,0,0,1,4.54928-1.36427,13.81772,13.81772,0,0,1,6.99662,1.27156c2.39866,1.16187,3.139,3.30706,2.45514,5.95607a4.04394,4.04394,0,0,1-2.11793,2.49272C547.67156,195.7755,547.24793,195.98659,546.64787,196.30156Zm1.65029,5.6188a2.904,2.904,0,0,0-1.9006-2.9059c-1.14059-.46305-2.34194-.774-3.50285-1.18989a5.58969,5.58969,0,0,0-5.871,1.29338,3.44731,3.44731,0,0,0-.07184,5.26872,8.42466,8.42466,0,0,0,5.60163,1.68075,11.82448,11.82448,0,0,0,3.56519-.9296A3.10408,3.10408,0,0,0,548.29816,201.92036Zm-6.19259-6.65943a6.94507,6.94507,0,0,0,3.92613-.9781,3.19673,3.19673,0,0,0,1.51723-3.06126,3.08794,3.08794,0,0,0-2.28159-2.65073,8.87159,8.87159,0,0,0-6.64306.12767,2.76956,2.76956,0,0,0-2.03836,2.40578,3.05836,3.05836,0,0,0,1.48277,2.93773A7.64459,7.64459,0,0,0,542.10557,195.26093Z" transform="translate(-0.24 -0.23999)"/><path d="M518.79492,205.18605h11.71371V207.568c-.87984.29278-15.71754.36578-17.09144.09511-.59039-1.60507-.40711-2.07434.99181-2.95888,3.17309-2.00641,6.34407-4.017,9.48428-6.0743a6.55313,6.55313,0,0,0,2.9499-4.21372,7.45111,7.45111,0,0,0,.11069-2.60614,3.6903,3.6903,0,0,0-2.74477-3.03019,7.58615,7.58615,0,0,0-4.82924.0641,4.03542,4.03542,0,0,0-2.84929,4.24035c.015.435.076.86849.13177,1.477a18.205,18.205,0,0,1-2.4832-.25152c-.24926-.05707-.50449-.57779-.55887-.918a6.06071,6.06071,0,0,1,2.94616-6.22093,9.8264,9.8264,0,0,1,5.62277-1.37821,13.4485,13.4485,0,0,1,3.74367.7109,6.45757,6.45757,0,0,1,4.10567,7.92053,11.30392,11.30392,0,0,1-4.92381,6.565c-1.81881,1.22874-3.72194,2.33272-5.58739,3.49252-.26466.16455-.52828.33084-.79236.49632Z" transform="translate(-0.24 -0.23999)"/><path d="M379.42424,249.10421a8.56772,8.56772,0,0,1,7.56316-2.985,11.0244,11.0244,0,0,1,2.23966.35692,6.63993,6.63993,0,0,1,5.11562,6.44807c.23332,4.953-2.98087,7.43953-6.88714,8.23031a9.23241,9.23241,0,0,1-10.8973-8.21153,18.943,18.943,0,0,1,.42686-7.712c1.59841-5.80954,8.51669-8.27465,13.44281-5.71052a6.11755,6.11755,0,0,1,3.53534,4.81322l-2.662.61485c-.343-.5134-.6375-.93552-.9131-1.36966-2.63009-4.14307-8.50669-2.64849-10.05486.82292A10.21967,10.21967,0,0,0,379.42424,249.10421Zm6.48246-.537c-2.45473.0053-4.46871.80159-5.73926,3.03243a3.69406,3.69406,0,0,0-.12882,3.55975,6.48176,6.48176,0,0,0,9.19925,2.63288c1.95158-1.29534,2.39473-3.22984,2.0826-5.37173a4.26769,4.26769,0,0,0-3.63018-3.66507A14.0958,14.0958,0,0,0,385.9067,248.56717Z" transform="translate(-0.24 -0.23999)"/><path d="M399.89127,248.21464a1.50312,1.50312,0,0,0,.36354-.17312c2.536-2.47188,5.59424-2.73971,8.80957-1.93271,2.86993.72029,4.34321,2.77028,4.85822,5.62081a7.55525,7.55525,0,0,1-3.18736,7.94848,10.66,10.66,0,0,1-5.58717,1.54356,11.12456,11.12456,0,0,1-5.48335-1.49774,6.31937,6.31937,0,0,1-3.10893-4.63679l2.84482-.49764c.186.39572.34432.747.51471,1.09239a4.505,4.505,0,0,0,3.3496,2.63628,9.59038,9.59038,0,0,0,4.50859-.12357,4.1476,4.1476,0,0,0,3.07951-3.72721c.01052-.07913.01321-.15931.01992-.23894.2376-2.81174-.62276-4.64687-2.68532-5.466-2.6865-1.067-5.328-.68525-7.15688,1.34385-.13362.14827-.26012.30352-.383.461-1.06878,1.37-1.7073,1.55349-3.65273.95587.44877-4.0367.90076-8.10286,1.36186-12.25059h14.36833v2.38579c-.40992.02163-.83044.06237-1.251.0631-3.15721.00549-6.31444-.0005-9.47165.00488-1.27808.00218-1.29817.03067-1.46127,1.332C400.32838,244.75645,400.11328,246.45437,399.89127,248.21464Z" transform="translate(-0.24 -0.23999)"/><path d="M254.6243,255.09428l2.7479-.60366c.3029.58541.55028,1.07917.81158,1.56544a4.48588,4.48588,0,0,0,3.44815,2.49123c3.24909.48159,6.09252-.78073,6.96563-4.28627.35209-1.41358.59171-2.85516.88251-4.284l-.2204-.0975c-.165.153-.33574.30032-.49412.4599a8.65878,8.65878,0,0,1-7.94863,2.32234,14.37827,14.37827,0,0,1-2.65939-.68786,5.27857,5.27857,0,0,1-3.42665-3.44388c-1.12052-3.537-.27264-6.90662,3.22394-8.81893a9.44065,9.44065,0,0,1,14.23931,7.948,19.67677,19.67677,0,0,1-.717,7.34277,9.28371,9.28371,0,0,1-14.324,4.47506A6.18494,6.18494,0,0,1,254.6243,255.09428Zm8.0685-4.6945a7.594,7.594,0,0,0,3.80045-1.02039c3.135-1.86281,3.26965-4.68912.53224-7.00237a7.41949,7.41949,0,0,0-7.81339-.401,4.37289,4.37289,0,0,0-1.89721,4.69528,3.76834,3.76834,0,0,0,2.92392,3.26988A24.02315,24.02315,0,0,0,262.6928,250.39978Z" transform="translate(-0.24 -0.23999)"/><path d="M236.599,239.2865h14.35878v2.37393c-.41282.021-.83461.06032-1.25645.06108-2.99813.00541-5.99627.00173-8.99439.00463a4.06562,4.06562,0,0,0-.95388.04859,1.04664,1.04664,0,0,0-.93256.939c-.2117,1.81848-.46513,3.63212-.71271,5.52707a1.94112,1.94112,0,0,0,.39712-.20947c2.227-2.19882,4.954-2.61046,7.884-2.1261a6.56078,6.56078,0,0,1,5.84323,6.55107,11.65442,11.65442,0,0,1-.26276,3.08918,6.37669,6.37669,0,0,1-3.83353,4.6183,11.15251,11.15251,0,0,1-9.514-.03592,6.79837,6.79837,0,0,1-3.88614-5.02945c.85311-.14731,1.65974-.33214,2.476-.398.22611-.01825.52569.27858.71331.49787.44014.5144.78726,1.11284,1.25255,1.60046a6.22888,6.22888,0,0,0,8.01289.83537c1.86416-1.18263,2.08439-3.10116,1.931-5.09467a4.22921,4.22921,0,0,0-2.7005-3.79172c-2.94561-1.25452-6.58985-.30029-7.8938,2.28223a1.39907,1.39907,0,0,1-1.58151.79858c-.50625-.06317-1.0182-.08042-1.69161-.13029C235.6187,247.524,236.13686,243.46721,236.599,239.2865Z" transform="translate(-0.24 -0.23999)"/><path d="M538.119,249.37151c-.49769-.29343-.865-.50672-1.22912-.72518a4.87026,4.87026,0,0,1-.02783-8.62036,10.00451,10.00451,0,0,1,4.5368-1.39355,13.7135,13.7135,0,0,1,7.10572,1.28351c2.34287,1.14264,3.12029,3.29738,2.40592,5.97066a4.10223,4.10223,0,0,1-2.13569,2.47617c-.40511.22864-.82535.43061-1.39125.72375.62508.31046,1.11235.55793,1.60424.79591,4.29592,2.07853,3.64647,7.72755.4493,9.63894a12.42671,12.42671,0,0,1-8.31041,1.518,19.07438,19.07438,0,0,1-4.25713-1.14,4.90874,4.90874,0,0,1-3.30926-4.81321,5.1435,5.1435,0,0,1,3.0416-5.01808C537.05133,249.84021,537.51791,249.64623,538.119,249.37151Zm3.55084.85922a6.71882,6.71882,0,0,0-4.24488,1.99442,3.4609,3.4609,0,0,0,.40272,5.09631,8.45034,8.45034,0,0,0,5.29406,1.55255,13.13514,13.13514,0,0,0,3.909-1.00629,3.01537,3.01537,0,0,0,1.97818-3.11293,2.89431,2.89431,0,0,0-1.96833-2.97768c-1.26809-.46816-2.56167-.87059-3.85553-1.26416A13.23624,13.23624,0,0,0,541.66986,250.23073Zm1.40467-2.15821a6.31308,6.31308,0,0,0,4.00717-1.24321,3.06217,3.06217,0,0,0-.70184-5.29651,8.74936,8.74936,0,0,0-7.62691.24385,2.57706,2.57706,0,0,0-1.43965,2.774,3.05618,3.05618,0,0,0,1.3265,2.18064A7.9836,7.9836,0,0,0,543.07453,248.07252Z" transform="translate(-0.24 -0.23999)"/><path d="M531.25781,244.33462c-.9556.2204-1.79842.4148-2.634.60751-.48639-.64863-.89-1.24179-1.34848-1.78907a5.68732,5.68732,0,0,0-8.94129.16934,8.13294,8.13294,0,0,0-1.61308,5.65182c.32531-.25562.54439-.39686.72656-.57566a8.112,8.112,0,0,1,6.79594-2.27463c.634.06076,1.2672.15386,1.8931.27275,3.08444.58579,5.19434,2.76193,5.48584,6.49687.28946,3.7094-1.82133,7.3021-6.86308,8.25475a9.1996,9.1996,0,0,1-10.74944-7.37812,16.75124,16.75124,0,0,1,.49852-9.19862,9.509,9.509,0,0,1,14.39478-4.29166A5.89212,5.89212,0,0,1,531.25781,244.33462Zm-8.09865,4.2755a5.90962,5.90962,0,0,0-5.66145,2.90724,3.72382,3.72382,0,0,0-.11267,3.76969,6.50634,6.50634,0,0,0,8.64287,2.80579,4.588,4.588,0,0,0,2.43557-2.9642c.97365-3.76242-1.0575-6.44765-4.94438-6.51826C523.39916,248.60818,523.27916,248.61012,523.15916,248.61012Z" transform="translate(-0.24 -0.23999)"/><path class="cls-1" d="M688.415,141.69352c.83935.22526,1.68568.42791,2.51631.68172.9508.29057,1.90511.58339,2.82662.95306a2.91859,2.91859,0,0,1,1.89176,3.03055,2.987,2.987,0,0,1-1.94907,3.01282,12.5641,12.5641,0,0,1-3.90392,1.023,8.47718,8.47718,0,0,1-5.39649-1.61035,3.48967,3.48967,0,0,1-.28892-5.11243A7.11515,7.11515,0,0,1,688.415,141.69352Z" transform="translate(-0.24 -0.23999)"/><path class="cls-1" d="M689.14436,132.22938c1.13238.17322,1.996.30372,2.8589.43917a2.65119,2.65119,0,0,1,.34594.09342,3.26672,3.26672,0,0,1,2.67293,3.00469,3.57544,3.57544,0,0,1-2.11664,3.09559,6.94363,6.94363,0,0,1-5.45584.38832,7.60526,7.60526,0,0,1-2.23776-1.0782,2.8841,2.8841,0,0,1,.48352-5.06842A19.492,19.492,0,0,1,689.14436,132.22938Z" transform="translate(-0.24 -0.23999)"/><path class="cls-1" d="M669.77666,140.13c.12,0,.24-.00177.35994.00026,3.89783.06582,5.933,2.73339,4.97063,6.49761a4.60208,4.60208,0,0,1-2.52282,3.0346,6.52157,6.52157,0,0,1-8.54906-2.83323,3.728,3.728,0,0,1,.09287-3.77143A5.87671,5.87671,0,0,1,669.77666,140.13Z" transform="translate(-0.24 -0.23999)"/><path class="cls-1" d="M686.79908,197.60757a26.02308,26.02308,0,0,1-2.56447-.50145,3.73543,3.73543,0,0,1-2.85029-3.32694,4.35337,4.35337,0,0,1,1.88455-4.58929,7.63911,7.63911,0,0,1,7.92334.42791,5.27629,5.27629,0,0,1,1.79666,2.89856,3.1549,3.1549,0,0,1-.91506,2.84948,6.42169,6.42169,0,0,1-4.41627,2.11836,8.06451,8.06451,0,0,1-.83783.00407Z" transform="translate(-0.24 -0.23999)"/><path class="cls-1" d="M130.87321,247.87154v-3.87413a16.60491,16.60491,0,0,1,4.84147.18176c.7296.17833,1.09,1.105.9732,2.11254-.11358.97963-.55621,1.52039-1.49622,1.5634C133.80082,247.91871,132.40494,247.87154,130.87321,247.87154Z" transform="translate(-0.24 -0.23999)"/><path class="cls-1" d="M103.03816,253.594v-9.64176a13.07769,13.07769,0,0,1,4.053.2343,2.72613,2.72613,0,0,1,1.80154,1.79423,7.15041,7.15041,0,0,1-.38306,6.22266,2.71351,2.71351,0,0,1-1.2859,1.16288A9.95178,9.95178,0,0,1,103.03816,253.594Z" transform="translate(-0.24 -0.23999)"/><path class="cls-1" d="M64.18843,243.81918a3.44624,3.44624,0,0,1,3.49994,2.53836,7.42713,7.42713,0,0,1-.155,5.25454,3.319,3.319,0,0,1-3.2474,2.20134,3.37609,3.37609,0,0,1-3.44554-1.90122,6.96353,6.96353,0,0,1,.00314-6.22963A3.30927,3.30927,0,0,1,64.18843,243.81918Z" transform="translate(-0.24 -0.23999)"/><path class="cls-1" d="M386.87039,140.12978c.12.0005.24-.00164.35991.00081,3.83054.0782,5.839,2.70959,4.932,6.43087a4.55706,4.55706,0,0,1-2.37923,3.00336,6.50279,6.50279,0,0,1-8.67868-2.67669,3.81077,3.81077,0,0,1,.1486-3.98124C382.39409,141.0316,384.20707,140.12571,386.87039,140.12978Z" transform="translate(-0.24 -0.23999)"/><path class="cls-1" d="M404.69153,197.46905a5.56334,5.56334,0,0,1,1.0626.11917c1.40654.43286,2.82258.84813,4.19514,1.37421a2.91332,2.91332,0,0,1,2.02456,3.05739,3.02752,3.02752,0,0,1-2.04085,3.07,12.50459,12.50459,0,0,1-3.67488.97383,8.4058,8.4058,0,0,1-5.60687-1.65965,3.41074,3.41074,0,0,1-.288-4.92334A5.99761,5.99761,0,0,1,404.69153,197.46905Z" transform="translate(-0.24 -0.23999)"/><path class="cls-1" d="M406.14645,195.27289a8.36125,8.36125,0,0,1-4.28212-1.15962,3.1375,3.1375,0,0,1-1.58054-2.2805,2.5896,2.5896,0,0,1,1.46086-2.87335,8.753,8.753,0,0,1,7.52059-.26182,3.05729,3.05729,0,0,1,.92573,5.19687A6.06528,6.06528,0,0,1,406.14645,195.27289Z" transform="translate(-0.24 -0.23999)"/><path class="cls-1" d="M523.20914,150.2695a6.35819,6.35819,0,0,1-5.99226-3.815,3.097,3.097,0,0,1,.03392-2.87949,8.19723,8.19723,0,0,1,1.6582-2.151,7.52449,7.52449,0,0,1,7.60407-.5796,4.14779,4.14779,0,0,1,2.14922,3.52316A5.29024,5.29024,0,0,1,523.20914,150.2695Z" transform="translate(-0.24 -0.23999)"/><path class="cls-1" d="M405.41227,84.61931c.54167.11183,1.09652.181,1.6224.34393,1.29143.4,2.59213.78628,3.84662,1.28491a2.82677,2.82677,0,0,1,1.80715,2.84242,2.95977,2.95977,0,0,1-1.81573,3.08845,13.269,13.269,0,0,1-4.124,1.09891,8.603,8.603,0,0,1-5.09657-1.44248,3.47467,3.47467,0,0,1-.5867-5.16144A6.71674,6.71674,0,0,1,405.41227,84.61931Z" transform="translate(-0.24 -0.23999)"/><path class="cls-1" d="M406.59536,82.46092A7.6956,7.6956,0,0,1,402.4108,81.198a3.07161,3.07161,0,0,1-1.4204-2.252,2.58518,2.58518,0,0,1,1.44674-2.77212,8.74549,8.74549,0,0,1,7.62852-.23912,3.06708,3.06708,0,0,1,.69329,5.30162A6.434,6.434,0,0,1,406.59536,82.46092Z" transform="translate(-0.24 -0.23999)"/><path class="cls-1" d="M385.95671,93.08819c-1.90166.01034-3.88808-1.18465-5.06136-3.70407a3.4,3.4,0,0,1,.26845-3.51554,6.92462,6.92462,0,0,1,8.81988-2.25414,4.7764,4.7764,0,0,1,2.30842,5.32819C391.79215,91.57493,389.7665,93.10665,385.95671,93.08819Z" transform="translate(-0.24 -0.23999)"/><path class="cls-1" d="M244.36129,83.02c.23968,0,.48005-.012.71893.00179,3.72323.2145,5.67894,3.27772,4.31617,6.7714-1.042,2.67148-3.47411,3.84635-6.57529,3.21244a5.99659,5.99659,0,0,1-4.51124-3.74872,3.36187,3.36187,0,0,1,.025-2.779,5.64806,5.64806,0,0,1,4.59146-3.40251,14.01635,14.01635,0,0,1,1.43391-.08507Z" transform="translate(-0.24 -0.23999)"/><path class="cls-1" d="M548.29816,201.92036a3.10408,3.10408,0,0,1-2.17945,3.21746,11.82448,11.82448,0,0,1-3.56519.9296,8.42466,8.42466,0,0,1-5.60163-1.68075,3.44731,3.44731,0,0,1,.07184-5.26872,5.58969,5.58969,0,0,1,5.871-1.29338c1.16091.41594,2.36226.72684,3.50285,1.18989A2.904,2.904,0,0,1,548.29816,201.92036Z" transform="translate(-0.24 -0.23999)"/><path class="cls-1" d="M542.10557,195.26093a7.64459,7.64459,0,0,1-4.03688-1.21891,3.05836,3.05836,0,0,1-1.48277-2.93773,2.76956,2.76956,0,0,1,2.03836-2.40578,8.87159,8.87159,0,0,1,6.64306-.12767,3.08794,3.08794,0,0,1,2.28159,2.65073,3.19673,3.19673,0,0,1-1.51723,3.06126A6.94507,6.94507,0,0,1,542.10557,195.26093Z" transform="translate(-0.24 -0.23999)"/><path class="cls-1" d="M385.9067,248.56717a14.0958,14.0958,0,0,1,1.78359.18826,4.26769,4.26769,0,0,1,3.63018,3.66507c.31213,2.14189-.131,4.07639-2.0826,5.37173a6.48176,6.48176,0,0,1-9.19925-2.63288,3.69406,3.69406,0,0,1,.12882-3.55975C381.438,249.36876,383.452,248.57247,385.9067,248.56717Z" transform="translate(-0.24 -0.23999)"/><path class="cls-1" d="M262.6928,250.39978a24.02315,24.02315,0,0,1-2.454-.45856,3.76834,3.76834,0,0,1-2.92392-3.26988,4.37289,4.37289,0,0,1,1.89721-4.69528,7.41949,7.41949,0,0,1,7.81339.401c2.73741,2.31325,2.60279,5.13956-.53224,7.00237A7.594,7.594,0,0,1,262.6928,250.39978Z" transform="translate(-0.24 -0.23999)"/><path class="cls-1" d="M541.66986,250.23073a13.23624,13.23624,0,0,1,1.51524.28222c1.29386.39357,2.58744.796,3.85553,1.26416a2.89431,2.89431,0,0,1,1.96833,2.97768,3.01537,3.01537,0,0,1-1.97818,3.11293,13.13514,13.13514,0,0,1-3.909,1.00629,8.45034,8.45034,0,0,1-5.29406-1.55255,3.4609,3.4609,0,0,1-.40272-5.09631A6.71882,6.71882,0,0,1,541.66986,250.23073Z" transform="translate(-0.24 -0.23999)"/><path class="cls-1" d="M543.07453,248.07252a7.9836,7.9836,0,0,1-4.43473-1.34127,3.05618,3.05618,0,0,1-1.3265-2.18064,2.57706,2.57706,0,0,1,1.43965-2.774,8.74936,8.74936,0,0,1,7.62691-.24385,3.06217,3.06217,0,0,1,.70184,5.29651A6.31308,6.31308,0,0,1,543.07453,248.07252Z" transform="translate(-0.24 -0.23999)"/><path class="cls-1" d="M523.15916,248.61012c.12,0,.24-.00194.35994.00026,3.88688.07061,5.918,2.75584,4.94438,6.51826a4.588,4.588,0,0,1-2.43557,2.9642,6.50634,6.50634,0,0,1-8.64287-2.80579,3.72382,3.72382,0,0,1,.11267-3.76969A5.90962,5.90962,0,0,1,523.15916,248.61012Z" transform="translate(-0.24 -0.23999)"/></g></g></svg>