<svg xmlns="http://www.w3.org/2000/svg" viewBox="0 0 754.52936 224.74614"><defs><style>.cls-1{fill:#fff;}</style></defs><title>Ресурс 1</title><g id="Слой_2" data-name="Слой 2"><g id="Слой_1-2" data-name="Слой 1"><path d="M.26406,224.64852V.20651H754.48655c.01671.65805.048,1.3161.048,1.97416q.00357,55.6466.00208,111.29318,0,54.81044-.00327,109.62088c-.00007.49007-.04885.98013-.082,1.60406H180.5809q-89.09559,0-178.19118-.00208C1.68116,224.69669.97261,224.66529.26406,224.64852ZM184.68482,55.67539a2.30335,2.30335,0,0,0,.49292.12751q283.73375.01227,567.46745.01288a4.50246,4.50246,0,0,0,.60357-.0578c.04128-.00562.07617-.06.11345-.09266.038-.03331.07536-.06744.08264-.07393V1.24571h-568.76Zm568.759,57.17657H184.68443V167.9613H753.44381Zm-568.76415-1.15583H753.44084V56.89667H184.67966Zm568.76563,57.48345a2.2741,2.2741,0,0,0-.49019-.1275q-283.65753-.01294-567.31511-.0142a7.15458,7.15458,0,0,0-.75579.05877c-.04082.00436-.07693.05916-.11388.09214-.0377.03365-.07371.0692-.08769.0824v54.3161a5.07312,5.07312,0,0,0,.64466.08945q283.96014-.01887,567.92028-.04852c.03794,0,.0764-.059.11352-.09179.0378-.03347.07418-.06851.0842-.07778ZM1.30687,1.24721V55.74067H183.52665V1.24721ZM183.55413,112.87729H1.33086v55.059H183.55413ZM1.30227,111.57543c.16158.08182.24777.16371.334.16374q90.46728.02486,180.93456.0364a7.1647,7.1647,0,0,0,.75577-.05858c.04086-.00435.07724-.05867.114-.09175.03761-.03381.07314-.06992.09116-.08729V57.019c-.16385-.08324-.25-.16541-.33627-.16544Q92.72816,56.8286,2.26085,56.817a7.19905,7.19905,0,0,0-.75576.05843c-.04086.00433-.07727.0582-.11409.091-.03783.03371-.07364.06968-.08873.08407Zm.00434,112.03278H183.527V169.11393H1.30661Z" transform="translate(-0.26406 -0.20651)"/><path class="cls-1" d="M.26406,224.64852c.70855.01677,1.4171.04817,2.12566.04819q89.09559.00341,178.19118.00208H754.45136c.03319-.62393.082-1.114.082-1.60406q.00536-54.81045.00327-109.62088,0-55.64659-.00208-111.29318c-.00007-.65806-.03133-1.31611-.048-1.97416.10135.05069.287.09609.29061.15292.02532.40389.01351.81013.01351,1.21563V224.95265H1.63261C.73251,224.95265.73251,224.95265.26406,224.64852Z" transform="translate(-0.26406 -0.20651)"/><path class="cls-1" d="M184.68482,55.67539V1.24571h568.76V55.59139c-.00728.00649-.04463.04062-.08264.07393-.03728.03262-.07217.087-.11345.09266a4.50246,4.50246,0,0,1-.60357.0578Q468.91148,55.814,185.17774,55.8029A2.30335,2.30335,0,0,1,184.68482,55.67539ZM399.9881,24.25018c-1.74458,4.64323-3.11855,9.312-5.15852,13.78814-1.5809-4.58111-3.1618-9.16222-4.73153-13.71092h-3.24017V41.19269h2.12685V27.51337l.16962.00736c1.58643,4.57791,3.17287,9.15581,4.73435,13.66163h2.25793l4.74456-13.70382.24884.04387V41.177h1.97843c.3-2.43369.19382-15.82731-.133-16.92678ZM260.111,28.92231l2.01961-.442a4.14945,4.14945,0,0,0-2.18168-3.83166,7.666,7.666,0,0,0-7.95775.01285,4.15527,4.15527,0,0,0-2.05331,3.98178,4.01627,4.01627,0,0,0,2.46869,3.86478,24.3745,24.3745,0,0,0,3.042.90069c.9726.26937,1.97449.45225,2.92077.79215a2.397,2.397,0,0,1,1.58643,2.36378,2.62917,2.62917,0,0,1-1.35178,2.53659,4.79633,4.79633,0,0,1-6.80767-2.35725c-.12145-.31791-.26094-.62892-.40717-.97932-.43243.06038-.78151.08626-1.11908.16281-.326.07392-.64017.2001-.97943.30974a4.98086,4.98086,0,0,0,2.36146,4.12784,8.07552,8.07552,0,0,0,8.38834.22612,4.43468,4.43468,0,0,0,2.29448-4.47539,4.175,4.175,0,0,0-2.90707-3.89316,26.54959,26.54959,0,0,0-2.62872-.72655c-.92873-.24286-1.88665-.40105-2.78536-.72508a2.44061,2.44061,0,0,1-1.66819-2.46829,2.511,2.511,0,0,1,1.63879-2.49321,4.14417,4.14417,0,0,1,5.81353,2.37376C259.86971,28.3682,259.95233,28.54893,260.111,28.92231ZM670.8758,41.19776c-2.02713-3.00263-3.94267-5.83989-5.90194-8.742,1.75331-2.71009,3.47023-5.36391,5.289-8.17524h-2.50975c-1.35451,2.111-2.68289,4.18122-4.11032,6.40585-1.464-2.27042-2.82516-4.38145-4.13245-6.40887h-2.65409c1.83387,2.7557,3.56237,5.3531,5.31879,7.99245-1.95013,2.96957-3.85862,5.87572-5.86452,8.93017h2.55965c1.54452-2.39264,3.04478-4.71685,4.646-7.19752,1.63977,2.51852,3.17613,4.87821,4.68471,7.19517ZM677.71194,24.334H675.487V41.19973h9.97455V39.34858h-7.74962Zm-155.148-.06846a158.91152,158.91152,0,0,0,.09155,16.91673h9.81027V39.43154c-2.61351-.18187-5.129.06712-7.7658-.16649,0-2.63153.012-5.10525-.00341-7.57879-.0153-2.456.07179-4.91663-.06107-7.42071Z" transform="translate(-0.26406 -0.20651)"/><path class="cls-1" d="M753.44381,112.852V167.9613H184.68443V112.852ZM273.4796,138.42022c.36289-.2991.68424-.53641.97423-.80726a4.24285,4.24285,0,0,0-1.33617-7.09614,6.83774,6.83774,0,0,0-5.32509.06431,4.26715,4.26715,0,0,0-1.04518,7.321c.25089.20811.50525.412.82993.67648-.43389.26909-.73042.453-1.027.63689-2.51133,1.55726-3.18,6.47834.79861,8.15835a8.20655,8.20655,0,0,0,6.49946.04214,4.35981,4.35981,0,0,0,2.871-4.10154,4.43231,4.43231,0,0,0-2.37367-4.41357C274.08122,138.75786,273.81971,138.60918,273.4796,138.42022Zm127.28269,5.06365c.34344,2.20152,1.29586,3.52685,2.93668,4.13676,2.61366.97152,6.288.43155,7.53229-3.33113a16.51021,16.51021,0,0,0,.04351-10.59769,5.12127,5.12127,0,0,0-5.50556-3.64783,5.39786,5.39786,0,0,0-5.30551,5.5381c-.08624,3.17578,1.67238,5.33756,4.68033,5.71191a5.05429,5.05429,0,0,0,3.85543-1.03468c.24461-.18961.503-.36142.86971-.62332a9.80468,9.80468,0,0,1-.94039,4.88851,3.12245,3.12245,0,0,1-3.18092,1.63023,2.79928,2.79928,0,0,1-2.63334-1.9461c-.14322-.36012-.28726-.71992-.46657-1.16917ZM548.949,139.02644a13.64924,13.64924,0,0,0-1.20828-5.76758,5.50963,5.50963,0,0,0-5.26489-3.20312,5.28852,5.28852,0,0,0-5.18852,3.28464,14.81109,14.81109,0,0,0-1.06276,3.92,12.94207,12.94207,0,0,0,1.07278,7.548,5.45386,5.45386,0,0,0,5.25268,3.21325,5.5156,5.5156,0,0,0,5.21833-3.27568A14.12036,14.12036,0,0,0,548.949,139.02644Zm126.00993-6.48h7.40978V130.746h-9.073c-.32959,3.24212-.65012,6.39455-.9835,9.67309.75749.10718,1.37813.195,1.98511.28087.21926-.43012.36486-.74938.53927-1.052a3.15982,3.15982,0,0,1,3.32878-1.626,3.017,3.017,0,0,1,2.7342,2.28019,5.69292,5.69292,0,0,1,.00141,3.58339,3.0634,3.0634,0,0,1-2.92368,2.254,3.16872,3.16872,0,0,1-3.25-1.78328c-.20366-.39039-.38364-.79309-.59874-1.24052l-1.96328.31706a5.01975,5.01975,0,0,0,4.6735,4.53854,5.53328,5.53328,0,0,0,5.9609-3.22536,7.10111,7.10111,0,0,0-.14382-5.89938,4.8513,4.8513,0,0,0-7.22691-1.791c-.29306.21523-.56763.45575-1.03324.832C674.59105,136.0342,674.75989,134.43328,674.95888,132.54647ZM385.35814,142.72538c.2122,2.65462,1.41087,4.25775,3.56875,4.95654,2.56681.83119,5.48686.19032,6.85077-1.55331a5.065,5.065,0,0,0,.77664-1.46418c.90586-2.65377.00148-4.6342-2.765-6.0396.35094-.24686.69222-.451.99229-.7039a4.62028,4.62028,0,0,0,.22717-6.53988c-2.05253-1.98342-6.4793-1.72955-8.26513.48791a4.92784,4.92784,0,0,0-1.08789,3.58183l1.85856.423c.10287-.5143.1727-.90447.25961-1.29079a3.06857,3.06857,0,0,1,3.483-2.65961,2.67029,2.67029,0,0,1,2.81175,2.75138,2.78092,2.78092,0,0,1-2.49155,3.2327c-.483.07294-.97318.09846-1.55882.1553l.14134,1.57325a22.3706,22.3706,0,0,1,2.24137.274,3.20119,3.20119,0,0,1-.41972,6.22854c-2.4237.27176-3.84853-.691-4.50644-3.04056-.05135-.1833-.12756-.35964-.22468-.62939Zm-135.92753.032c.17573,2.63527,1.441,4.29263,3.6798,4.96114,2.64107.78863,5.481.08667,6.81716-1.68506,1.97217-2.615,1.08043-5.8624-2.09561-7.3909.35268-.25036.68972-.457.98981-.7079A4.575,4.575,0,0,0,258.7362,131.1a6.37807,6.37807,0,0,0-7.61567.41564,4.8826,4.8826,0,0,0-1.41407,3.91067c.38573.09929.71827.19476,1.05556.26835.23939.05223.48523.07493.71618.109,1.13574-3.38246,1.92174-4.112,4.11931-3.86837a2.54093,2.54093,0,0,1,2.49063,2.56807,4.70108,4.70108,0,0,1-.53075,2.30064c-.71668,1.24823-2.17758,1.04122-3.47037,1.30392.04276.55473.07924,1.0277.11807,1.53158.8389.09523,1.55053.11437,2.2328.26584a3.202,3.202,0,0,1-.37868,6.2319c-2.422.28313-3.86876-.68367-4.52257-3.01942-.05155-.18416-.11889-.36388-.21481-.65438Zm280.70689-1.22256c-.18351-3.69352.06875-7.26708-.14665-10.83917h-2.37253q-3.5548,5.29191-7.11075,10.58677a1.90792,1.90792,0,0,0-.03723,2.02811H527.981V147.6h2.14823v-4.22352l2.552-.20922v-1.51269Zm126.25984,1.81319h7.55011v4.29035H665.993v-4.2266l2.66834-.26707v-1.47837l-2.69381-.153V130.7208h-2.4231q-3.52461,5.24464-7.04106,10.47037A2.11622,2.11622,0,0,0,656.39734,143.34806Z" transform="translate(-0.26406 -0.20651)"/><path class="cls-1" d="M184.67966,111.69613V56.89667H753.44084v54.79946ZM409.378,85.214c.42121-.33563.70807-.53851.96571-.77347a4.23778,4.23778,0,0,0-1.21927-7.11376,6.75918,6.75918,0,0,0-5.60094.12849,4.26094,4.26094,0,0,0-.88778,7.18078c.25741.2172.52824.41852.8932.70637-.39767.251-.69051.42763-.975.61684a4.59922,4.59922,0,0,0-2.05531,4.4538,4.23146,4.23146,0,0,0,2.86956,3.77195,8.30165,8.30165,0,0,0,6.07794.14468,4.66069,4.66069,0,0,0,3.05147-5.82236A4.85661,4.85661,0,0,0,409.378,85.214Zm126.9655,5.05516a4.74644,4.74644,0,0,0,2.9767,4.11318c2.53117.99962,6.27593.49949,7.52966-3.29727a19.58209,19.58209,0,0,0,.78621-4.00395,15.13117,15.13117,0,0,0-.6493-6.45191,5.04712,5.04712,0,0,0-3.45623-3.54045,5.61634,5.61634,0,0,0-7.28827,6.75791,5.23259,5.23259,0,0,0,8.49507,3.10813c.21161-.16375.434-.31351.76817-.55372a10.10144,10.10144,0,0,1-.85571,4.74749,3.14081,3.14081,0,0,1-3.24043,1.78658,2.86008,2.86008,0,0,1-2.70892-2.06637c-.1214-.3172-.24617-.63309-.40684-1.04577ZM668.168,81.13744c-.782-3.44895-3.28787-4.96135-6.41181-4.09232-2.25633.62767-3.38209,2.31929-3.97623,4.39938a16.39579,16.39579,0,0,0-.07313,8.98986,8.10276,8.10276,0,0,0,.755,1.81014A4.93946,4.93946,0,0,0,663.436,94.785a4.86992,4.86992,0,0,0,4.43583-3.17108,7.20085,7.20085,0,0,0,.03475-5.61721,4.7394,4.7394,0,0,0-5.655-2.92867,4.9907,4.9907,0,0,0-2.8694,1.96218,8.49276,8.49276,0,0,1,1.122-4.8611,3.06869,3.06869,0,0,1,2.9689-1.46531,2.57055,2.57055,0,0,1,2.32435,1.87868c.11085.27534.23841.54395.41609.94653ZM250.87209,77.49121c-.33324,3.2934-.65233,6.44681-.98309,9.71556l2.00162.26434c.17106-.35258.27022-.58163.38984-.79944a3.24016,3.24016,0,0,1,3.63639-1.85479,3.07349,3.07349,0,0,1,2.67011,2.72876,8.06706,8.06706,0,0,1-.05175,2.84975,3.0065,3.0065,0,0,1-2.85764,2.51577,3.25556,3.25556,0,0,1-3.45655-1.93447c-.1547-.31451-.28385-.64156-.4719-1.07026l-2.06086.31432a4.59587,4.59587,0,0,0,1.383,2.952,5.72159,5.72159,0,0,0,5.77112,1.374,5.1115,5.1115,0,0,0,3.83616-3.90463,7.46454,7.46454,0,0,0-.16112-4.342,4.864,4.864,0,0,0-7.77-2.261c-.19572.15885-.38984.31968-.78685.64548.20864-1.92841.386-3.56751.58141-5.3741h7.39205V77.49121Zm15.20462.01661c-.32911,3.27623-.64957,6.46618-.97563,9.712l1.96629.2647c.16854-.328.27707-.55.39494-.76686a3.23766,3.23766,0,0,1,3.60891-1.90758,3.10545,3.10545,0,0,1,2.74259,2.83254,7.9553,7.9553,0,0,1-.10593,2.84574,2.98931,2.98931,0,0,1-2.92367,2.43277A3.24342,3.24342,0,0,1,267.45,91.02319c-.17638-.35007-.33555-.70882-.53116-1.12415l-1.9508.30483a4.96121,4.96121,0,0,0,4.62585,4.54259,5.53687,5.53687,0,0,0,5.976-3.19788,7.09038,7.09038,0,0,0-.12262-5.89911,4.84783,4.84783,0,0,0-7.21556-1.83013c-.30151.21891-.57576.47536-1.06354.88183.20495-1.90487.38138-3.54479.57628-5.35624h7.41576V77.50782Zm119.55941,12.74a5.221,5.221,0,0,0,5.1,4.54382,5.48926,5.48926,0,0,0,5.67154-3.47876,7.3357,7.3357,0,0,0-.13635-5.48534,4.4246,4.4246,0,0,0-3.36086-2.78237,5.08569,5.08569,0,0,0-5.01156,1.72963c.2125-1.97726.39308-3.65738.57209-5.32313,2.611-.263,5.03628.08731,7.52323-.2345l-.0898-1.67608a44.55245,44.55245,0,0,0-9.1159.15024q-.46955,4.70043-.94519,9.46194a4.82972,4.82972,0,0,0,2.0346.24381c.12782-.27323.20452-.45915.29889-.63565a3.27308,3.27308,0,0,1,3.73336-1.938,3.1749,3.1749,0,0,1,2.66693,2.91937,7.70828,7.70828,0,0,1-.06281,2.5574,3.0855,3.0855,0,0,1-2.945,2.616,3.26118,3.26118,0,0,1-3.42905-1.98533c-.15121-.311-.28712-.6293-.447-.9816-.34314.02173-.64381.02108-.938.06455C386.41313,90.06442,386.07671,90.15364,385.63612,90.24781Zm135.61019-.04024c.68386,2.91937,2.42744,4.4136,5.14316,4.58584a5.49386,5.49386,0,0,0,5.66215-3.4948,7.23,7.23,0,0,0-.0953-5.34248,4.59589,4.59589,0,0,0-5.6656-2.8562,15.66944,15.66944,0,0,0-2.6633,1.31226,30.717,30.717,0,0,1,.57164-5.01839c2.53878-.12245,4.95446.05712,7.3603-.11059.02977-.50739.06355-.80833.05913-1.10871a4.63239,4.63239,0,0,0-.11118-.65617h-9.05539c-.32766,3.24456-.65,6.43638-.97871,9.69179l1.98478.28778c.15-.31065.24847-.53564.36433-.75128a3.27648,3.27648,0,0,1,3.7425-1.92166,3.18271,3.18271,0,0,1,2.653,2.9344,7.69288,7.69288,0,0,1-.07147,2.55659,3.0795,3.0795,0,0,1-2.9558,2.60207,3.269,3.269,0,0,1-3.41981-2.00295c-.14979-.30981-.2876-.62541-.46476-1.01222ZM676.1695,77.46285c-1.12226,2.07357-1.25732,2.17088-3.94846,2.86377v1.56615c1.26965.4116,2.29962-.23483,3.4559-.57264.0444,4.44878-.0271,8.77444.04165,13.05676h2.06515c.30123-3.59479.16609-15.81133-.18488-16.914Z" transform="translate(-0.26406 -0.20651)"/><path class="cls-1" d="M753.44529,169.17958v54.27907c-.01.00927-.0464.04431-.0842.07778-.03712.03278-.07558.09179-.11352.09179q-283.96014.02985-567.92028.04852a5.07312,5.07312,0,0,1-.64466-.08945v-54.3161c.014-.0132.05-.04875.08769-.0824.03695-.033.07306-.08778.11388-.09214a7.15458,7.15458,0,0,1,.75579-.05877q283.65753.0024,567.31511.0142A2.2741,2.2741,0,0,1,753.44529,169.17958ZM264.76923,196.72111a4.6914,4.6914,0,0,0,3.19,4.18613c2.64075.90556,6.1468.25738,7.35167-3.45339a16.77478,16.77478,0,0,0,.00844-10.60015,4.88591,4.88591,0,0,0-2.45818-2.96494c-2.80383-1.42017-7.69443-.64437-8.30615,4.36731a5.555,5.555,0,0,0,2.537,5.61512,5.44944,5.44944,0,0,0,6.24091-.62565,5.79689,5.79689,0,0,1,.49495-.36865,9.29492,9.29492,0,0,1-.72152,4.65667,3.202,3.202,0,0,1-3.36135,1.84006,2.87567,2.87567,0,0,1-2.65533-2.13953c-.10138-.27665-.197-.55541-.34108-.96276Zm131.78135-9.2027c-.648-3.22563-3.03465-4.79612-6.04516-4.11973a5.20667,5.20667,0,0,0-3.73381,3.04723,15.10366,15.10366,0,0,0-1.08726,8.16387,9.99608,9.99608,0,0,0,1.1634,4.05105,5.01438,5.01438,0,0,0,4.96786,2.57036,4.87153,4.87153,0,0,0,4.45962-3.13789,7.19446,7.19446,0,0,0,.01088-5.75792,4.57448,4.57448,0,0,0-5.56248-2.78885,16.61069,16.61069,0,0,0-2.95713,1.51994,8.25456,8.25456,0,0,1,1.22258-4.548,2.91131,2.91131,0,0,1,5.21076.472c.14259.30928.29725.613.45462.93626a8.10251,8.10251,0,0,0,.96226-.08767A8.3068,8.3068,0,0,0,396.55058,187.51841Zm135.65411.06081c-.67166-3.29188-3.05793-4.85682-6.06559-4.18045-2.41475.543-3.65889,2.255-4.29275,4.45593a16.37693,16.37693,0,0,0-.0907,8.98916,8.236,8.236,0,0,0,.74639,1.81376,5.30881,5.30881,0,0,0,9.47114-.70987,7.20939,7.20939,0,0,0-.05116-5.61738,4.57575,4.57575,0,0,0-5.56611-2.78187,16.55445,16.55445,0,0,0-2.95138,1.519,8.64461,8.64461,0,0,1,1.13737-4.42913,3.0902,3.0902,0,0,1,2.95532-1.49381,2.56136,2.56136,0,0,1,2.34525,1.84894c.129.3139.29543.61244.48276.99582Zm127.15316,3.47964a8.546,8.546,0,0,1,1.25354-4.62453c1.03547-1.56445,4.214-2.09346,5.14787.50157.11672.32454.28341.63113.47683,1.05533l1.95526-.44607c-.4302-2.14587-1.44458-3.54481-3.499-4.08237a5.29384,5.29384,0,0,0-6.25068,2.7939,14.33159,14.33159,0,0,0-1.24025,7.692,10.54726,10.54726,0,0,0,1.27551,4.79313,5.00024,5.00024,0,0,0,4.86217,2.49273,4.87078,4.87078,0,0,0,4.494-3.08844,7.17544,7.17544,0,0,0,.054-5.75686,4.58231,4.58231,0,0,0-5.67414-2.81779A16.12031,16.12031,0,0,0,659.35785,191.05886Zm23.94753-3.49846a4.68559,4.68559,0,0,0-5.67051-4.23263c-2.63805.44287-3.989,2.23434-4.66838,4.62279a15.39844,15.39844,0,0,0-.37042,7.3587,13.241,13.241,0,0,0,1.126,3.424,4.76814,4.76814,0,0,0,4.834,2.501,4.86966,4.86966,0,0,0,4.48713-3.09793,7.16708,7.16708,0,0,0,.04589-5.75632,4.58349,4.58349,0,0,0-5.68031-2.80712,16.11668,16.11668,0,0,0-2.85137,1.49411,9.06145,9.06145,0,0,1,1.178-4.51868c1.00584-1.66671,4.28911-2.25309,5.23548.39811.11576.32435.28682.629.48195,1.04987C682.09854,187.84429,682.7082,187.70086,683.30538,187.5604Zm-146.85531,9.09736c.70677,2.93532,2.446,4.41608,5.16194,4.57946a5.49038,5.49038,0,0,0,5.65243-3.51045,7.25258,7.25258,0,0,0-.10684-5.343,4.60313,4.60313,0,0,0-5.67563-2.838,16.23852,16.23852,0,0,0-2.70336,1.33661c.17467-1.62831.35061-3.26857.541-5.04337,2.55589-.1288,5.01486.056,7.49936-.11494,0-.5701.012-.92259-.00594-1.27355a2.43124,2.43124,0,0,0-.1485-.49438h-9.00716c-.32822,3.261-.64949,6.45333-.97637,9.701.781.10959,1.36881.19208,1.97293.27687.16-.31975.26414-.543.38116-.75923a3.276,3.276,0,0,1,3.751-1.90525,3.17331,3.17331,0,0,1,2.63753,2.94743,7.82623,7.82623,0,0,1-.12652,2.69874,3.0052,3.0052,0,0,1-2.915,2.44612,3.239,3.239,0,0,1-3.3433-1.8809c-.178-.3509-.335-.71241-.53318-1.13645C537.82,196.44891,537.18869,196.54516,536.45007,196.65776ZM250.86669,183.93984c-.33267,3.32089-.64871,6.476-.97433,9.72648l2.015.23749c.1528-.33013.22811-.51627.3222-.69239a3.27341,3.27341,0,0,1,3.72888-1.94678,3.22994,3.22994,0,0,1,2.70066,3.0611,7.55606,7.55606,0,0,1-.08262,2.40855,3.10137,3.10137,0,0,1-2.941,2.62363,3.26043,3.26043,0,0,1-3.43368-1.97665c-.152-.31147-.28663-.63139-.47066-1.03911l-2.05132.33061c.64515,2.90734,2.49581,4.46745,5.25518,4.57273a5.50625,5.50625,0,0,0,5.63626-3.76295,7.43157,7.43157,0,0,0-.12548-4.92055,4.63173,4.63173,0,0,0-5.85756-2.9893,15.94989,15.94989,0,0,0-2.59474,1.31149c.17528-1.64282.35435-3.321.53281-4.9934,2.60772-.23906,5.0303.06211,7.52364-.208l-.08847-1.743Zm152.954,15.10853-.08672-.27785c.3741-.30435.74078-.61838,1.12353-.91138a23.17332,23.17332,0,0,0,4.79148-4.619,7.70789,7.70789,0,0,0,1.5329-5.86242,4.32787,4.32787,0,0,0-2.92361-3.73879,6.846,6.846,0,0,0-4.62219.00707,4.55945,4.55945,0,0,0-2.764,6.06744l1.77676.16755c0-.56734-.00386-.96193.00063-1.35645.02391-2.09893,1.13987-3.29788,3.102-3.33565,2.02294-.03891,3.16188,1.17975,3.23071,3.36353a6.59263,6.59263,0,0,1-2.30063,5.09868c-1.71848,1.63889-3.51463,3.20392-5.35922,4.69968a1.895,1.895,0,0,0-.78162,2.43837c1.88981.30884,9.81465.2298,10.91958-.12238-.022-.47151-.04495-.96107-.07573-1.61836Z" transform="translate(-0.26406 -0.20651)"/><path class="cls-1" d="M1.30687,1.24721H183.52665V55.74067H1.30687Zm40.70019,36.6477c2.15241,4.58753,9.78139,4.94872,12.80857,2.33543,2.23386-1.92843,2.55614-6.95381-1.38473-8.40123-.756-.27766-1.54974-.45541-2.33087-.661-.977-.25717-1.98121-.43109-2.93276-.75952a1.65529,1.65529,0,0,1-1.33046-1.79267,1.76246,1.76246,0,0,1,1.6373-1.5389,4.91581,4.91581,0,0,1,4.59853,1.38131c.30431.31272.5867.64676.93384,1.0316l2.43575-2.10842a4.48975,4.48975,0,0,0-2.21556-2.38527,9.4677,9.4677,0,0,0-8.07462-.4291A4.52559,4.52559,0,0,0,43.07814,29.162a4.61835,4.61835,0,0,0,3.165,4.54165,17.80755,17.80755,0,0,0,2.18448.61915c.83362.20968,1.68934.34155,2.50959.592,1.168.3566,1.64278.977,1.59857,1.92126-.04246.90717-.60092,1.51689-1.78425,1.77062a4.89991,4.89991,0,0,1-5.051-1.6721c-.28412-.32949-.5475-.67685-.86078-1.0661Zm47.51459-3.56323c2.47542-.09788,4.7872.04453,7.05239-.08859V31.20794h-7.0247V27.58449h7.38778v-2.975h-11.439v16.9693c3.9728.02183,7.83595.03305,11.67733-.00215V38.54821c-2.62664-.15217-5.14084.07944-7.65382-.14033ZM73.19038,38.4706c.4239-.64973.62422-.99373.85963-1.31175,2.01666-2.72436,3.96155-5.50727,6.09278-8.13917a5.07917,5.07917,0,0,0,.96226-4.42272H68.757v3.09438h7.75254c-.4714.66708-.75011,1.081-1.0483,1.48032-2.05856,2.75686-4.06176,5.55815-6.208,8.24509a4.59318,4.59318,0,0,0-.74157,4.07221H81.465V38.4706Zm-8.826,3.05645c.30381-2.42651.1975-15.83235-.11323-16.89974H60.575c-.27824,2.48118-.17754,15.77759.12514,16.89974Z" transform="translate(-0.26406 -0.20651)"/><path class="cls-1" d="M183.55413,112.87729v55.059H1.33086V112.87729ZM62.73655,131.0261a159.59726,159.59726,0,0,0,.08088,16.88609h3.87293V141.165H73.2846v6.76266h3.83812c.32-2.20645.21712-15.81432-.10323-16.8472H73.29476c-.21127,2.32051.11073,4.54054-.1884,6.71355H66.6111V131.0261Zm48.42581,2.822a3.75761,3.75761,0,0,0-1.86777-2.21115,9.2656,9.2656,0,0,0-8.7374-.46,4.41578,4.41578,0,0,0-2.73708,4.50086,4.58412,4.58412,0,0,0,2.9512,4.38249,15.58563,15.58563,0,0,0,2.32.693c.83223.21419,1.689.33949,2.5118.58222,1.21055.35708,1.681.92446,1.674,1.86435-.00721.96611-.60294,1.62169-1.85306,1.87079a4.91928,4.91928,0,0,1-4.93181-1.63216c-.29463-.33243-.5537-.69639-.90231-1.13866l-2.866,2.068c.23292.402.36331.67348.53474.916,2.62156,3.70785,9.27394,3.76365,12.122,1.53753,2.48856-1.94512,2.74809-7.17059-1.27658-8.57476-.7608-.26544-1.55371-.44012-2.33432-.64719-.9762-.25894-1.97925-.44042-2.926-.78a1.61749,1.61749,0,0,1-1.25877-1.83279,1.743,1.743,0,0,1,1.55456-1.45052,4.91885,4.91885,0,0,1,4.61946,1.3101c.31814.31648.59738.67207.964,1.08864ZM54.633,141.5298c-.209.55822-.33149.93925-.49155,1.30377a3.4005,3.4005,0,0,1-4.78219,1.814,3.96671,3.96671,0,0,1-2.1068-2.474,8.74672,8.74672,0,0,1,.05032-5.81132,4.753,4.753,0,0,1,1.02952-1.6556,3.519,3.519,0,0,1,5.75847,1.13876c.16876.41045.30529.83415.50276,1.37873l3.81963-.70771a5.98135,5.98135,0,0,0-2.4411-4.69123,9.02905,9.02905,0,0,0-10.94173.84189c-2.98706,2.91018-2.99425,9.15864-.95994,12.33707,2.65947,4.15515,9.826,4.22033,12.62578,1.14171A5.81323,5.81323,0,0,0,58.498,142.3614ZM82.427,147.95H94.164v-3.03484H86.50289v-4.19433H93.5655v-3.01149H86.5311v-3.66057c1.33872,0,2.55061.00331,3.76247-.00094,1.19461-.00419,2.38919-.016,3.57715-.02445v-2.95556a70.11892,70.11892,0,0,0-11.44376.13994Zm35.81168-.03568h4.098v-13.686l4.74087-.16654v-3.01924H113.46825v3.15789h4.77039Z" transform="translate(-0.26406 -0.20651)"/><path class="cls-1" d="M1.30227,111.57543V57.0505c.01509-.01439.0509-.05036.08873-.08407.03682-.03282.07323-.08669.11409-.091a7.19905,7.19905,0,0,1,.75576-.05843q90.46731.01311,180.93462.03656c.08624,0,.17242.0822.33627.16544v54.519c-.018.01737-.05355.05348-.09116.08729-.03677.03308-.07315.0874-.114.09175a7.1647,7.1647,0,0,1-.75577.05858q-90.46728-.013-180.93456-.0364C1.55,111.73914,1.46385,111.65725,1.30227,111.57543Zm84.388-33.77111v11.4535c-2.28682-4.04618-4.39463-7.77566-6.46063-11.43114H74.88753a154.82807,154.82807,0,0,0,.05729,16.87355h3.53774V83.31948l6.60189,11.40923h4.25107V77.80432Zm19.68027,5.45949,3.85579-.7806a5.6216,5.6216,0,0,0-2.32853-3.88417c-2.913-2.18122-8.02053-1.82959-10.74627.58772-3.45364,3.06284-3.4884,9.98147-.9886,13.16193a7.08757,7.08757,0,0,0,10.77024.55325c.07784-.08085.22784-.09226.35718-.14095l.25211,1.95823h2.73782V85.425h-7.67091v2.85281h3.91232a3.09525,3.09525,0,0,1,.0833.73461,3.33453,3.33453,0,0,1-2.78841,2.83681,3.80762,3.80762,0,0,1-4.07333-1.372c-1.64649-2.08561-1.52514-6.841.19024-8.89237.06484-.07754.13781-.14822.205-.22389,1.51383-1.7054,4.951-1.62916,5.87978,1.01554C105.10079,82.61161,105.20166,82.84029,105.37052,83.26381Zm38.12823-5.41322h-3.93644c-.10957,2.31529.04566,4.5267-.09509,6.73042h-6.5404V77.7291h-3.93526v16.97h3.98031v-6.764h6.59407v6.77921h3.93281ZM58.69758,94.66888a79.045,79.045,0,0,0,11.71313-.08425v-2.824c-2.62948-.12154-5.14116.05881-7.59883-.10672v-4.0928c2.42626-.1188,4.7388.048,6.99723-.099V84.55437c-2.41047-.17242-4.72383.06408-7.01979-.14359V80.80169h7.38276V77.83286H58.69758ZM125.3851,77.73083c-4.67339.01208-9.22988-.03854-13.75554.03207v3.19039h4.80653V94.70707h4.04419V81.02122l4.78677-.18645c.05-.50666.1033-.85128.11363-1.19718C125.39718,79.08558,125.3851,78.53271,125.3851,77.73083Zm-81.5059.073a158.32056,158.32056,0,0,0,.0885,16.90664c2.56881.2787,9.65571.16869,10.68067-.164v-3.048H47.768V77.80385Z" transform="translate(-0.26406 -0.20651)"/><path class="cls-1" d="M1.30661,223.60821V169.11393H183.527v54.49428ZM41.984,197.57335c.20288.37268.30438.60173.44232.80619,2.613,3.87273,9.37663,3.88359,12.21036,1.66549,2.48882-1.94813,2.75263-7.16706-1.2722-8.57621-.76049-.26627-1.55345-.4412-2.33407-.64828-.97617-.25894-1.97918-.44022-2.92621-.77912a1.62043,1.62043,0,0,1-1.26134-1.83164,1.73863,1.73863,0,0,1,1.55236-1.452,4.92184,4.92184,0,0,1,4.62076,1.30668c.31837.3162.59618.67327.96215,1.09086l2.439-2.08089a3.88955,3.88955,0,0,0-1.9921-2.29263,9.36544,9.36544,0,0,0-8.1968-.57793,4.52648,4.52648,0,0,0-3.15129,4.5405,4.65524,4.65524,0,0,0,3.23122,4.64863,16.9669,16.9669,0,0,0,2.03838.58133c.83408.20748,1.68891.33946,2.5119.58177,1.21122.35656,1.68214.922,1.67706,1.86161-.00522.96563-.60077,1.62285-1.84987,1.87333a4.91982,4.91982,0,0,1-4.93275-1.62836c-.2952-.33213-.55383-.69675-.89137-1.12524Zm53.623-3.57486c2.48026-.09984,4.79122.03755,7.04622-.08409v-2.92281c-2.41244-.15662-4.72433.05723-7.0185-.12952v-3.61925h7.38184v-2.96619H91.58385v16.84252a78.57367,78.57367,0,0,0,11.67112-.093v-2.81133c-2.62916-.16531-5.14419.08752-7.648-.14564Zm-20.41215-9.76244a161.88676,161.88676,0,0,0,.09243,16.91191,74.03253,74.03253,0,0,0,11.59178-.14523v-2.83765H79.19747v-4.24776h7.08425v-2.89241c-2.39077-.24363-4.75557.06933-7.06265-.18543v-3.61173h7.36711v-2.9917Zm54.456,3.00339h7.42554v-2.961h-11.541c-.00159,5.6915-.00346,11.27564.001,16.97747,4.08853-.01183,7.95214.04137,11.7786-.029V198.214c-2.63112-.1609-5.14569.08349-7.67322-.14389a28.38888,28.38888,0,0,1,.02145-4.03534c2.48593-.21979,4.80635.11516,7.04987-.198v-2.83549c-2.41258-.19325-4.72873.09368-7.06222-.18678Zm-15.45745,9.90888-3.74054-12.88h-4.33961c1.93492,5.73124,3.82313,11.32418,5.71147,16.91743h4.74368c1.8978-5.62564,3.78445-11.21823,5.71206-16.93217h-4.33562C116.71942,188.46545,115.49431,192.67653,114.19334,197.14832Zm-53.65745,4.01194H71.357v-3.25238h-6.8073c-.1349-4.67361.07631-9.15508-.12422-13.61252H60.53589Z" transform="translate(-0.26406 -0.20651)"/><path d="M399.9881,24.25018h2.99734c.32684,1.09947.43306,14.49309.133,16.92678H401.14V27.52241l-.24884-.04387-4.74456,13.70382H393.8887c-1.56148-4.50582-3.14792-9.08372-4.73435-13.66163l-.16962-.00736V41.19269h-2.12685V24.3274h3.24017c1.56973,4.5487,3.15063,9.12981,4.73153,13.71092C396.86955,33.56218,398.24352,28.89341,399.9881,24.25018Z" transform="translate(-0.26406 -0.20651)"/><path d="M260.111,28.92231c-.15866-.37338-.24128-.55411-.31315-.739a4.14417,4.14417,0,0,0-5.81353-2.37376,2.511,2.511,0,0,0-1.63879,2.49321,2.44061,2.44061,0,0,0,1.66819,2.46829c.89871.324,1.85663.48222,2.78536.72508a26.54959,26.54959,0,0,1,2.62872.72655,4.175,4.175,0,0,1,2.90707,3.89316,4.43468,4.43468,0,0,1-2.29448,4.47539,8.07552,8.07552,0,0,1-8.38834-.22612,4.98086,4.98086,0,0,1-2.36146-4.12784c.33926-.10964.65342-.23582.97943-.30974.33757-.07655.68665-.10243,1.11908-.16281.14623.3504.28572.66141.40717.97932a4.79633,4.79633,0,0,0,6.80767,2.35725,2.62917,2.62917,0,0,0,1.35178-2.53659,2.397,2.397,0,0,0-1.58643-2.36378c-.94628-.3399-1.94817-.52278-2.92077-.79215a24.3745,24.3745,0,0,1-3.042-.90069,4.01627,4.01627,0,0,1-2.46869-3.86478,4.15527,4.15527,0,0,1,2.05331-3.98178,7.666,7.666,0,0,1,7.95775-.01285,4.14945,4.14945,0,0,1,2.18168,3.83166Z" transform="translate(-0.26406 -0.20651)"/><path d="M670.8758,41.19776h-2.67487c-1.50858-2.317-3.04494-4.67665-4.68471-7.19517-1.60125,2.48067-3.10151,4.80488-4.646,7.19752h-2.55965c2.0059-3.05445,3.91439-5.9606,5.86452-8.93017-1.75642-2.63935-3.48492-5.23675-5.31879-7.99245h2.65409c1.30729,2.02742,2.66849,4.13845,4.13245,6.40887,1.42743-2.22463,2.75581-4.29485,4.11032-6.40585h2.50975c-1.81879,2.81133-3.53571,5.46515-5.289,8.17524C666.93313,35.35787,668.84867,38.19513,670.8758,41.19776Z" transform="translate(-0.26406 -0.20651)"/><path d="M677.71194,24.334V39.34858h7.74962v1.85115H675.487V24.334Z" transform="translate(-0.26406 -0.20651)"/><path d="M522.56392,24.26555h2.07154c.13286,2.50408.04577,4.96472.06107,7.42071.01544,2.47354.00341,4.94726.00341,7.57879,2.63679.23361,5.15229-.01538,7.7658.16649v1.75074q-4.914,0-9.81071.00041A159.04475,159.04475,0,0,1,522.56392,24.26555Z" transform="translate(-0.26406 -0.20651)"/><path d="M273.4796,138.42022c.34011.189.60162.33764.86618.48065a4.43231,4.43231,0,0,1,2.37367,4.41357,4.35981,4.35981,0,0,1-2.871,4.10154,8.20655,8.20655,0,0,1-6.49946-.04214c-3.97864-1.68-3.30994-6.60109-.79861-8.15835.29656-.18388.59309-.3678,1.027-.63689-.32468-.26445-.579-.46837-.82993-.67648a4.26715,4.26715,0,0,1,1.04518-7.321,6.83774,6.83774,0,0,1,5.32509-.06431,4.24285,4.24285,0,0,1,1.33617,7.09614C274.16384,137.88381,273.84249,138.12112,273.4796,138.42022Zm-2.571,7.83688a10.011,10.011,0,0,0,1.55476-.27272,2.97522,2.97522,0,0,0,1.8424-4.14644,5.62192,5.62192,0,0,0-4.58087-2.464,3.68079,3.68079,0,0,0-2.97115,3.55772,3.21263,3.21263,0,0,0,3.00976,3.22784C270.063,146.20268,270.3674,146.21221,270.90858,146.2571Zm2.7288-11.81763c-.03065-1.73038-1.28153-2.76468-3.28507-2.71632-1.929.04656-3.08577,1.11463-3.03558,2.80277a3.615,3.615,0,0,0,3.51368,3.10918A3.178,3.178,0,0,0,273.63738,134.43947Z" transform="translate(-0.26406 -0.20651)"/><path d="M400.76229,143.48387l1.88566-.44441c.17931.44925.32335.80905.46657,1.16917a2.79928,2.79928,0,0,0,2.63334,1.9461,3.12245,3.12245,0,0,0,3.18092-1.63023,9.80468,9.80468,0,0,0,.94039-4.88851c-.36671.2619-.6251.43371-.86971.62332A5.05429,5.05429,0,0,1,405.144,141.294c-3.00795-.37435-4.76657-2.53613-4.68033-5.71191a5.39786,5.39786,0,0,1,5.30551-5.5381,5.12127,5.12127,0,0,1,5.50556,3.64783,16.51021,16.51021,0,0,1-.04351,10.59769c-1.24433,3.76268-4.91863,4.30265-7.53229,3.33113C402.05815,147.01072,401.10573,145.68539,400.76229,143.48387Zm1.88584-7.73275c.02012,2.28229,1.39506,3.75316,3.4696,3.71173,1.92541-.03845,3.83954-1.78255,3.68191-3.49485-.19238-2.089-1.291-4.12189-3.80368-4.05234C403.93456,131.97272,402.62775,133.441,402.64813,135.75112Z" transform="translate(-0.26406 -0.20651)"/><path d="M548.949,139.02644a14.12036,14.12036,0,0,1-1.18066,5.7195,5.5156,5.5156,0,0,1-5.21833,3.27568,5.45386,5.45386,0,0,1-5.25268-3.21325,12.94207,12.94207,0,0,1-1.07278-7.548,14.81109,14.81109,0,0,1,1.06276-3.92,5.28852,5.28852,0,0,1,5.18852-3.28464,5.50963,5.50963,0,0,1,5.26489,3.20312A13.64924,13.64924,0,0,1,548.949,139.02644Zm-2.20648.1696a10.496,10.496,0,0,0-1.074-5.41446,3.41038,3.41038,0,0,0-3.237-1.85933,3.31938,3.31938,0,0,0-3.068,1.8741,8.11659,8.11659,0,0,0-.74988,1.97334,14.4585,14.4585,0,0,0,.02458,6.61461,7.55958,7.55958,0,0,0,.93679,2.21705,3.46768,3.46768,0,0,0,3.99064,1.423,3.79806,3.79806,0,0,0,2.412-2.35469A10.69778,10.69778,0,0,0,546.74247,139.196Z" transform="translate(-0.26406 -0.20651)"/><path d="M674.95888,132.54647c-.199,1.88681-.36783,3.48773-.56325,5.34108.46561-.37627.74018-.61679,1.03324-.832a4.8513,4.8513,0,0,1,7.22691,1.791,7.10111,7.10111,0,0,1,.14382,5.89938,5.53328,5.53328,0,0,1-5.9609,3.22536,5.01975,5.01975,0,0,1-4.6735-4.53854l1.96328-.31706c.2151.44743.39508.85013.59874,1.24052a3.16872,3.16872,0,0,0,3.25,1.78328,3.0634,3.0634,0,0,0,2.92368-2.254,5.69292,5.69292,0,0,0-.00141-3.58339,3.017,3.017,0,0,0-2.7342-2.28019,3.15982,3.15982,0,0,0-3.32878,1.626c-.17441.30264-.32.6219-.53927,1.052-.607-.08587-1.22762-.17369-1.98511-.28087.33338-3.27854.65391-6.431.9835-9.67309h9.073v1.80049Z" transform="translate(-0.26406 -0.20651)"/><path d="M385.35814,142.72538l1.892-.25669c.09712.26975.17333.44609.22468.62939.65791,2.34954,2.08274,3.31232,4.50644,3.04056a3.20119,3.20119,0,0,0,.41972-6.22854,22.3706,22.3706,0,0,0-2.24137-.274l-.14134-1.57325c.58564-.05684,1.07579-.08236,1.55882-.1553a2.78092,2.78092,0,0,0,2.49155-3.2327,2.67029,2.67029,0,0,0-2.81175-2.75138,3.06857,3.06857,0,0,0-3.483,2.65961c-.08691.38632-.15674.77649-.25961,1.29079l-1.85856-.423a4.92784,4.92784,0,0,1,1.08789-3.58183c1.78583-2.21746,6.2126-2.47133,8.26513-.48791a4.62028,4.62028,0,0,1-.22717,6.53988c-.30007.25295-.64135.457-.99229.7039,2.7665,1.4054,3.67088,3.38583,2.765,6.0396a5.065,5.065,0,0,1-.77664,1.46418c-1.36391,1.74363-4.284,2.3845-6.85077,1.55331C386.769,146.98313,385.57034,145.38,385.35814,142.72538Z" transform="translate(-0.26406 -0.20651)"/><path d="M249.43061,142.75743l1.89122-.294c.09592.2905.16326.47022.21481.65438.65381,2.33575,2.10056,3.30255,4.52257,3.01942a3.202,3.202,0,0,0,.37868-6.2319c-.68227-.15147-1.3939-.17061-2.2328-.26584-.03883-.50388-.07531-.97685-.11807-1.53158,1.29279-.2627,2.75369-.05569,3.47037-1.30392a4.70108,4.70108,0,0,0,.53075-2.30064,2.54093,2.54093,0,0,0-2.49063-2.56807c-2.19757-.24361-2.98357.48591-4.11931,3.86837-.23095-.0341-.47679-.0568-.71618-.109-.33729-.07359-.66983-.16906-1.05556-.26835a4.8826,4.8826,0,0,1,1.41407-3.91067A6.37807,6.37807,0,0,1,258.7362,131.1a4.575,4.575,0,0,1,.08557,6.83472c-.30009.25086-.63713.45754-.98981.7079,3.176,1.5285,4.06778,4.77586,2.09561,7.3909-1.33617,1.77173-4.17609,2.47369-6.81716,1.68506C250.87157,147.05006,249.60634,145.3927,249.43061,142.75743Z" transform="translate(-0.26406 -0.20651)"/><path d="M530.1375,141.53487l2.54379.11967v1.51269l-2.552.20922V147.6H527.981v-4.28939h-7.51068a1.90792,1.90792,0,0,1,.03723-2.02811q3.55446-5.295,7.11075-10.58677h2.37253C530.20625,134.26779,529.954,137.84135,530.1375,141.53487Zm-7.61872.0647c1.93558-.03309,3.63127.04927,5.34857-.05362v-8.17641C526.01087,136.22612,524.34385,138.79124,522.51878,141.59957Z" transform="translate(-0.26406 -0.20651)"/><path d="M656.39734,143.34806a2.11622,2.11622,0,0,1,.106-2.15689q3.52562-5.22562,7.04106-10.47037h2.4231v10.79257l2.69381.153v1.47837l-2.66834.26707v4.2266h-2.04555v-4.29035Zm7.4152-9.61527-.22349-.03123-5.05818,7.79923h5.28167Z" transform="translate(-0.26406 -0.20651)"/><path d="M409.378,85.214a4.85661,4.85661,0,0,1,3.11959,3.29332,4.66069,4.66069,0,0,1-3.05147,5.82236,8.30165,8.30165,0,0,1-6.07794-.14468,4.23146,4.23146,0,0,1-2.86956-3.77195,4.59922,4.59922,0,0,1,2.05531-4.4538c.28448-.18921.57732-.3658.975-.61684-.365-.28785-.63579-.48917-.8932-.70637a4.26094,4.26094,0,0,1,.88778-7.18078,6.75918,6.75918,0,0,1,5.60094-.12849,4.23778,4.23778,0,0,1,1.21927,7.11376C410.08605,84.67551,409.79919,84.87839,409.378,85.214Zm-2.78075,7.84363a13.90681,13.90681,0,0,0,1.60748-.22448,2.90156,2.90156,0,0,0,2.23851-3.58009c-.47567-2.1901-2.371-2.566-4.12673-3.04423-.93846-.25564-2.53028.66132-3.15315,1.70267a3.26538,3.26538,0,0,0,1.75052,4.83A11.37884,11.37884,0,0,0,406.59723,93.05765Zm-.17742-14.55778c-1.92341-.01215-3.14936,1.0271-3.16121,2.67979a3.5703,3.5703,0,0,0,3.54051,3.23322,3.19255,3.19255,0,0,0,2.78053-3.0699C409.60477,79.575,408.424,78.51254,406.41981,78.49987Z" transform="translate(-0.26406 -0.20651)"/><path d="M536.34348,90.26918l1.95011-.44615c.16067.41268.28544.72857.40684,1.04577a2.86008,2.86008,0,0,0,2.70892,2.06637,3.14081,3.14081,0,0,0,3.24043-1.78658,10.10144,10.10144,0,0,0,.85571-4.74749c-.33415.24021-.55656.39-.76817.55372a5.23259,5.23259,0,0,1-8.49507-3.10813,5.61634,5.61634,0,0,1,7.28827-6.75791,5.04712,5.04712,0,0,1,3.45623,3.54045,15.13117,15.13117,0,0,1,.6493,6.45191,19.58209,19.58209,0,0,1-.78621,4.00395c-1.25373,3.79676-4.99849,4.29689-7.52966,3.29727A4.74644,4.74644,0,0,1,536.34348,90.26918Zm1.94246-7.81422c-.00706,2.29534,1.33473,3.79152,3.39557,3.78631a3.84936,3.84936,0,0,0,3.78207-3.422,3.93038,3.93038,0,0,0-3.7543-4.11877C539.62271,78.69558,538.293,80.15389,538.28594,82.455Z" transform="translate(-0.26406 -0.20651)"/><path d="M668.168,81.13744l-1.95437.39157c-.17768-.40258-.30524-.67119-.41609-.94653a2.57055,2.57055,0,0,0-2.32435-1.87868,3.06869,3.06869,0,0,0-2.9689,1.46531,8.49276,8.49276,0,0,0-1.122,4.8611,4.9907,4.9907,0,0,1,2.8694-1.96218,4.7394,4.7394,0,0,1,5.655,2.92867,7.20085,7.20085,0,0,1-.03475,5.61721A4.86992,4.86992,0,0,1,663.436,94.785a4.93946,4.93946,0,0,1-4.97428-2.54049,8.10276,8.10276,0,0,1-.755-1.81014,16.39579,16.39579,0,0,1,.07313-8.98986c.59414-2.08009,1.7199-3.77171,3.97623-4.39938C664.88009,76.17609,667.386,77.68849,668.168,81.13744Zm-1.83713,7.97971a15.35526,15.35526,0,0,0-.205-1.65625,3.14782,3.14782,0,0,0-2.57939-2.64433,3.34648,3.34648,0,0,0-3.55153,1.77571,4.79839,4.79839,0,0,0,1.34389,5.81638,2.895,2.895,0,0,0,4.36634-1.11736A11.91658,11.91658,0,0,0,666.33083,89.11715Z" transform="translate(-0.26406 -0.20651)"/><path d="M250.87209,77.49121h9.062v1.81926H252.542c-.19544,1.80659-.37277,3.44569-.58141,5.3741.397-.3258.59113-.48663.78685-.64548a4.864,4.864,0,0,1,7.77,2.261,7.46454,7.46454,0,0,1,.16112,4.342,5.1115,5.1115,0,0,1-3.83616,3.90463,5.72159,5.72159,0,0,1-5.77112-1.374,4.59587,4.59587,0,0,1-1.383-2.952l2.06086-.31432c.18805.4287.3172.75575.4719,1.07026a3.25556,3.25556,0,0,0,3.45655,1.93447,3.0065,3.0065,0,0,0,2.85764-2.51577,8.06706,8.06706,0,0,0,.05175-2.84975,3.07349,3.07349,0,0,0-2.67011-2.72876,3.24016,3.24016,0,0,0-3.63639,1.85479c-.11962.21781-.21878.44686-.38984.79944l-2.00162-.26434C250.21976,83.938,250.53885,80.78461,250.87209,77.49121Z" transform="translate(-0.26406 -0.20651)"/><path d="M266.07671,77.50782h9.08347v1.83711h-7.41576c-.1949,1.81145-.37133,3.45137-.57628,5.35624.48778-.40647.762-.66292,1.06354-.88183a4.84783,4.84783,0,0,1,7.21556,1.83013,7.09038,7.09038,0,0,1,.12262,5.89911,5.53687,5.53687,0,0,1-5.976,3.19788,4.96121,4.96121,0,0,1-4.62585-4.54259l1.9508-.30483c.19561.41533.35478.77408.53116,1.12415a3.24342,3.24342,0,0,0,3.33422,1.89795,2.98931,2.98931,0,0,0,2.92367-2.43277,7.9553,7.9553,0,0,0,.10593-2.84574,3.10545,3.10545,0,0,0-2.74259-2.83254,3.23766,3.23766,0,0,0-3.60891,1.90758c-.11787.21687-.2264.43884-.39494.76686l-1.96629-.2647C265.42714,83.974,265.7476,80.784,266.07671,77.50782Z" transform="translate(-0.26406 -0.20651)"/><path d="M385.63612,90.24781c.44059-.09417.777-.18339,1.11915-.234.29417-.04347.59484-.04282.938-.06455.1599.3523.29581.67064.447.9816a3.26118,3.26118,0,0,0,3.42905,1.98533,3.0855,3.0855,0,0,0,2.945-2.616,7.70828,7.70828,0,0,0,.06281-2.5574,3.1749,3.1749,0,0,0-2.66693-2.91937,3.27308,3.27308,0,0,0-3.73336,1.938c-.09437.1765-.17107.36242-.29889.63565a4.82972,4.82972,0,0,1-2.0346-.24381q.4754-4.759.94519-9.46194a44.55245,44.55245,0,0,1,9.1159-.15024l.0898,1.67608c-2.48695.32181-4.91224-.02846-7.52323.2345-.179,1.66575-.35959,3.34587-.57209,5.32313a5.08569,5.08569,0,0,1,5.01156-1.72963,4.4246,4.4246,0,0,1,3.36086,2.78237,7.3357,7.3357,0,0,1,.13635,5.48534,5.48926,5.48926,0,0,1-5.67154,3.47876A5.221,5.221,0,0,1,385.63612,90.24781Z" transform="translate(-0.26406 -0.20651)"/><path d="M521.24631,90.20757l2.05965-.30472c.17716.38681.315.70241.46476,1.01222a3.269,3.269,0,0,0,3.41981,2.00295,3.0795,3.0795,0,0,0,2.9558-2.60207,7.69288,7.69288,0,0,0,.07147-2.55659,3.18271,3.18271,0,0,0-2.653-2.9344,3.27648,3.27648,0,0,0-3.7425,1.92166c-.11586.21564-.21435.44063-.36433.75128l-1.98478-.28778c.32874-3.25541.65105-6.44723.97871-9.69179h9.05539a4.63239,4.63239,0,0,1,.11118.65617c.00442.30038-.02936.60132-.05913,1.10871-2.40584.16771-4.82152-.01186-7.3603.11059a30.717,30.717,0,0,0-.57164,5.01839,15.66944,15.66944,0,0,1,2.6633-1.31226,4.59589,4.59589,0,0,1,5.6656,2.8562,7.23,7.23,0,0,1,.0953,5.34248,5.49386,5.49386,0,0,1-5.66215,3.4948C523.67375,94.62117,521.93017,93.12694,521.24631,90.20757Z" transform="translate(-0.26406 -0.20651)"/><path d="M676.1695,77.46285h1.42936c.351,1.10271.48611,13.31925.18488,16.914h-2.06515c-.06875-4.28232.00275-8.608-.04165-13.05676-1.15628.33781-2.18625.98424-3.4559.57264V80.32662C674.91218,79.63373,675.04724,79.53642,676.1695,77.46285Z" transform="translate(-0.26406 -0.20651)"/><path d="M264.76923,196.72111l1.97933-.44978c.14408.40735.2397.68611.34108.96276a2.87567,2.87567,0,0,0,2.65533,2.13953,3.202,3.202,0,0,0,3.36135-1.84006,9.29492,9.29492,0,0,0,.72152-4.65667,5.79689,5.79689,0,0,0-.49495.36865,5.44944,5.44944,0,0,1-6.24091.62565,5.555,5.555,0,0,1-2.537-5.61512c.61172-5.01168,5.50232-5.78748,8.30615-4.36731a4.88591,4.88591,0,0,1,2.45818,2.96494,16.77478,16.77478,0,0,1-.00844,10.60015c-1.20487,3.71077-4.71092,4.359-7.35167,3.45339A4.6914,4.6914,0,0,1,264.76923,196.72111Zm1.93625-7.86594c-.02133,2.30411,1.30035,3.81359,3.35238,3.82869a3.86029,3.86029,0,0,0,3.82432-3.37944,3.94982,3.94982,0,0,0-3.71141-4.16122C268.07431,185.12128,266.72668,186.56482,266.70548,188.85517Z" transform="translate(-0.26406 -0.20651)"/><path d="M396.55058,187.51841a8.3068,8.3068,0,0,1-.93386.32063,8.10251,8.10251,0,0,1-.96226.08767c-.15737-.32326-.312-.627-.45462-.93626a2.91131,2.91131,0,0,0-5.21076-.472,8.25456,8.25456,0,0,0-1.22258,4.548,16.61069,16.61069,0,0,1,2.95713-1.51994,4.57448,4.57448,0,0,1,5.56248,2.78885,7.19446,7.19446,0,0,1-.01088,5.75792,4.87153,4.87153,0,0,1-4.45962,3.13789,5.01438,5.01438,0,0,1-4.96786-2.57036,9.99608,9.99608,0,0,1-1.1634-4.05105,15.10366,15.10366,0,0,1,1.08726-8.16387,5.20667,5.20667,0,0,1,3.73381-3.04723C393.51593,182.72229,395.90262,184.29278,396.55058,187.51841Zm-1.80776,8.00451c-.07756-.73225-.084-1.14107-.16884-1.53288a3.22286,3.22286,0,0,0-2.668-2.74123,3.35892,3.35892,0,0,0-3.518,1.841,4.795,4.795,0,0,0,1.41881,5.797,2.9005,2.9005,0,0,0,4.34674-1.20526A11.77839,11.77839,0,0,0,394.74282,195.52292Z" transform="translate(-0.26406 -0.20651)"/><path d="M532.20469,187.57922l-1.87946.41006c-.18733-.38338-.35375-.68192-.48276-.99582a2.56136,2.56136,0,0,0-2.34525-1.84894,3.0902,3.0902,0,0,0-2.95532,1.49381,8.64461,8.64461,0,0,0-1.13737,4.42913,16.55445,16.55445,0,0,1,2.95138-1.519,4.57575,4.57575,0,0,1,5.56611,2.78187,7.20939,7.20939,0,0,1,.05116,5.61738,5.30881,5.30881,0,0,1-9.47114.70987,8.236,8.236,0,0,1-.74639-1.81376,16.37693,16.37693,0,0,1,.0907-8.98916c.63386-2.201,1.878-3.91291,4.29275-4.45593C529.14676,182.7224,531.533,184.28734,532.20469,187.57922Zm-1.81145,7.99041a16.9098,16.9098,0,0,0-.23518-1.7477,3.09481,3.09481,0,0,0-2.63875-2.57336,3.30793,3.30793,0,0,0-3.43162,1.73127,4.78131,4.78131,0,0,0,1.25357,5.83471,2.92508,2.92508,0,0,0,4.46509-1.15388A12.19241,12.19241,0,0,0,530.39324,195.56963Z" transform="translate(-0.26406 -0.20651)"/><path d="M659.35785,191.05886a16.12031,16.12031,0,0,1,2.855-1.48744,4.58231,4.58231,0,0,1,5.67414,2.81779,7.17544,7.17544,0,0,1-.054,5.75686,4.87078,4.87078,0,0,1-4.494,3.08844,5.00024,5.00024,0,0,1-4.86217-2.49273,10.54726,10.54726,0,0,1-1.27551-4.79313,14.33159,14.33159,0,0,1,1.24025-7.692,5.29384,5.29384,0,0,1,6.25068-2.7939c2.05446.53756,3.06884,1.9365,3.499,4.08237l-1.95526.44607c-.19342-.4242-.36011-.73079-.47683-1.05533-.93389-2.595-4.1124-2.066-5.14787-.50157A8.546,8.546,0,0,0,659.35785,191.05886Zm6.98924,4.56721a17.902,17.902,0,0,0-.2641-1.85721,3.03761,3.03761,0,0,0-2.52735-2.50351,3.26447,3.26447,0,0,0-3.47468,1.633,4.7586,4.7586,0,0,0,1.24864,5.94731,2.90545,2.90545,0,0,0,4.37309-1.1017A12.68093,12.68093,0,0,0,666.34709,195.62607Z" transform="translate(-0.26406 -0.20651)"/><path d="M683.30538,187.5604c-.59718.14046-1.20684.28389-1.85265.43582-.19513-.4209-.36619-.72552-.48195-1.04987-.94637-2.6512-4.22964-2.06482-5.23548-.39811a9.06145,9.06145,0,0,0-1.178,4.51868,16.11668,16.11668,0,0,1,2.85137-1.49411,4.58349,4.58349,0,0,1,5.68031,2.80712,7.16708,7.16708,0,0,1-.04589,5.75632,4.86966,4.86966,0,0,1-4.48713,3.09793,4.76814,4.76814,0,0,1-4.834-2.501,13.241,13.241,0,0,1-1.126-3.424,15.39844,15.39844,0,0,1,.37042-7.3587c.67938-2.38845,2.03033-4.17992,4.66838-4.62279A4.68559,4.68559,0,0,1,683.30538,187.5604Zm-1.76407,7.92707a15.9389,15.9389,0,0,0-.22379-1.63289,3.09355,3.09355,0,0,0-2.61659-2.59755,3.27112,3.27112,0,0,0-3.446,1.694,4.7617,4.7617,0,0,0,1.33142,5.9301,2.89622,2.89622,0,0,0,4.34978-1.19163A12.2158,12.2158,0,0,0,681.54131,195.48747Z" transform="translate(-0.26406 -0.20651)"/><path d="M536.45007,196.65776c.73862-.1126,1.37-.20885,2.05557-.31339.19817.424.3552.78555.53318,1.13645a3.239,3.239,0,0,0,3.3433,1.8809,3.0052,3.0052,0,0,0,2.915-2.44612,7.82623,7.82623,0,0,0,.12652-2.69874,3.17331,3.17331,0,0,0-2.63753-2.94743,3.276,3.276,0,0,0-3.751,1.90525c-.117.21625-.22115.43948-.38116.75923-.60412-.08479-1.192-.16728-1.97293-.27687.32688-3.24763.64815-6.44.97637-9.701h9.00716a2.43124,2.43124,0,0,1,.1485.49438c.018.351.00594.70345.00594,1.27355-2.4845.171-4.94347-.01386-7.49936.11494-.19037,1.7748-.36631,3.41506-.541,5.04337a16.23852,16.23852,0,0,1,2.70336-1.33661,4.60313,4.60313,0,0,1,5.67563,2.838,7.25258,7.25258,0,0,1,.10684,5.343,5.49038,5.49038,0,0,1-5.65243,3.51045C538.89607,201.07384,537.15684,199.59308,536.45007,196.65776Z" transform="translate(-0.26406 -0.20651)"/><path d="M250.86669,183.93984h9.09474l.08847,1.743c-2.49334.2701-4.91592-.03107-7.52364.208-.17846,1.6724-.35753,3.35058-.53281,4.9934a15.94989,15.94989,0,0,1,2.59474-1.31149,4.63173,4.63173,0,0,1,5.85756,2.9893,7.43157,7.43157,0,0,1,.12548,4.92055,5.50625,5.50625,0,0,1-5.63626,3.76295c-2.75937-.10528-4.61-1.66539-5.25518-4.57273l2.05132-.33061c.184.40772.31869.72764.47066,1.03911a3.26043,3.26043,0,0,0,3.43368,1.97665,3.10137,3.10137,0,0,0,2.941-2.62363,7.55606,7.55606,0,0,0,.08262-2.40855,3.22994,3.22994,0,0,0-2.70066-3.0611,3.27341,3.27341,0,0,0-3.72888,1.94678c-.09409.17612-.1694.36226-.3222.69239l-2.015-.23749C250.218,190.41583,250.534,187.26073,250.86669,183.93984Z" transform="translate(-0.26406 -0.20651)"/><path d="M403.82066,199.04837h7.56385c.03078.65729.05368,1.14685.07573,1.61836-1.10493.35218-9.02977.43122-10.91958.12238a1.895,1.895,0,0,1,.78162-2.43837c1.84459-1.49576,3.64074-3.06079,5.35922-4.69968a6.59263,6.59263,0,0,0,2.30063-5.09868c-.06883-2.18378-1.20777-3.40244-3.23071-3.36353-1.96216.03777-3.07812,1.23672-3.102,3.33565-.00449.39452-.00063.78911-.00063,1.35645l-1.77676-.16755a4.55945,4.55945,0,0,1,2.764-6.06744,6.846,6.846,0,0,1,4.62219-.00707,4.32787,4.32787,0,0,1,2.92361,3.73879,7.70789,7.70789,0,0,1-1.5329,5.86242,23.17332,23.17332,0,0,1-4.79148,4.619c-.38275.293-.74943.607-1.12353.91138Z" transform="translate(-0.26406 -0.20651)"/><path d="M42.00706,37.89491l2.83274-2.02647c.31328.38925.57666.73661.86078,1.0661a4.89991,4.89991,0,0,0,5.051,1.6721c1.18333-.25373,1.74179-.86345,1.78425-1.77062.04421-.94431-.43057-1.56466-1.59857-1.92126-.82025-.25043-1.676-.3823-2.50959-.592a17.80755,17.80755,0,0,1-2.18448-.61915,4.61835,4.61835,0,0,1-3.165-4.54165,4.52559,4.52559,0,0,1,3.07391-4.59485,9.4677,9.4677,0,0,1,8.07462.4291,4.48975,4.48975,0,0,1,2.21556,2.38527l-2.43575,2.10842c-.34714-.38484-.62953-.71888-.93384-1.0316A4.91581,4.91581,0,0,0,48.47411,27.077a1.76246,1.76246,0,0,0-1.6373,1.5389,1.65529,1.65529,0,0,0,1.33046,1.79267c.95155.32843,1.95574.50235,2.93276.75952.78113.2056,1.57488.38335,2.33087.661,3.94087,1.44742,3.61859,6.4728,1.38473,8.40123C51.78845,42.84363,44.15947,42.48244,42.00706,37.89491Z" transform="translate(-0.26406 -0.20651)"/><path d="M89.52165,34.33168v4.0762c2.513.21977,5.02718-.01184,7.65382.14033v3.02843c-3.84138.0352-7.70453.024-11.67733.00215V24.60949h11.439v2.975H89.54934v3.62345H96.574v3.03515C94.30885,34.37621,91.99707,34.2338,89.52165,34.33168Z" transform="translate(-0.26406 -0.20651)"/><path d="M73.19038,38.4706H81.465V41.489H68.51164a4.59318,4.59318,0,0,1,.74157-4.07221c2.14628-2.68694,4.14948-5.48823,6.208-8.24509.29819-.39935.5769-.81324,1.0483-1.48032H68.757V24.597h12.348a5.07917,5.07917,0,0,1-.96226,4.42272c-2.13123,2.6319-4.07612,5.41481-6.09278,8.13917C73.8146,37.47687,73.61428,37.82087,73.19038,38.4706Z" transform="translate(-0.26406 -0.20651)"/><path d="M64.36437,41.52705H60.70012c-.30268-1.12215-.40338-14.41856-.12514-16.89974,1.21459,0,2.44537,0,3.67712-.00052C64.56187,25.6947,64.66818,39.10054,64.36437,41.52705Z" transform="translate(-0.26406 -0.20651)"/><path d="M62.73655,131.0261H66.6111V137.794h6.49526c.29913-2.173-.02287-4.393.1884-6.71355h3.72473c.32035,1.03288.42319,14.64075.10323,16.8472H73.2846V141.165H66.69036v6.74723H62.81743A159.59726,159.59726,0,0,1,62.73655,131.0261Z" transform="translate(-0.26406 -0.20651)"/><path d="M111.16236,133.84808l-2.4394,2.08664c-.3666-.41657-.64584-.77216-.964-1.08864a4.91885,4.91885,0,0,0-4.61946-1.3101,1.743,1.743,0,0,0-1.55456,1.45052,1.61749,1.61749,0,0,0,1.25877,1.83279c.94674.33957,1.94979.52105,2.926.78.78061.20707,1.57352.38175,2.33432.64719,4.02467,1.40417,3.76514,6.62964,1.27658,8.57476-2.84808,2.22612-9.50046,2.17032-12.122-1.53753-.17143-.24247-.30182-.514-.53474-.916l2.866-2.068c.34861.44227.60768.80623.90231,1.13866a4.91928,4.91928,0,0,0,4.93181,1.63216c1.25012-.2491,1.84585-.90468,1.85306-1.87079.007-.93989-.46347-1.50727-1.674-1.86435-.82284-.24273-1.67957-.368-2.5118-.58222a15.58563,15.58563,0,0,1-2.32-.693,4.58412,4.58412,0,0,1-2.9512-4.38249,4.41578,4.41578,0,0,1,2.73708-4.50086,9.2656,9.2656,0,0,1,8.7374.46A3.75761,3.75761,0,0,1,111.16236,133.84808Z" transform="translate(-0.26406 -0.20651)"/><path d="M54.633,141.5298l3.865.8316a5.81323,5.81323,0,0,1-1.80183,3.78453c-2.79977,3.07862-9.96631,3.01344-12.62578-1.14171-2.03431-3.17843-2.02712-9.42689.95994-12.33707a9.02905,9.02905,0,0,1,10.94173-.84189,5.98135,5.98135,0,0,1,2.4411,4.69123l-3.81963.70771c-.19747-.54458-.334-.96828-.50276-1.37873a3.519,3.519,0,0,0-5.75847-1.13876,4.753,4.753,0,0,0-1.02952,1.6556,8.74672,8.74672,0,0,0-.05032,5.81132,3.96671,3.96671,0,0,0,2.1068,2.474,3.4005,3.4005,0,0,0,4.78219-1.814C54.30148,142.46905,54.42394,142.088,54.633,141.5298Z" transform="translate(-0.26406 -0.20651)"/><path d="M82.427,147.95V131.20776a70.11892,70.11892,0,0,1,11.44376-.13994v2.95556c-1.188.00844-2.38254.02026-3.57715.02445-1.21186.00425-2.42375.00094-3.76247.00094v3.66057h7.0344v3.01149H86.50289v4.19433H94.164V147.95Z" transform="translate(-0.26406 -0.20651)"/><path d="M118.23864,147.91432V134.20043h-4.77039v-3.15789h13.60922v3.01924l-4.74087.16654v13.686Z" transform="translate(-0.26406 -0.20651)"/><path d="M85.69025,77.80432h3.64527V94.72871H85.08445L78.48256,83.31948V94.70023H74.94482a154.82807,154.82807,0,0,1-.05729-16.87355h4.34209c2.066,3.65548,4.17381,7.385,6.46063,11.43114Z" transform="translate(-0.26406 -0.20651)"/><path d="M105.37052,83.26381c-.16886-.42352-.26973-.6522-.35229-.88731-.92877-2.6447-4.36595-2.72094-5.87978-1.01554-.06717.07567-.14014.14635-.205.22389-1.71538,2.05142-1.83673,6.80676-.19024,8.89237a3.80762,3.80762,0,0,0,4.07333,1.372,3.33453,3.33453,0,0,0,2.78841-2.83681,3.09525,3.09525,0,0,0-.0833-.73461h-3.91232V85.425h7.67091v9.2942h-2.73782l-.25211-1.95823c-.12934.04869-.27934.0601-.35718.14095a7.08757,7.08757,0,0,1-10.77024-.55325c-2.4998-3.18046-2.465-10.09909.9886-13.16193,2.72574-2.41731,7.83326-2.76894,10.74627-.58772a5.6216,5.6216,0,0,1,2.32853,3.88417Z" transform="translate(-0.26406 -0.20651)"/><path d="M143.49875,77.85059v16.8637h-3.93281V87.93508h-6.59407v6.764h-3.98031v-16.97h3.93526V84.581h6.5404c.14075-2.20372-.01448-4.41513.09509-6.73042Z" transform="translate(-0.26406 -0.20651)"/><path d="M58.69758,94.66888v-16.836h11.4745v2.96883H62.78932v3.60909c2.296.20767,4.60932-.02883,7.01979.14359v2.90774c-2.25843.147-4.571-.0198-6.99723.099v4.0928c2.45767.16553,4.96935-.01482,7.59883.10672v2.824A79.045,79.045,0,0,1,58.69758,94.66888Z" transform="translate(-0.26406 -0.20651)"/><path d="M125.3851,77.73083c0,.80188.01208,1.35475-.00442,1.90676-.01033.3459-.06367.69052-.11363,1.19718l-4.78677.18645V94.70707h-4.04419V80.95329h-4.80653V77.7629C116.15522,77.69229,120.71171,77.74291,125.3851,77.73083Z" transform="translate(-0.26406 -0.20651)"/><path d="M43.8792,77.80385H47.768V91.49844h6.88036v3.048c-1.025.33271-8.11186.44272-10.68067.164A158.32056,158.32056,0,0,1,43.8792,77.80385Z" transform="translate(-0.26406 -0.20651)"/><path d="M41.984,197.57335l2.87751-2.036c.33754.42849.59617.79311.89137,1.12524a4.91982,4.91982,0,0,0,4.93275,1.62836c1.2491-.25048,1.84465-.9077,1.84987-1.87333.00508-.93961-.46584-1.505-1.67706-1.86161-.823-.24231-1.67782-.37429-2.5119-.58177a16.9669,16.9669,0,0,1-2.03838-.58133,4.65524,4.65524,0,0,1-3.23122-4.64863,4.52648,4.52648,0,0,1,3.15129-4.5405,9.36544,9.36544,0,0,1,8.1968.57793,3.88955,3.88955,0,0,1,1.9921,2.29263l-2.439,2.08089c-.366-.41759-.64378-.77466-.96215-1.09086a4.92184,4.92184,0,0,0-4.62076-1.30668,1.73863,1.73863,0,0,0-1.55236,1.452,1.62043,1.62043,0,0,0,1.26134,1.83164c.947.3389,1.95.52018,2.92621.77912.78062.20708,1.57358.382,2.33407.64828,4.02483,1.40915,3.761,6.62808,1.2722,8.57621-2.83373,2.2181-9.5974,2.20724-12.21036-1.66549C42.28834,198.17508,42.18684,197.946,41.984,197.57335Z" transform="translate(-0.26406 -0.20651)"/><path d="M95.607,193.99849v4.07069c2.50379.23316,5.01882-.01967,7.648.14564v2.81133a78.57367,78.57367,0,0,1-11.67112.093V184.27663h11.4327v2.96619H95.63471v3.61925c2.29417.18675,4.60606-.0271,7.0185.12952v2.92281C100.39821,194.036,98.08725,193.89865,95.607,193.99849Z" transform="translate(-0.26406 -0.20651)"/><path d="M75.19484,184.23605H86.58618v2.9917H79.21907v3.61173c2.30708.25476,4.67188-.0582,7.06265.18543v2.89241H79.19747v4.24776h7.68158v2.83765a74.03253,74.03253,0,0,1-11.59178.14523A161.88676,161.88676,0,0,1,75.19484,184.23605Z" transform="translate(-0.26406 -0.20651)"/><path d="M129.65079,187.23944v3.575c2.33349.28046,4.64964-.00647,7.06222.18678v2.83549c-2.24352.31318-4.56394-.02177-7.04987.198a28.38888,28.38888,0,0,0-.02145,4.03534c2.52753.22738,5.0421-.017,7.67322.14389v3.01286c-3.82646.07042-7.69007.01722-11.7786.029-.00447-5.70183-.0026-11.286-.001-16.97747h11.541v2.961Z" transform="translate(-0.26406 -0.20651)"/><path d="M114.19334,197.14832c1.301-4.47179,2.52608-8.68287,3.75144-12.89478h4.33562c-1.92761,5.71394-3.81426,11.30653-5.71206,16.93217h-4.74368c-1.88834-5.59325-3.77655-11.18619-5.71147-16.91743h4.33961Z" transform="translate(-0.26406 -0.20651)"/><path d="M60.53589,201.16026v-16.8649H64.4255c.20053,4.45744-.01068,8.93891.12422,13.61252H71.357v3.25238Z" transform="translate(-0.26406 -0.20651)"/><path class="cls-1" d="M270.90858,146.2571c-.54118-.04489-.84554-.05442-1.1451-.09756a3.21263,3.21263,0,0,1-3.00976-3.22784,3.68079,3.68079,0,0,1,2.97115-3.55772,5.62192,5.62192,0,0,1,4.58087,2.464,2.97522,2.97522,0,0,1-1.8424,4.14644A10.011,10.011,0,0,1,270.90858,146.2571Z" transform="translate(-0.26406 -0.20651)"/><path class="cls-1" d="M273.63738,134.43947a3.178,3.178,0,0,1-2.807,3.19563,3.615,3.615,0,0,1-3.51368-3.10918c-.05019-1.68814,1.10662-2.75621,3.03558-2.80277C272.35585,131.67479,273.60673,132.70909,273.63738,134.43947Z" transform="translate(-0.26406 -0.20651)"/><path class="cls-1" d="M402.64813,135.75112c-.02038-2.31015,1.28643-3.7784,3.34783-3.83546,2.51268-.06955,3.6113,1.9633,3.80368,4.05234.15763,1.7123-1.7565,3.4564-3.68191,3.49485C404.04319,139.50428,402.66825,138.03341,402.64813,135.75112Z" transform="translate(-0.26406 -0.20651)"/><path class="cls-1" d="M546.74247,139.196a10.69778,10.69778,0,0,1-.76494,4.47361,3.79806,3.79806,0,0,1-2.412,2.35469,3.46768,3.46768,0,0,1-3.99064-1.423,7.55958,7.55958,0,0,1-.93679-2.21705,14.4585,14.4585,0,0,1-.02458-6.61461,8.11659,8.11659,0,0,1,.74988-1.97334,3.31938,3.31938,0,0,1,3.068-1.8741,3.41038,3.41038,0,0,1,3.237,1.85933A10.496,10.496,0,0,1,546.74247,139.196Z" transform="translate(-0.26406 -0.20651)"/><path class="cls-1" d="M522.51878,141.59957c1.82507-2.80833,3.49209-5.37345,5.34857-8.23V141.546C526.15005,141.64884,524.45436,141.56648,522.51878,141.59957Z" transform="translate(-0.26406 -0.20651)"/><path class="cls-1" d="M663.81254,133.73279v7.768h-5.28167l5.05818-7.79923Z" transform="translate(-0.26406 -0.20651)"/><path class="cls-1" d="M406.59723,93.05765a11.37884,11.37884,0,0,1-1.68337-.3161,3.26538,3.26538,0,0,1-1.75052-4.83c.62287-1.04135,2.21469-1.95831,3.15315-1.70267,1.75576.47824,3.65106.85413,4.12673,3.04423a2.90156,2.90156,0,0,1-2.23851,3.58009A13.90681,13.90681,0,0,1,406.59723,93.05765Z" transform="translate(-0.26406 -0.20651)"/><path class="cls-1" d="M406.41981,78.49987c2.00415.01267,3.185,1.0751,3.15983,2.84311a3.19255,3.19255,0,0,1-2.78053,3.0699,3.5703,3.5703,0,0,1-3.54051-3.23322C403.27045,79.527,404.4964,78.48772,406.41981,78.49987Z" transform="translate(-0.26406 -0.20651)"/><path class="cls-1" d="M538.28594,82.455c.00705-2.30107,1.33677-3.75938,3.42334-3.75448a3.93038,3.93038,0,0,1,3.7543,4.11877,3.84936,3.84936,0,0,1-3.78207,3.422C539.62067,86.24648,538.27888,84.7503,538.28594,82.455Z" transform="translate(-0.26406 -0.20651)"/><path class="cls-1" d="M666.33083,89.11715a11.91658,11.91658,0,0,1-.62569,2.17415,2.895,2.895,0,0,1-4.36634,1.11736,4.79839,4.79839,0,0,1-1.34389-5.81638,3.34648,3.34648,0,0,1,3.55153-1.77571,3.14782,3.14782,0,0,1,2.57939,2.64433A15.35526,15.35526,0,0,1,666.33083,89.11715Z" transform="translate(-0.26406 -0.20651)"/><path class="cls-1" d="M266.70548,188.85517c.0212-2.29035,1.36883-3.73389,3.46529-3.712a3.94982,3.94982,0,0,1,3.71141,4.16122,3.86029,3.86029,0,0,1-3.82432,3.37944C268.00583,192.66876,266.68415,191.15928,266.70548,188.85517Z" transform="translate(-0.26406 -0.20651)"/><path class="cls-1" d="M394.74282,195.52292a11.77839,11.77839,0,0,1-.58931,2.15863,2.9005,2.9005,0,0,1-4.34674,1.20526,4.795,4.795,0,0,1-1.41881-5.797,3.35892,3.35892,0,0,1,3.518-1.841,3.22286,3.22286,0,0,1,2.668,2.74123C394.65884,194.38185,394.66526,194.79067,394.74282,195.52292Z" transform="translate(-0.26406 -0.20651)"/><path class="cls-1" d="M530.39324,195.56963a12.19241,12.19241,0,0,1-.58689,2.091,2.92508,2.92508,0,0,1-4.46509,1.15388,4.78131,4.78131,0,0,1-1.25357-5.83471,3.30793,3.30793,0,0,1,3.43162-1.73127,3.09481,3.09481,0,0,1,2.63875,2.57336A16.9098,16.9098,0,0,1,530.39324,195.56963Z" transform="translate(-0.26406 -0.20651)"/><path class="cls-1" d="M666.34709,195.62607a12.68093,12.68093,0,0,1-.6444,2.11791,2.90545,2.90545,0,0,1-4.37309,1.1017,4.7586,4.7586,0,0,1-1.24864-5.94731,3.26447,3.26447,0,0,1,3.47468-1.633,3.03761,3.03761,0,0,1,2.52735,2.50351A17.902,17.902,0,0,1,666.34709,195.62607Z" transform="translate(-0.26406 -0.20651)"/><path class="cls-1" d="M681.54131,195.48747a12.2158,12.2158,0,0,1-.6052,2.202,2.89622,2.89622,0,0,1-4.34978,1.19163,4.7617,4.7617,0,0,1-1.33142-5.9301,3.27112,3.27112,0,0,1,3.446-1.694,3.09355,3.09355,0,0,1,2.61659,2.59755A15.9389,15.9389,0,0,1,681.54131,195.48747Z" transform="translate(-0.26406 -0.20651)"/></g></g></svg>