<?xml version="1.0" encoding="utf-8"?>
<!-- Generator: Adobe Illustrator 23.0.2, SVG Export Plug-In . SVG Version: 6.00 Build 0)  -->
<svg version="1.1" id="Слой_1" xmlns="http://www.w3.org/2000/svg" xmlns:xlink="http://www.w3.org/1999/xlink" x="0px" y="0px"
	 viewBox="0 0 64 64" style="enable-background:new 0 0 64 64;" xml:space="preserve">
<style type="text/css">
	.st0{fill:#FFFFFF;}
	.st1{fill:#CC0000;}
	.st2{fill:none;stroke:#000000;stroke-width:2.5;stroke-miterlimit:10;}
	.st3{fill:none;stroke:#FFFFFF;stroke-width:2.5;stroke-linecap:round;stroke-miterlimit:10;}
</style>
<path class="st0" d="M32,8C18.7,8,8,18.7,8,32s10.7,24,24,24s24-10.7,24-24S45.3,8,32,8z"/>
<path class="st1" d="M32,12.5c-10.8,0-19.5,8.7-19.5,19.5S21.2,51.5,32,51.5S51.5,42.8,51.5,32S42.8,12.5,32,12.5z"/>
<path class="st2" d="M32,9C19.3,9,9,19.3,9,32s10.2,23,23,23s23-10.2,23-23S44.7,9,32,9z"/>
<line class="st3" x1="21.2" y1="20.9" x2="43.3" y2="43.1"/>
<line class="st3" x1="21" y1="43.1" x2="43.1" y2="20.9"/>
</svg>
