<svg xmlns="http://www.w3.org/2000/svg" viewBox="0 0 505.20422 248.45869"><defs><style>.cls-1{fill:none;}</style></defs><title>Ресурс 1</title><g id="Слой_2" data-name="Слой 2"><g id="Layer_1" data-name="Layer 1"><path class="cls-1" d="M484.81437,36.50082a16.11128,16.11128,0,1,0-16.111-16.11128A16.1294,16.1294,0,0,0,484.81437,36.50082Zm-7.28625-26.23875a42.43833,42.43833,0,0,1,6.42961-.44321c3.16719,0,5.38418.47488,6.90471,1.67859a5.41956,5.41956,0,0,1,1.96374,4.46587,5.66506,5.66506,0,0,1-3.76942,5.25754v.095c1.48864.60174,2.31219,2.027,2.85063,3.99078.665,2.40716,1.33058,5.19422,1.74189,6.01781h-4.94052a26.6841,26.6841,0,0,1-1.4886-4.97264c-.57034-2.66042-1.48864-3.38881-3.45238-3.4207h-1.45719v8.39334h-4.78247Z"/><path class="cls-1" d="M488.04326,16.37486c0-1.96348-1.3301-2.94534-3.54709-2.977a12.0593,12.0593,0,0,0-2.18558.15828v5.89121h1.9004C486.61841,19.44733,488.04326,18.24362,488.04326,16.37486Z"/><polygon class="cls-1" points="223.507 123.031 251.425 74.533 202.927 74.533 175.009 123.031 223.507 123.031"/><polygon class="cls-1" points="52.487 123.031 100.985 123.031 105.292 115.374 56.794 115.374 52.487 123.031"/><path d="M157.61941,82.19062H75.93809l4.467-7.6576h81.68132L181.23042,41.35H66.36607L0,156.21434H114.86435ZM100.98492,123.0313H52.48663l4.30741-7.6576h48.49829Z"/><path d="M237.38631,156.21434,303.75242,41.35H188.88806L122.522,156.21434ZM202.927,74.533h48.49828L223.50688,123.0313H175.00859Z"/><polygon points="359.908 156.214 402.663 82.191 349.06 82.191 329.916 115.374 350.336 115.374 346.029 123.031 297.531 123.031 325.449 74.533 407.13 74.533 426.274 41.35 311.41 41.35 245.044 156.214 359.908 156.214"/><path d="M484.81437,40.77909a20.38955,20.38955,0,1,0-20.38924-20.38955A20.41287,20.41287,0,0,0,484.81437,40.77909Zm0-36.50082a16.11128,16.11128,0,1,1-16.111,16.11127A16.1294,16.1294,0,0,1,484.81437,4.27827Z"/><path d="M482.31059,22.93108h1.45719c1.96374.03189,2.882.76028,3.45238,3.4207a26.6841,26.6841,0,0,0,1.4886,4.97264h4.94052c-.41131-.82359-1.07684-3.61065-1.74189-6.01781-.53844-1.96374-1.362-3.389-2.85063-3.99078v-.095a5.66506,5.66506,0,0,0,3.76942-5.25754,5.41956,5.41956,0,0,0-1.96374-4.46587c-1.52053-1.20371-3.73752-1.67859-6.90471-1.67859a42.43833,42.43833,0,0,0-6.42961.44321V31.32442h4.78247Zm0-9.375a12.0593,12.0593,0,0,1,2.18558-.15828c2.217.03168,3.54709,1.01354,3.54709,2.977,0,1.86876-1.42485,3.07247-3.83227,3.07247h-1.9004Z"/><path d="M0,216.418v-3.32422H3.29593V216.418Z"/><path d="M6.53664,216.418v-3.32422H9.83257V216.418Z"/><path d="M13.07193,216.418v-3.32422h3.29594V216.418Z"/><path d="M19.60857,216.418v-3.32422h3.29594V216.418Z"/><path d="M26.14387,216.418v-3.32422H29.4398V216.418Z"/><path d="M32.68051,216.418v-3.32422h3.29593V216.418Z"/><path d="M39.21715,216.418v-3.32422h3.29593V216.418Z"/><path d="M45.75244,216.418v-3.32422h3.29593V216.418Z"/><path d="M50.28755,217.5467l7.862-20.43155h1.91668l-7.8903,20.43155Z"/><path d="M73.78605,198.66547V216.418H71.1097V198.66547H64.82494v-2.25476H80.07081v2.25476Z"/><path d="M84.71637,195.98778v8.98939a4.671,4.671,0,0,1,4.62131-2.98748c3.044,0,4.64959,1.945,4.64959,5.66517V216.418H91.59243v-8.5934c0-2.481-1.04252-3.77679-3.07234-3.77679-2.42312,0-3.80372,1.83182-3.80372,5.016V216.418H82.32153v-20.4302Z"/><path d="M99.05711,210.078c.02828,2.76255,1.69039,4.56474,4.19837,4.56474a3.77993,3.77993,0,0,0,3.7485-2.67635l1.9719.87416a5.85989,5.85989,0,0,1-5.88877,3.91686c-4.03,0-6.42619-2.56455-6.42619-7.21414,0-4.70617,2.3679-7.55357,6.39791-7.55357,3.80372,0,6.00191,2.17124,6.00191,6.3979v1.6904Zm3.94515-6.19991c-2.4797,0-3.88858,1.60688-3.94515,4.25629h7.58051v-.30979C106.63762,205.23039,105.31224,203.87808,103.00226,203.87808Z"/><path d="M121.936,204.301v12.117h-2.39618V204.301H116.947v-1.9719h2.59284v-2.22782a3.95239,3.95239,0,0,1,4.11486-4.28323,7.05082,7.05082,0,0,1,1.80354.198v2.05676a9.641,9.641,0,0,0-1.49375-.14008c-1.43717,0-2.02847.7893-2.02847,2.508v1.88839h3.52222v1.9719Z"/><path d="M127.56887,211.31851v-8.9894h2.39484v8.70654c0,2.3679,1.01558,3.66365,2.87569,3.66365,2.25341,0,3.77544-1.91534,3.77544-4.78968v-7.58051h2.39484V216.418h-2.25341v-2.64806a4.71613,4.71613,0,0,1-4.36809,2.98748C128.83768,216.7574,127.56887,214.61579,127.56887,211.31851Z"/><path d="M143.88286,202.32911v-3.69193l2.39484-1.01423v4.70616h3.52221v1.9719H146.2777v7.8068c0,1.60553.61959,2.31,2.05676,2.31a5.56419,5.56419,0,0,0,1.46545-.198V216.418a7.2367,7.2367,0,0,1-2.085.25457c-3.04406,0-3.832-1.86011-3.832-4.48123V204.301h-2.62112v-1.9719Z"/><path d="M152.19206,211.31851v-8.9894h2.39618v8.70654c0,2.3679,1.01424,3.66365,2.87435,3.66365,2.25341,0,3.77543-1.91534,3.77543-4.78968v-7.58051h2.39484V216.418h-2.25341v-2.64806a4.71612,4.71612,0,0,1-4.36808,2.98748C153.46086,216.7574,152.19206,214.61579,152.19206,211.31851Z"/><path d="M174.508,201.98969a2.92886,2.92886,0,0,1,.50779.02963v2.33826h-.11314a4.12341,4.12341,0,0,0-3.10063,1.0991c-1.35232,1.35231-1.40889,3.24071-1.40889,4.9311v6.0302h-2.39483V202.32911h2.22647v3.21108C170.90088,203.56829,172.36634,201.98969,174.508,201.98969Z"/><path d="M178.53662,210.078c.02828,2.76255,1.69039,4.56474,4.19837,4.56474a3.77993,3.77993,0,0,0,3.7485-2.67635l1.9719.87416a5.85988,5.85988,0,0,1-5.88876,3.91686c-4.03,0-6.4262-2.56455-6.4262-7.21414,0-4.70617,2.3679-7.55357,6.39791-7.55357,3.80372,0,6.00191,2.17124,6.00191,6.3979v1.6904Zm3.94515-6.19991c-2.47969,0-3.88858,1.60688-3.94515,4.25629h7.58051v-.30979C186.11713,205.23039,184.79175,203.87808,182.48177,203.87808Z"/><path d="M74.03927,228.53494l2.53627,10.05885c.11314.50914.22628,1.0991.30979,1.66346h.05657c.08486-.56436.25322-1.15432.36636-1.66346l2.56455-10.05885h2.59284l2.56455,10.05885c.1118.50914.28151,1.0991.36637,1.66346h.05657c.08351-.56436.19665-1.15432.30979-1.66346l2.53626-10.05885h2.4797L86.80545,242.6238H84.18433l-2.67769-10.14506c-.1118-.44987-.25322-1.15431-.3098-1.57725h-.05657c-.05522.42294-.19665,1.12738-.30979,1.57725L78.15413,242.6238H75.533l-3.97343-14.08886Z"/><path d="M95.87566,222.89805v3.01577H93.1414v-3.01577Zm-.16971,5.63689V242.6238H93.31111V228.53494Z"/><path d="M100.58048,228.53494V224.843l2.39484-1.01424v4.70617h3.52221v1.9719h-3.52221v7.80679c0,1.60554.61959,2.31,2.05676,2.31a5.57231,5.57231,0,0,0,1.46545-.198v2.19818a7.2367,7.2367,0,0,1-2.085.25457c-3.04406,0-3.832-1.86011-3.832-4.48123v-7.8903H97.95936v-1.9719Z"/><path d="M111.85023,222.1936v8.9894a4.671,4.671,0,0,1,4.6213-2.98749c3.04406,0,4.6496,1.945,4.6496,5.66518v8.76311h-2.39484v-8.5934c0-2.481-1.04252-3.77678-3.07234-3.77678-2.42312,0-3.80372,1.83182-3.80372,5.016v7.35422h-2.39484V222.1936Z"/><path d="M123.79478,235.57937c0-4.593,2.59284-7.38386,6.56627-7.38386s6.56628,2.79084,6.56628,7.38386-2.59284,7.38386-6.56628,7.38386S123.79478,240.17239,123.79478,235.57937Zm10.59628,0c0-3.49393-1.49374-5.29881-4.03-5.29881s-4.03,1.80488-4.03,5.29881,1.49374,5.29881,4.03,5.29881S134.39106,239.0733,134.39106,235.57937Z"/><path d="M139.601,237.52433v-8.98939h2.39618v8.70654c0,2.3679,1.01424,3.66364,2.87435,3.66364,2.25341,0,3.77543-1.91533,3.77543-4.78967v-7.58051h2.39484V242.6238h-2.25341v-2.64806a4.71613,4.71613,0,0,1-4.36808,2.98749C140.86978,242.96323,139.601,240.82161,139.601,237.52433Z"/><path d="M155.915,228.53494V224.843l2.39483-1.01424v4.70617H161.832v1.9719H158.3098v7.80679c0,1.60554.61959,2.31,2.05676,2.31a5.57239,5.57239,0,0,0,1.46546-.198v2.19818a7.2368,7.2368,0,0,1-2.085.25457c-3.04406,0-3.832-1.86011-3.832-4.48123v-7.8903h-2.62112v-1.9719Z"/><path d="M172.39732,236.28381c.02829,2.76255,1.6904,4.56474,4.19837,4.56474a3.77991,3.77991,0,0,0,3.7485-2.67634l1.97191.87415a5.85989,5.85989,0,0,1-5.88877,3.91687c-4.03,0-6.42619-2.56455-6.42619-7.21415,0-4.70616,2.3679-7.55357,6.3979-7.55357,3.80373,0,6.00191,2.17125,6.00191,6.39791v1.69039Zm3.94515-6.19991c-2.47969,0-3.88858,1.60689-3.94515,4.2563h7.58051v-.3098C179.97783,231.43622,178.65245,230.0839,176.34247,230.0839Z"/><path d="M183.89066,228.53494h2.81777l2.56455,3.97343a8.78285,8.78285,0,0,1,.81758,1.46546h.02829a11.83419,11.83419,0,0,1,.78795-1.46546l2.42447-3.97343h2.93092l-4.65094,6.98786,5.0173,7.101h-2.8474l-2.90263-4.3398a6.46674,6.46674,0,0,1-.788-1.43582h-.02828a7.20457,7.20457,0,0,1-.81759,1.43582l-2.87434,4.3398h-2.84606l5.10082-7.27071Z"/><path d="M197.61046,238.82008a3.70677,3.70677,0,0,1,1.97325-3.32422,14.2413,14.2413,0,0,1,4.73445-1.15566l2.62112-.3098v-.22628c0-2.59284-.93072-3.63536-3.10062-3.63536-1.91534,0-3.09929,1.01424-3.21243,2.78949h-2.56455c.198-2.87435,2.45141-4.76274,5.74869-4.76274,3.86164,0,5.552,1.74831,5.552,5.86183v3.80373a16.84785,16.84785,0,0,0,.4795,4.76273h-2.508a22.18591,22.18591,0,0,1-.22628-2.56455,4.70715,4.70715,0,0,1-4.73445,2.904C199.49885,242.96323,197.61046,241.32806,197.61046,238.82008Zm9.35711-2.33827V235.776l-3.83336.56436c-2.085.3098-2.98748,1.04253-2.98748,2.42313,0,1.38194,1.04387,2.22647,2.76255,2.22647C205.36068,240.99,206.96757,239.21473,206.96757,236.48181Z"/><path d="M222.2094,229.634a4.58748,4.58748,0,0,1,1.29709,3.32422c0,2.73426-1.945,4.81931-5.214,4.81931a6.17309,6.17309,0,0,1-2.70463-.59265,1.51021,1.51021,0,0,0-1.01424,1.38195c0,.7893.5913,1.43717,2.33827,1.43717h3.4387c3.18414,0,4.78968,1.43717,4.78968,3.97209,0,2.65075-2.085,4.48257-6.98786,4.48257-4.96074,0-6.34134-1.86145-6.34134-3.86164a3.02327,3.02327,0,0,1,2.283-2.93091,2.54006,2.54006,0,0,1-1.63517-2.45141,2.90415,2.90415,0,0,1,2.00154-2.81778,4.6475,4.6475,0,0,1-1.3806-3.4387c0-2.73292,1.94361-4.76274,5.21261-4.76274a6.43828,6.43828,0,0,1,2.76255.59265,3.29776,3.29776,0,0,1,3.3525-2.56455,3.49442,3.49442,0,0,1,.93073.11314v2.085a5.04177,5.04177,0,0,0-1.01424-.11315A2.01423,2.01423,0,0,0,222.2094,229.634Zm-6.56492,12.42676a2.30113,2.30113,0,0,0-1.49375,2.11333c0,1.747,1.747,2.31132,4.28323,2.31132,3.43736,0,4.31152-1.0708,4.31152-2.33961,0-1.324-.98595-2.02847-2.93092-2.02847h-2.98748C216.40549,242.11736,216.01084,242.08907,215.64448,242.06079Zm5.60726-9.07426a2.9586,2.9586,0,1,0-2.9592,2.9592A2.8108,2.8108,0,0,0,221.25174,232.98653Z"/><path d="M236.57708,229.634a4.58748,4.58748,0,0,1,1.29709,3.32422c0,2.73426-1.945,4.81931-5.214,4.81931a6.17316,6.17316,0,0,1-2.70463-.59265,1.51021,1.51021,0,0,0-1.01423,1.38195c0,.7893.5913,1.43717,2.33826,1.43717h3.43871c3.18414,0,4.78968,1.43717,4.78968,3.97209,0,2.65075-2.08505,4.48257-6.98787,4.48257-4.96073,0-6.34133-1.86145-6.34133-3.86164a3.02327,3.02327,0,0,1,2.283-2.93091,2.54006,2.54006,0,0,1-1.63517-2.45141,2.90415,2.90415,0,0,1,2.00154-2.81778,4.64747,4.64747,0,0,1-1.38061-3.4387c0-2.73292,1.94362-4.76274,5.21261-4.76274a6.43825,6.43825,0,0,1,2.76255.59265,3.29778,3.29778,0,0,1,3.35251-2.56455,3.49429,3.49429,0,0,1,.93072.11314v2.085a5.04158,5.04158,0,0,0-1.01423-.11315A2.01321,2.01321,0,0,0,236.57708,229.634Zm-6.56493,12.42676a2.30114,2.30114,0,0,0-1.49374,2.11333c0,1.747,1.747,2.31132,4.28323,2.31132,3.43736,0,4.31152-1.0708,4.31152-2.33961,0-1.324-.986-2.02847-2.93092-2.02847h-2.98748C230.77317,242.11736,230.37852,242.08907,230.01215,242.06079Zm5.60727-9.07426a2.95927,2.95927,0,1,0-2.95921,2.9592A2.8108,2.8108,0,0,0,235.61942,232.98653Z"/><path d="M243.22552,236.28381c.02828,2.76255,1.69039,4.56474,4.19837,4.56474a3.77992,3.77992,0,0,0,3.7485-2.67634l1.9719.87415a5.85989,5.85989,0,0,1-5.88877,3.91687c-4.03,0-6.42619-2.56455-6.42619-7.21415,0-4.70616,2.3679-7.55357,6.39791-7.55357,3.80372,0,6.00191,2.17125,6.00191,6.39791v1.69039Zm3.94515-6.19991c-2.4797,0-3.88858,1.60689-3.94515,4.2563H250.806v-.3098C250.806,231.43622,249.482,230.0839,247.17067,230.0839Z"/><path d="M262.97686,228.19551a2.929,2.929,0,0,1,.5078.02963v2.33827h-.11315a4.12344,4.12344,0,0,0-3.10062,1.09909c-1.35232,1.35232-1.40889,3.24071-1.40889,4.93111v6.03019h-2.39484V228.53494h2.22647V231.746C259.36979,229.77411,260.83525,228.19551,262.97686,228.19551Z"/><path d="M264.608,238.82008a3.70677,3.70677,0,0,1,1.97325-3.32422,14.24137,14.24137,0,0,1,4.73445-1.15566l2.62113-.3098v-.22628c0-2.59284-.93073-3.63536-3.10063-3.63536-1.91533,0-3.09928,1.01424-3.21243,2.78949h-2.56455c.198-2.87435,2.45141-4.76274,5.74869-4.76274,3.86164,0,5.552,1.74831,5.552,5.86183v3.80373a16.84822,16.84822,0,0,0,.4795,4.76273h-2.508a22.18812,22.18812,0,0,1-.22628-2.56455,4.70715,4.70715,0,0,1-4.73445,2.904C266.49639,242.96323,264.608,241.32806,264.608,238.82008Zm9.35711-2.33827V235.776l-3.83336.56436c-2.085.3098-2.98748,1.04253-2.98748,2.42313,0,1.38194,1.04387,2.22647,2.76255,2.22647C272.35822,240.99,273.9651,239.21473,273.9651,236.48181Z"/><path d="M280.86541,228.53494V224.843l2.39484-1.01424v4.70617h3.52221v1.9719h-3.52221v7.80679c0,1.60554.61959,2.31,2.05676,2.31a5.56422,5.56422,0,0,0,1.46545-.198v2.19818a7.2367,7.2367,0,0,1-2.085.25457c-3.04406,0-3.832-1.86011-3.832-4.48123v-7.8903h-2.62112v-1.9719Z"/><path d="M292.16344,222.89805v3.01577h-2.73426v-3.01577Zm-.16971,5.63689V242.6238h-2.39484V228.53494Z"/><path d="M295.093,235.57937c0-4.593,2.59283-7.38386,6.56627-7.38386s6.56627,2.79084,6.56627,7.38386-2.59283,7.38386-6.56627,7.38386S295.093,240.17239,295.093,235.57937Zm10.59628,0c0-3.49393-1.49374-5.29881-4.03-5.29881s-4.03,1.80488-4.03,5.29881,1.49375,5.29881,4.03,5.29881S305.68929,239.0733,305.68929,235.57937Z"/><path d="M313.5769,228.53494v2.78949a4.76034,4.76034,0,0,1,4.70616-3.12892c3.09928,0,4.70617,1.91668,4.70617,5.66518v8.76311H320.593v-8.623c0-2.47835-1.04252-3.74715-3.09928-3.74715-2.33961,0-3.77678,1.88839-3.77678,5.016v7.35422h-2.39484V228.53494Z"/><polygon points="208.449 203.493 201.227 209.389 208.449 215.284 210.554 213.566 206.908 210.604 217.484 210.604 217.484 208.173 206.908 208.173 210.554 205.211 208.449 203.493"/></g></g></svg>