<svg xmlns="http://www.w3.org/2000/svg" viewBox="0 0 219.93198 68.00523"><defs><style>.cls-1{fill:none;}.cls-2{fill:#fff;}</style></defs><title>Ресурс 2</title><g id="Слой_2" data-name="Слой 2"><g id="Layer_1" data-name="Layer 1"><path class="cls-1" d="M211.05561,15.89A7.01377,7.01377,0,1,0,204.042,8.87624,7.02166,7.02166,0,0,0,211.05561,15.89ZM207.88367,4.46742a18.47494,18.47494,0,0,1,2.799-.19295,4.74237,4.74237,0,0,1,3.00585.73075,2.35932,2.35932,0,0,1,.85488,1.94414,2.4662,2.4662,0,0,1-1.641,2.28878v.04134a2.34378,2.34378,0,0,1,1.241,1.73732c.28952,1.04791.57924,2.26121.7583,2.61975H212.751a11.616,11.616,0,0,1-.648-2.16476c-.24828-1.15816-.648-1.47526-1.50293-1.48914h-.63436v3.6539h-2.082Z"/><path class="cls-1" d="M212.46126,7.12851c0-.85476-.579-1.2822-1.54417-1.296a5.2492,5.2492,0,0,0-.95145.06891V8.46606h.8273C211.841,8.46606,212.46126,7.94205,212.46126,7.12851Z"/><polygon class="cls-1" points="97.3 53.56 109.454 32.447 88.341 32.447 76.187 53.56 97.3 53.56"/><polygon class="cls-1" points="22.849 53.56 43.962 53.56 45.837 50.226 24.724 50.226 22.849 53.56"/><path class="cls-2" d="M68.61691,35.78028H33.05835L35.003,32.44667H70.56152l8.334-14.44566H28.89133L0,68.00523H50.00422ZM43.96205,53.55957H22.84916L24.72431,50.226h21.1129Z"/><path class="cls-2" d="M103.34206,68.00523,132.2334,18.001H82.22918L53.33783,68.00523ZM88.34079,32.44667h21.11289l-12.1538,21.1129H76.187Z"/><polygon class="cls-2" points="156.68 68.005 175.293 35.78 151.957 35.78 143.623 50.226 152.513 50.226 150.638 53.56 129.525 53.56 141.679 32.447 177.237 32.447 185.571 18.001 135.567 18.001 106.676 68.005 156.68 68.005"/><path class="cls-2" d="M211.05561,17.75248a8.87624,8.87624,0,1,0-8.8761-8.87624A8.88639,8.88639,0,0,0,211.05561,17.75248Zm0-15.89A7.01377,7.01377,0,1,1,204.042,8.87624,7.02166,7.02166,0,0,1,211.05561,1.86247Z"/><path class="cls-2" d="M209.96564,9.98265H210.6c.85488.01388,1.25465.331,1.50293,1.48914a11.616,11.616,0,0,0,.648,2.16476h2.15077c-.17906-.35854-.46878-1.57184-.7583-2.61975a2.34378,2.34378,0,0,0-1.241-1.73732V9.23814a2.4662,2.4662,0,0,0,1.641-2.28878,2.35932,2.35932,0,0,0-.85488-1.94414,4.74237,4.74237,0,0,0-3.00585-.73075,18.47494,18.47494,0,0,0-2.799.19295v9.16913h2.082Zm0-4.08122a5.2492,5.2492,0,0,1,.95145-.06891c.96513.01379,1.54417.44123,1.54417,1.296,0,.81354-.62029,1.33755-1.66832,1.33755h-.8273Z"/></g></g></svg>