<svg xmlns="http://www.w3.org/2000/svg" viewBox="0 0 487.87 134.57"><title>Ресурс 3</title><g id="Слой_2" data-name="Слой 2"><g id="Layer_1" data-name="Layer 1"><path d="M7.58,84.49c-.94-3.1-2-6.16-2.78-9.29C3.06,68.32.45,61.46,0,54.48c-.71-12,7.43-20.28,19.45-19.54,7.13.44,14.11,3.35,21.17,5.1,3,.74,6,1.9,9,2A42.77,42.77,0,0,1,92,84.43c0,2.86,1.08,5.74,1.85,8.56,1.79,6.54,4.55,13,5.39,19.6,1.68,13.3-6.79,22.08-20.2,22a24.12,24.12,0,0,1-5.94-.61c-11.47-3-22.86-6.05-34.55-8.38C19.39,121.76,6.74,104,7.58,84.49Zm49.9,42.41c8.43,4.08,16.35,6.65,25.06,5.8,7.79-.76,12.92-5.23,14.55-12.83,2.07-9.61-1.27-18.16-5.47-27.74C86.9,110.9,75.73,122,57.48,126.9ZM7.37,76.5c4.83-18.21,16.1-29.21,34.28-34.09-8.38-3.8-15.89-6.36-24.12-5.78C8.32,37.28,2.43,43,1.67,52.18,1,60.57,3.39,68.23,7.37,76.5Zm20.22,7H48.21V65.66c-16.62-1.84-20.87,1.56-21,16.5A6.32,6.32,0,0,0,27.59,83.45Zm23.06,21.64c5.8-.84,10.9-1.42,15.92-2.4,1.29-.26,3.1-1.63,3.35-2.78,1-4.47,1.41-9.06,2.09-13.92H50.65Zm-2.5-.8V85.65H27.43C27.61,93.83,39.93,104.79,48.15,104.29Zm2.46-20.92H71.55C70.65,75,58.39,64.69,50.61,65.7Zm33.18-20.7a41.07,41.07,0,0,0-24.13-17.5c2.54,3.46,5.28,6,6.48,9.07C69.28,62.37,74.81,65,83.79,62.67ZM15.43,106.53c5.09,9.11,15.72,16.6,22.79,16.94-2.47-4-5.28-8.21-7.78-12.62-1.72-3-3.79-4.82-7.51-4.37A65.84,65.84,0,0,1,15.43,106.53ZM50.77,46.89c-1.15,13.76,4.87,18.79,18.65,15.2Zm-2.46,75.53c.74-13.68-4.87-18.13-18.45-14.9ZM30.24,63.31c5.8,0,10.45.09,15.09-.07,1.08,0,2.13-1,3.2-1.49-.61-1.23-.89-3.07-1.87-3.58-3.61-1.89-7.44-3.33-11.57-5.11ZM72.3,68.46c.61,15.15,2.12,16.75,14.22,14.61C82.13,77.67,79.83,70.79,72.3,68.46Zm-21.55,38c-.11,4.4,5.58,9.3,11.11,9.1,5.2-.19,4.14-5.51,6.67-9.1H50.75Zm-24-4.92c-1.09-15.9-2.65-17.53-14-15.14C17,91.69,19.5,98.24,26.75,101.55ZM17.9,62.84c10.55,1.45,12.59,0,14.28-9.85C23.24,52.14,18.82,55.07,17.9,62.84Zm48.17,53.58c9.57,1.24,14.13-1.72,15-9.48C70.74,105.59,70.74,105.59,66.07,116.42ZM49.29,57.09c-2-4.65,2-10.2-3.09-11.75-2.55-.78-6.55,3.19-9.9,5L37,51.82Zm.1,55.42c1.13,4.65,1,10.22,3.07,11.3,4.32,2.21,6.75-2.76,9.84-5.75Zm28-26.86,5.38,12.06C85.05,95,86.87,93,88.36,90.88c2-2.94,1-5-2.62-5.21C83.26,85.54,80.78,85.65,77.4,85.65ZM18.07,72.1l5.62,11.82,1.38-.38c.55-4.87,1.09-9.74,1.72-15.29Zm-1.15,1.36c-3.55,1.71-7.86,4.27-6.71,7.82,1.67,5.18,6.93,1.41,11.2,2.62ZM75.06,85.7l-1.16.23c-.62,4.94-1.25,9.88-1.88,14.91,8.76-1.79,9.33-2.89,5.6-10.51C76.85,88.75,75.92,87.24,75.06,85.7Zm-.91-20L88.47,75.5C88.05,65.77,86.15,64.26,74.15,65.65ZM10,93.88c3.11,12.74,3.18,11.24,15,10Zm27.38,9.49L28,94.88C28.55,102.47,28.93,102.86,37.34,103.37Zm-2,11.2c2.56,5.75,6.32,9.94,13.28,9.92ZM70.49,75.83c.45-8.11-1-9.63-8.61-9C64.77,69.84,67.54,72.75,70.49,75.83Zm-56.43-12L9.48,75.48C13.72,73.15,18.38,71,14.06,63.79Zm70.57,42.1c1.79-4.46,3.16-7.87,4.54-11.29C84.65,96.75,80.77,99.16,84.63,105.89ZM63.37,54.52C61.83,48.91,56.87,45,49.7,44.34ZM17.58,65.46,18.15,70l9.28-3.82-.1-.69Zm21.7-20.78L26.6,50.44C33,52.45,36.31,50.32,39.28,44.68Zm41.49,55-9.34,4,.27.76h10Zm-63-3.33-8-10.93C9.45,91.39,13.21,94.31,17.8,96.35Zm41.61,28.42,12.2-5.32C65.41,117.24,62.23,119.54,59.41,124.77Z"/><path d="M.41,12.46l2.15-.25A3.13,3.13,0,0,0,5.81,15c2.12,0,3.37-1.43,3.37-3.78s-1.11-4-3.32-4A3.16,3.16,0,0,0,2.65,9.85l-2-.21,1-9.29h8.86v1.8H3.18l-.6,5.44A4,4,0,0,1,6.36,5.45c3.05,0,4.89,2.14,4.89,5.6a5.3,5.3,0,0,1-5.56,5.68A5,5,0,0,1,.41,12.46Z"/><path d="M23.9,8.05c0,4.89-1.59,8.68-5.7,8.68-2.93,0-4.71-1.5-5.21-4.2l2.07-.46c.33,1.75,1.18,2.93,3.16,2.93,2.59,0,3.56-2.63,3.6-6.65A4.21,4.21,0,0,1,18,10.41,4.8,4.8,0,0,1,12.8,5.26,5,5,0,0,1,18.09,0C22,0,23.9,2.77,23.9,8.05Zm-2.12-2.4c-.23-1.91-1.11-3.92-3.72-3.92-1.91,0-3.18,1.41-3.18,3.51a3.15,3.15,0,0,0,3.28,3.43A3.78,3.78,0,0,0,21.78,5.65Z"/><path d="M29.39,16.38V13.43h3.07v2.95Z"/><path d="M74.21,8.05c0,4.89-1.59,8.68-5.7,8.68-2.93,0-4.71-1.5-5.22-4.2l2.08-.46c.32,1.75,1.18,2.93,3.16,2.93,2.59,0,3.55-2.63,3.6-6.65a4.22,4.22,0,0,1-3.87,2.06,4.8,4.8,0,0,1-5.15-5.15A5,5,0,0,1,68.39,0C72.34,0,74.21,2.77,74.21,8.05Zm-2.13-2.4c-.23-1.91-1.1-3.92-3.71-3.92-1.91,0-3.18,1.41-3.18,3.51a3.15,3.15,0,0,0,3.27,3.43A3.77,3.77,0,0,0,72.08,5.65Z"/><path d="M81.32,10.08c2-2,2.72-3.3,2.72-5.21a3,3,0,1,0-5.93-.19,8.2,8.2,0,0,0,.18,1.48L76.22,6a5,5,0,0,1-.16-1.29C76.06,1.82,78,0,81.22,0s5,1.73,5,4.85c0,2.26-1.13,4.22-3.6,6.5a33.52,33.52,0,0,1-4,3.16h7.73v1.87H75.87V14.67A59.41,59.41,0,0,0,81.32,10.08Z"/><path d="M93.89,10.08c2-2,2.73-3.3,2.73-5.21a3,3,0,1,0-5.93-.19,8.2,8.2,0,0,0,.18,1.48L88.79,6a5.42,5.42,0,0,1-.16-1.29C88.63,1.82,90.57,0,93.8,0s5,1.73,5,4.85c0,2.26-1.14,4.22-3.6,6.5a33.52,33.52,0,0,1-4,3.16H99v1.87H88.45V14.67A59.51,59.51,0,0,0,93.89,10.08Z"/><path d="M112.26,8.38c0,5.9-2.21,8.35-5.86,8.35s-5.84-2.45-5.86-8.35S102.76,0,106.4,0,112.24,2.45,112.26,8.38Zm-9.69,0a14,14,0,0,0,.35,3.39l6.34-8.47a3,3,0,0,0-2.86-1.57C104.12,1.73,102.59,3.28,102.57,8.38Zm7.66,0a14.47,14.47,0,0,0-.39-3.67l-6.41,8.51a3.08,3.08,0,0,0,3,1.78C108.69,15,110.21,13.4,110.23,8.38Z"/><path d="M124.45,11.14c0,3.35-2.15,5.59-5.29,5.59-3.83,0-5.76-2.77-5.76-8,0-5.58,2.12-8.72,6-8.72a4.55,4.55,0,0,1,4.89,4l-2.07.46c-.37-1.85-1.32-2.7-2.84-2.7-2.54,0-3.83,2.17-3.92,6.25a4.36,4.36,0,0,1,4.06-2.3C122.51,5.68,124.45,7.84,124.45,11.14Zm-2.08,0c0-2.29-1.25-3.76-3.28-3.76-1.75,0-3,1.13-3.6,3.25.26,2.63,1.62,4.34,3.7,4.34S122.37,13.5,122.37,11.17Z"/><path d="M137.09,8.05c0,4.89-1.59,8.68-5.7,8.68-2.93,0-4.7-1.5-5.21-4.2l2.08-.46c.32,1.75,1.17,2.93,3.16,2.93C134,15,135,12.37,135,8.35a4.24,4.24,0,0,1-3.88,2.06A4.8,4.8,0,0,1,126,5.26,5,5,0,0,1,131.28,0C135.22,0,137.09,2.77,137.09,8.05ZM135,5.65c-.23-1.91-1.11-3.92-3.71-3.92-1.92,0-3.19,1.41-3.19,3.51a3.15,3.15,0,0,0,3.28,3.43A3.78,3.78,0,0,0,135,5.65Z"/><path d="M151.1,11.81l2-.25A3.37,3.37,0,0,0,156.78,15c2.17,0,3.44-1.16,3.44-3.16,0-1.71-1.2-2.93-3.51-2.93h-1V7.2h.92a2.69,2.69,0,0,0,3-2.82c0-1.63-1-2.65-2.95-2.65-2.12,0-3.37,1.38-3.37,3.72L151.4,5c0-3.09,2.15-5,5.42-5s4.92,1.73,4.92,4.38A3.6,3.6,0,0,1,159,7.82a3.79,3.79,0,0,1,3.32,4c0,2.9-2.17,4.89-5.58,4.89S151.19,14.67,151.1,11.81Z"/><path d="M175.15,8.38c0,5.9-2.22,8.35-5.86,8.35s-5.84-2.45-5.86-8.35S165.64,0,169.29,0,175.12,2.45,175.15,8.38Zm-9.69,0a14,14,0,0,0,.34,3.39l6.35-8.47a3,3,0,0,0-2.86-1.57C167,1.73,165.48,3.28,165.46,8.38Zm7.66,0a14,14,0,0,0-.4-3.67l-6.41,8.51a3.1,3.1,0,0,0,3,1.78C171.57,15,173.09,13.4,173.12,8.38Z"/><path d="M180.32,16.38V13.43h3.07v2.95Z"/><path d="M214,11.81l2-.25A3.36,3.36,0,0,0,219.66,15c2.17,0,3.44-1.16,3.44-3.16,0-1.71-1.2-2.93-3.51-2.93h-1V7.2h.92a2.7,2.7,0,0,0,3-2.82c0-1.63-1-2.65-3-2.65-2.12,0-3.37,1.38-3.37,3.72L214.29,5c0-3.09,2.14-5,5.42-5,3.11,0,4.91,1.73,4.91,4.38a3.58,3.58,0,0,1-2.77,3.44,3.8,3.8,0,0,1,3.33,4c0,2.9-2.17,4.89-5.59,4.89S214.08,14.67,214,11.81Z"/><path d="M226.79,12.46l2.15-.25A3.14,3.14,0,0,0,232.19,15c2.13,0,3.37-1.43,3.37-3.78s-1.11-4-3.32-4A3.16,3.16,0,0,0,229,9.85l-2-.21L228,.35h8.86v1.8h-7.29L229,7.59a4,4,0,0,1,3.79-2.14c3,0,4.89,2.14,4.89,5.6a5.3,5.3,0,0,1-5.56,5.68A5,5,0,0,1,226.79,12.46Z"/><path d="M239.37,12.46l2.15-.25A3.13,3.13,0,0,0,244.77,15c2.12,0,3.37-1.43,3.37-3.78s-1.11-4-3.32-4a3.16,3.16,0,0,0-3.21,2.67l-2-.21.95-9.29h8.86v1.8h-7.29l-.6,5.44a4,4,0,0,1,3.78-2.14c3.05,0,4.89,2.14,4.89,5.6a5.3,5.3,0,0,1-5.56,5.68A5,5,0,0,1,239.37,12.46Z"/><path d="M262.79,11.14c0,3.35-2.14,5.59-5.28,5.59-3.83,0-5.77-2.77-5.77-8,0-5.58,2.12-8.72,6-8.72a4.55,4.55,0,0,1,4.89,4l-2.08.46c-.37-1.85-1.31-2.7-2.84-2.7-2.53,0-3.83,2.17-3.92,6.25a4.38,4.38,0,0,1,4.06-2.3C260.85,5.68,262.79,7.84,262.79,11.14Zm-2.07,0c0-2.29-1.25-3.76-3.28-3.76-1.75,0-3.05,1.13-3.6,3.25.25,2.63,1.61,4.34,3.69,4.34S260.72,13.5,260.72,11.17Z"/><path d="M264.29,11.81l2-.25A3.36,3.36,0,0,0,270,15c2.17,0,3.44-1.16,3.44-3.16,0-1.71-1.2-2.93-3.51-2.93h-1V7.2h.92a2.69,2.69,0,0,0,3-2.82c0-1.63-1-2.65-3-2.65-2.12,0-3.37,1.38-3.37,3.72L264.59,5c0-3.09,2.15-5,5.43-5,3.11,0,4.91,1.73,4.91,4.38a3.6,3.6,0,0,1-2.77,3.44,3.79,3.79,0,0,1,3.32,4c0,2.9-2.16,4.89-5.58,4.89S264.39,14.67,264.29,11.81Z"/><path d="M282.55,10.08c2-2,2.72-3.3,2.72-5.21a3,3,0,1,0-5.93-.19,7.48,7.48,0,0,0,.19,1.48L277.45,6a5,5,0,0,1-.16-1.29c0-2.84,1.94-4.66,5.16-4.66s5,1.73,5,4.85c0,2.26-1.13,4.22-3.6,6.5a33.52,33.52,0,0,1-3.95,3.16h7.73v1.87H277.1V14.67A59.41,59.41,0,0,0,282.55,10.08Z"/><path d="M122,86.41a4,4,0,0,1,2.11-3.55,15.23,15.23,0,0,1,5-1.23l2.8-.33v-.24c0-2.77-1-3.88-3.31-3.88-2,0-3.31,1.08-3.43,3h-2.74c.21-3.07,2.62-5.09,6.14-5.09,4.12,0,5.92,1.87,5.92,6.26v4.06a17.54,17.54,0,0,0,.52,5.08h-2.68a23.72,23.72,0,0,1-.24-2.73c-.69,1.92-2.59,3.09-5.05,3.09C124,90.83,122,89.09,122,86.41Zm10-2.49v-.75l-4.09.6c-2.23.33-3.19,1.11-3.19,2.58s1.11,2.38,3,2.38C130.28,88.73,132,86.83,132,83.92Z"/><path d="M142.31,69.42v3.22h-2.92V69.42Zm-.18,6v15h-2.55v-15Z"/><path d="M146.19,83c0-4.63,2.65-7.88,6.41-7.88A4.68,4.68,0,0,1,157,77.66v-9h2.55v21.8h-2.4V87.68a5,5,0,0,1-4.88,3.15C148.66,90.83,146.19,87.68,146.19,83Zm10.89.37v-.7c0-3.28-1.57-5.29-4.09-5.29S148.9,79.41,148.9,83s1.53,5.63,4.09,5.63S157.08,86.53,157.08,83.32Z"/><path d="M171.6,83c0-4.9,2.64-7.88,6.92-7.88a5.76,5.76,0,0,1,6.19,5.48l-2.62.3c-.27-2.29-1.59-3.55-3.63-3.55-2.59,0-4.15,2.11-4.15,5.62s1.56,5.69,4.24,5.69c2,0,3.3-1.23,3.69-3.58l2.44.39c-.54,3.43-2.8,5.41-6.16,5.41C174.31,90.83,171.6,87.77,171.6,83Z"/><path d="M187.42,86.41a4,4,0,0,1,2.1-3.55,15.3,15.3,0,0,1,5-1.23l2.8-.33v-.24c0-2.77-1-3.88-3.31-3.88-2,0-3.31,1.08-3.43,3H187.9c.21-3.07,2.61-5.09,6.13-5.09,4.12,0,5.93,1.87,5.93,6.26v4.06a18,18,0,0,0,.51,5.08h-2.68a23.72,23.72,0,0,1-.24-2.73c-.69,1.92-2.59,3.09-5.05,3.09C189.43,90.83,187.42,89.09,187.42,86.41Zm10-2.49v-.75l-4.09.6c-2.23.33-3.19,1.11-3.19,2.58s1.12,2.38,2.95,2.38C195.69,88.73,197.4,86.83,197.4,83.92Z"/><path d="M207.38,75.44v2.79a5.16,5.16,0,0,1,4.9-3.16c3.64,0,6.08,3.13,6.08,7.88s-2.59,7.88-6.23,7.88a4.89,4.89,0,0,1-4.6-2.73v8.24H205V75.44ZM215.65,83c0-3.54-1.5-5.62-4-5.62s-4.15,2-4.15,5.23v.73c0,3.24,1.57,5.29,4.06,5.29S215.65,86.47,215.65,83Z"/><path d="M221.06,86.2l2.59-.45c.36,1.9,1.77,3,4,3,2,0,3.13-1,3.13-2.29s-.81-1.86-2.17-2.1l-3-.54c-2.55-.48-4-1.93-4-4.21,0-2.59,2.17-4.52,5.72-4.52,3.37,0,5.65,1.54,6,4.06l-2.52.58a3.27,3.27,0,0,0-3.55-2.56c-1.93,0-3.1.84-3.1,2.32,0,1.26.84,1.86,2.32,2.13l2.91.54c2.71.51,3.91,1.9,3.91,4.09,0,2.71-2.07,4.6-5.74,4.6S221.57,89.18,221.06,86.2Z"/><path d="M237.06,85V75.44h2.56v9.29c0,2.52,1.08,3.91,3.07,3.91,2.4,0,4-2,4-5.11V75.44h2.55v15h-2.4V87.65a5,5,0,0,1-4.67,3.18C238.41,90.83,237.06,88.55,237.06,85Z"/><path d="M254.83,90.47V68.67h2.56v21.8Z"/><path d="M264.16,83.71c0,2.94,1.8,4.87,4.48,4.87a4,4,0,0,0,4-2.86l2.1.93a6.25,6.25,0,0,1-6.28,4.18c-4.3,0-6.86-2.73-6.86-7.7s2.52-8.06,6.83-8.06c4.06,0,6.4,2.32,6.4,6.83v1.81Zm4.21-6.62c-2.65,0-4.16,1.71-4.21,4.54h8.08V81.3C272.24,78.53,270.83,77.09,268.37,77.09Z"/><path d="M289.59,69.42v3.22h-2.91V69.42Zm-.18,6v15h-2.55v-15Z"/><path d="M293.47,86.2l2.59-.45c.36,1.9,1.77,3,4,3,2,0,3.13-1,3.13-2.29s-.82-1.86-2.17-2.1L298,83.8c-2.55-.48-4-1.93-4-4.21,0-2.59,2.17-4.52,5.72-4.52,3.37,0,5.65,1.54,5.95,4.06l-2.52.58a3.27,3.27,0,0,0-3.55-2.56c-1.93,0-3.1.84-3.1,2.32,0,1.26.84,1.86,2.32,2.13l2.91.54c2.71.51,3.91,1.9,3.91,4.09,0,2.71-2.07,4.6-5.74,4.6S294,89.18,293.47,86.2Z"/><path d="M324.69,75.07a3.26,3.26,0,0,1,.54,0v2.5h-.12a4.39,4.39,0,0,0-3.31,1.17c-1.44,1.45-1.51,3.46-1.51,5.27v6.43h-2.55v-15h2.38v3.42C320.84,76.76,322.4,75.07,324.69,75.07Z"/><path d="M329.74,83.71c0,2.94,1.8,4.87,4.48,4.87a4,4,0,0,0,4-2.86l2.1.93A6.24,6.24,0,0,1,334,90.83c-4.3,0-6.86-2.73-6.86-7.7s2.53-8.06,6.83-8.06c4.06,0,6.4,2.32,6.4,6.83v1.81ZM334,77.09c-2.65,0-4.15,1.71-4.21,4.54h8.09V81.3C337.83,78.53,336.41,77.09,334,77.09Z"/><path d="M343.27,86.41a4,4,0,0,1,2.1-3.55,15.37,15.37,0,0,1,5.06-1.23l2.79-.33v-.24c0-2.77-1-3.88-3.31-3.88-2,0-3.3,1.08-3.42,3h-2.74c.21-3.07,2.62-5.09,6.13-5.09,4.12,0,5.93,1.87,5.93,6.26v4.06a18,18,0,0,0,.51,5.08h-2.68a23.72,23.72,0,0,1-.24-2.73c-.69,1.92-2.58,3.09-5,3.09C345.28,90.83,343.27,89.09,343.27,86.41Zm10-2.49v-.75l-4.09.6c-2.22.33-3.18,1.11-3.18,2.58s1.11,2.38,2.94,2.38C351.54,88.73,353.25,86.83,353.25,83.92Z"/><path d="M359.48,83c0-4.63,2.64-7.88,6.4-7.88a4.66,4.66,0,0,1,4.42,2.59v-9h2.56v21.8h-2.41V87.68a5,5,0,0,1-4.87,3.15C361.94,90.83,359.48,87.68,359.48,83Zm10.88.37v-.7c0-3.28-1.56-5.29-4.09-5.29s-4.09,2.08-4.09,5.62,1.54,5.63,4.09,5.63S370.36,86.53,370.36,83.32Z"/><path d="M377.1,96.37V94.11a6.89,6.89,0,0,0,1.08.06c1.8,0,2.74-.81,3.43-2.76l.39-1.12-6-14.85h2.86l3.85,10.46a13.2,13.2,0,0,1,.51,1.78h.06c.09-.43.27-1,.51-1.78l3.49-10.46h2.77l-5.87,16c-1.38,3.78-3.18,5-5.71,5A7.36,7.36,0,0,1,377.1,96.37Z"/><path d="M126.58,113.63v12.93H124V113.63h-2.77v-2.11H124v-2.38a4.22,4.22,0,0,1,4.39-4.57,7.53,7.53,0,0,1,1.92.21V107a10.13,10.13,0,0,0-1.59-.15c-1.53,0-2.17.84-2.17,2.67v2h3.76v2.11Z"/><path d="M132.45,119c0-4.9,2.76-7.88,7-7.88s7,3,7,7.88-2.76,7.88-7,7.88S132.45,123.94,132.45,119Zm11.3,0c0-3.73-1.59-5.66-4.3-5.66s-4.3,1.93-4.3,5.66,1.6,5.65,4.3,5.65S143.75,122.77,143.75,119Z"/><path d="M157.47,111.16a3.26,3.26,0,0,1,.54,0v2.5h-.12a4.41,4.41,0,0,0-3.31,1.17c-1.44,1.44-1.5,3.46-1.5,5.26v6.44h-2.56v-15h2.38V115C153.62,112.84,155.18,111.16,157.47,111.16Z"/><path d="M169.28,126.56V104.75h2.56v21.81Z"/><path d="M176.05,122.5a4,4,0,0,1,2.1-3.55,15.58,15.58,0,0,1,5.06-1.24l2.79-.33v-.24c0-2.76-1-3.88-3.3-3.88-2,0-3.31,1.09-3.43,3h-2.74c.21-3.07,2.62-5.08,6.13-5.08,4.13,0,5.93,1.86,5.93,6.25v4.06a18.1,18.1,0,0,0,.51,5.09h-2.68a23.9,23.9,0,0,1-.24-2.74c-.69,1.93-2.58,3.1-5.05,3.1C178.06,126.92,176.05,125.17,176.05,122.5Zm10-2.5v-.75l-4.09.6c-2.22.33-3.18,1.11-3.18,2.59s1.11,2.37,2.94,2.37C184.32,124.81,186,122.92,186,120Z"/><path d="M196,111.52v3a5.07,5.07,0,0,1,5-3.34c3.31,0,5,2,5,6v9.36H203.5v-9.21c0-2.64-1.11-4-3.3-4-2.5,0-4,2-4,5.36v7.85h-2.56v-15Z"/><path d="M209.67,119c0-4.63,2.64-7.88,6.4-7.88a4.64,4.64,0,0,1,4.42,2.59v-9h2.56v21.81h-2.41v-2.8a5,5,0,0,1-4.87,3.16C212.13,126.92,209.67,123.76,209.67,119Zm10.88.36v-.69c0-3.28-1.56-5.29-4.09-5.29s-4.09,2.07-4.09,5.62,1.54,5.62,4.09,5.62S220.55,122.62,220.55,119.4Z"/><path d="M231.35,105.5v3.22h-2.92V105.5Zm-.18,6v15h-2.56v-15Z"/><path d="M239,111.52v3a5.07,5.07,0,0,1,5-3.34c3.31,0,5,2,5,6v9.36h-2.56v-9.21c0-2.64-1.11-4-3.3-4-2.5,0-4,2-4,5.36v7.85h-2.56v-15Z"/><path d="M263.43,112.69a4.88,4.88,0,0,1,1.39,3.55c0,2.92-2.08,5.14-5.57,5.14a6.57,6.57,0,0,1-2.88-.63,1.63,1.63,0,0,0-1.09,1.48c0,.84.64,1.53,2.5,1.53h3.67c3.4,0,5.11,1.53,5.11,4.24s-2.22,4.78-7.46,4.78-6.76-2-6.76-4.12a3.22,3.22,0,0,1,2.43-3.12,2.73,2.73,0,0,1-1.74-2.62,3.09,3.09,0,0,1,2.13-3,5,5,0,0,1-1.47-3.67c0-2.92,2.08-5.08,5.56-5.08a6.86,6.86,0,0,1,2.95.63,3.53,3.53,0,0,1,3.58-2.74,3.73,3.73,0,0,1,1,.12v2.23a5.38,5.38,0,0,0-1.08-.12A2.15,2.15,0,0,0,263.43,112.69Zm-7,13.27a2.45,2.45,0,0,0-1.6,2.25c0,1.87,1.87,2.47,4.57,2.47,3.67,0,4.61-1.14,4.61-2.5S263,126,260.88,126h-3.19C257.24,126,256.82,126,256.43,126Zm6-9.69a3.16,3.16,0,1,0-3.16,3.16A3,3,0,0,0,262.41,116.27Z"/><path d="M276.54,119c0-4.9,2.77-7.88,7-7.88s7,3,7,7.88-2.77,7.88-7,7.88S276.54,123.94,276.54,119Zm11.31,0c0-3.73-1.59-5.66-4.3-5.66s-4.3,1.93-4.3,5.66,1.59,5.65,4.3,5.65S287.85,122.77,287.85,119Z"/><path d="M297,111.52v3a5.08,5.08,0,0,1,5-3.34c3.31,0,5,2,5,6v9.36h-2.56v-9.21c0-2.64-1.11-4-3.31-4-2.49,0-4,2-4,5.36v7.85h-2.55v-15Z"/><path d="M322.25,111.52v2.8a5.15,5.15,0,0,1,4.9-3.16c3.64,0,6.08,3.13,6.08,7.88s-2.59,7.88-6.23,7.88a4.88,4.88,0,0,1-4.6-2.74v8.24h-2.56v-20.9Zm8.27,7.52c0-3.55-1.5-5.62-4-5.62s-4.15,2-4.15,5.23v.72c0,3.25,1.56,5.29,4.06,5.29S330.52,122.56,330.52,119Z"/><path d="M337.44,126.56V104.75H340v21.81Z"/><path d="M344.2,122.5a3.94,3.94,0,0,1,2.11-3.55,15.44,15.44,0,0,1,5.05-1.24l2.8-.33v-.24c0-2.76-1-3.88-3.31-3.88-2.05,0-3.31,1.09-3.43,3h-2.74c.21-3.07,2.62-5.08,6.14-5.08,4.12,0,5.92,1.86,5.92,6.25v4.06a18.1,18.1,0,0,0,.51,5.09h-2.67a23.9,23.9,0,0,1-.24-2.74c-.7,1.93-2.59,3.1-5.06,3.1C346.22,126.92,344.2,125.17,344.2,122.5Zm10-2.5v-.75l-4.09.6c-2.23.33-3.19,1.11-3.19,2.59s1.11,2.37,2.95,2.37C352.47,124.81,354.19,122.92,354.19,120Z"/><path d="M364.17,111.52v3a5.07,5.07,0,0,1,5-3.34c3.31,0,5,2,5,6v9.36h-2.55v-9.21c0-2.64-1.12-4-3.31-4-2.5,0-4,2-4,5.36v7.85h-2.56v-15Z"/><path d="M380.38,119.79c0,2.95,1.8,4.87,4.48,4.87a4,4,0,0,0,4-2.85l2.1.93a6.26,6.26,0,0,1-6.28,4.18c-4.3,0-6.86-2.74-6.86-7.7s2.53-8.06,6.83-8.06c4.06,0,6.4,2.31,6.4,6.83v1.8Zm4.21-6.62c-2.65,0-4.15,1.72-4.21,4.54h8.09v-.33C388.47,114.62,387.05,113.17,384.59,113.17Z"/><path d="M395.8,111.52v-3.94l2.56-1.08v5h3.76v2.11h-3.76V122c0,1.71.66,2.46,2.19,2.46a6,6,0,0,0,1.57-.21v2.35a7.85,7.85,0,0,1-2.23.27c-3.25,0-4.09-2-4.09-4.78v-8.42H393v-2.11Z"/><path d="M414.9,119.79c0,2.95,1.8,4.87,4.48,4.87a4,4,0,0,0,4-2.85l2.1.93a6.26,6.26,0,0,1-6.28,4.18c-4.3,0-6.86-2.74-6.86-7.7s2.53-8.06,6.83-8.06c4.06,0,6.4,2.31,6.4,6.83v1.8Zm4.21-6.62c-2.65,0-4.16,1.72-4.21,4.54H423v-.33C423,114.62,421.57,113.17,419.11,113.17Z"/><path d="M428.43,122.5a4,4,0,0,1,2.1-3.55,15.51,15.51,0,0,1,5.05-1.24l2.8-.33v-.24c0-2.76-1-3.88-3.31-3.88-2,0-3.31,1.09-3.43,3h-2.73c.21-3.07,2.61-5.08,6.13-5.08,4.12,0,5.93,1.86,5.93,6.25v4.06a18.1,18.1,0,0,0,.51,5.09H438.8a23.9,23.9,0,0,1-.24-2.74c-.69,1.93-2.58,3.1-5.05,3.1C430.44,126.92,428.43,125.17,428.43,122.5Zm10-2.5v-.75l-4.09.6c-2.22.33-3.19,1.11-3.19,2.59s1.12,2.37,2.95,2.37C436.7,124.81,438.41,122.92,438.41,120Z"/><path d="M452.93,111.16a3.38,3.38,0,0,1,.55,0v2.5h-.12a4.39,4.39,0,0,0-3.31,1.17c-1.45,1.44-1.51,3.46-1.51,5.26v6.44H446v-15h2.37V115C449.08,112.84,450.65,111.16,452.93,111.16Z"/><path d="M457.32,111.52v-3.94l2.56-1.08v5h3.76v2.11h-3.76V122c0,1.71.66,2.46,2.2,2.46a6,6,0,0,0,1.56-.21v2.35a7.76,7.76,0,0,1-2.23.27c-3.25,0-4.09-2-4.09-4.78v-8.42h-2.79v-2.11Z"/><path d="M470.1,104.75v9.6a5,5,0,0,1,4.94-3.19c3.24,0,5,2.07,5,6v9.36h-2.56v-9.18c0-2.64-1.11-4-3.28-4-2.58,0-4.06,2-4.06,5.36v7.85h-2.55V104.75Z"/><path d="M484.36,126.56V123h3.51v3.55Z"/><polygon points="121.64 46.1 131.47 55.93 141.3 46.1 138.44 43.23 133.5 48.19 133.5 33.8 129.45 33.8 129.45 48.19 124.51 43.23 121.64 46.1"/><path d="M184,46a4.38,4.38,0,0,1,0,.51c0,2-3.12,3.13-4.63,3.13H165.1V46.44l-7.61,4.75,7.61,4.74V52.77h14.8c4.34,0,8.06-3.45,8.06-7.08a4.49,4.49,0,0,0-.45-1.95Zm-22.63-2.22a2.74,2.74,0,0,1,0-.5c0-2,3.12-3.13,4.62-3.13h14.35v3.16L188,38.54l-7.62-4.74V37H165.55c-4.35,0-8.06,3.45-8.06,7.08a4.61,4.61,0,0,0,.44,1.94Z"/></g></g></svg>