<svg xmlns="http://www.w3.org/2000/svg" viewBox="0 0 234.18 38.17"><title>Ресурс 2</title><g id="Слой_2" data-name="Слой 2"><g id="Layer_1" data-name="Layer 1"><path d="M0,14.94V12.53H2.39v2.41Z"/><path d="M4.74,14.94V12.53H7.13v2.41Z"/><path d="M9.48,14.94V12.53h2.39v2.41Z"/><path d="M14.22,14.94V12.53h2.39v2.41Z"/><path d="M19,14.94V12.53h2.38v2.41Z"/><path d="M23.69,14.94V12.53h2.39v2.41Z"/><path d="M28.43,14.94V12.53h2.39v2.41Z"/><path d="M33.17,14.94V12.53h2.39v2.41Z"/><path d="M36.46,15.75,42.16.94h1.39L37.83,15.75Z"/><path d="M53.5,2.06V14.94H51.56V2.06H47V.43h11V2.06Z"/><path d="M61.42.12V6.64a3.4,3.4,0,0,1,3.35-2.17c2.21,0,3.37,1.41,3.37,4.11v6.36H66.41V8.71c0-1.8-.76-2.74-2.23-2.74-1.76,0-2.76,1.32-2.76,3.63v5.34H59.69V.12Z"/><path d="M71.82,10.34a3,3,0,0,0,3,3.31,2.75,2.75,0,0,0,2.72-1.94l1.43.63a4.25,4.25,0,0,1-4.27,2.84c-2.92,0-4.66-1.86-4.66-5.23s1.72-5.48,4.64-5.48c2.76,0,4.35,1.58,4.35,4.64v1.23Zm2.86-4.5c-1.8,0-2.82,1.17-2.86,3.09h5.5V8.71C77.32,6.82,76.35,5.84,74.68,5.84Z"/><path d="M88.41,6.15v8.79H86.67V6.15H84.79V4.72h1.88V3.11a2.86,2.86,0,0,1,3-3.11A5.26,5.26,0,0,1,91,.14V1.63a7,7,0,0,0-1.08-.1c-1,0-1.47.58-1.47,1.82V4.72H91V6.15Z"/><path d="M92.49,11.24V4.72h1.74V11c0,1.72.73,2.66,2.08,2.66,1.64,0,2.74-1.39,2.74-3.47V4.72h1.74V14.94H99.15V13A3.41,3.41,0,0,1,96,15.18C93.41,15.18,92.49,13.63,92.49,11.24Z"/><path d="M104.32,4.72V2l1.74-.73V4.72h2.55V6.15h-2.55v5.66c0,1.16.44,1.68,1.49,1.68a4.1,4.1,0,0,0,1.06-.15v1.6a5.38,5.38,0,0,1-1.51.18c-2.21,0-2.78-1.35-2.78-3.25V6.15h-1.9V4.72Z"/><path d="M110.34,11.24V4.72h1.74V11c0,1.72.74,2.66,2.09,2.66,1.63,0,2.73-1.39,2.73-3.47V4.72h1.74V14.94H117V13a3.41,3.41,0,0,1-3.16,2.16C111.26,15.18,110.34,13.63,110.34,11.24Z"/><path d="M126.52,4.47a1.5,1.5,0,0,1,.37,0V6.19h-.08a3,3,0,0,0-2.25.8,4.75,4.75,0,0,0-1,3.57v4.38H121.8V4.72h1.62V7.05A3.38,3.38,0,0,1,126.52,4.47Z"/><path d="M129.44,10.34a3,3,0,0,0,3.05,3.31,2.75,2.75,0,0,0,2.72-1.94l1.43.63a4.26,4.26,0,0,1-4.27,2.84c-2.93,0-4.66-1.86-4.66-5.23s1.71-5.48,4.64-5.48c2.75,0,4.35,1.58,4.35,4.64v1.23Zm2.86-4.5c-1.79,0-2.81,1.17-2.86,3.09h5.5V8.71C134.94,6.82,134,5.84,132.3,5.84Z"/><path d="M53.68,23.72,55.52,31c.08.37.16.8.22,1.21h0c.06-.41.18-.84.26-1.21l1.86-7.29h1.88L61.65,31c.08.37.2.8.27,1.21h0c.06-.41.14-.84.22-1.21L64,23.72h1.8L62.94,33.94H61l-1.95-7.36c-.08-.33-.18-.84-.22-1.14h0a10.47,10.47,0,0,1-.23,1.14l-1.94,7.36h-1.9L51.88,23.72Z"/><path d="M69.51,19.63v2.19h-2V19.63Zm-.12,4.09V33.94H67.65V23.72Z"/><path d="M72.92,23.72V21l1.74-.73v3.41h2.55v1.43H74.66v5.66c0,1.16.45,1.68,1.49,1.68a4,4,0,0,0,1.06-.15v1.6a5.33,5.33,0,0,1-1.51.18c-2.2,0-2.78-1.35-2.78-3.25V25.15H71V23.72Z"/><path d="M81.09,19.12v6.52a3.4,3.4,0,0,1,3.36-2.17c2.2,0,3.37,1.41,3.37,4.11v6.36H86.08V27.71c0-1.8-.76-2.74-2.23-2.74-1.75,0-2.76,1.32-2.76,3.63v5.34H79.36V19.12Z"/><path d="M89.75,28.83c0-3.33,1.88-5.36,4.77-5.36s4.76,2,4.76,5.36-1.88,5.35-4.76,5.35S89.75,32.16,89.75,28.83Zm7.69,0c0-2.54-1.09-3.84-2.92-3.84s-2.93,1.3-2.93,3.84,1.09,3.84,2.93,3.84S97.44,31.36,97.44,28.83Z"/><path d="M101.21,30.24V23.72H103V30c0,1.72.74,2.66,2.09,2.66,1.63,0,2.73-1.39,2.73-3.47v-5.5h1.74V33.94h-1.63V32a3.43,3.43,0,0,1-3.17,2.16C102.13,34.18,101.21,32.63,101.21,30.24Z"/><path d="M113,23.72V21l1.74-.73v3.41h2.55v1.43h-2.55v5.66c0,1.16.45,1.68,1.49,1.68a4,4,0,0,0,1.06-.15v1.6a5.38,5.38,0,0,1-1.51.18c-2.21,0-2.78-1.35-2.78-3.25V25.15h-1.9V23.72Z"/><path d="M125,29.34a3,3,0,0,0,3,3.31,2.74,2.74,0,0,0,2.71-1.94l1.43.63a4.23,4.23,0,0,1-4.26,2.84c-2.93,0-4.66-1.86-4.66-5.23s1.71-5.48,4.63-5.48c2.76,0,4.36,1.58,4.36,4.64v1.23Zm2.86-4.5c-1.79,0-2.82,1.17-2.86,3.09h5.5v-.22C130.49,25.82,129.53,24.84,127.85,24.84Z"/><path d="M133.33,23.72h2l1.86,2.88a6.15,6.15,0,0,1,.59,1.06h0a9.73,9.73,0,0,1,.57-1.06l1.76-2.88h2.13l-3.38,5.07,3.64,5.15H140.5l-2.11-3.15a5,5,0,0,1-.57-1h0a5,5,0,0,1-.59,1l-2.09,3.15h-2.06l3.7-5.28Z"/><path d="M143.27,31.18a2.71,2.71,0,0,1,1.43-2.41,10.26,10.26,0,0,1,3.44-.84l1.9-.22v-.17c0-1.88-.68-2.63-2.25-2.63a2.07,2.07,0,0,0-2.33,2H143.6c.14-2.09,1.78-3.46,4.17-3.46,2.8,0,4,1.27,4,4.25v2.76a12.43,12.43,0,0,0,.35,3.46h-1.82a16.77,16.77,0,0,1-.16-1.86,3.42,3.42,0,0,1-3.43,2.1C144.64,34.18,143.27,33,143.27,31.18Zm6.79-1.7V29l-2.78.41c-1.51.22-2.17.76-2.17,1.76s.76,1.61,2,1.61C148.89,32.75,150.06,31.46,150.06,29.48Z"/><path d="M161.11,24.52a3.33,3.33,0,0,1,.94,2.41,3.45,3.45,0,0,1-3.78,3.49,4.39,4.39,0,0,1-2-.43,1.1,1.1,0,0,0-.74,1c0,.58.43,1.05,1.7,1.05h2.49c2.31,0,3.47,1,3.47,2.88s-1.51,3.25-5.06,3.25-4.6-1.35-4.6-2.8a2.2,2.2,0,0,1,1.65-2.13A1.85,1.85,0,0,1,154,31.46a2.1,2.1,0,0,1,1.45-2,3.38,3.38,0,0,1-1-2.49c0-2,1.41-3.46,3.78-3.46a4.75,4.75,0,0,1,2,.43A2.39,2.39,0,0,1,162.7,22a2.65,2.65,0,0,1,.68.09v1.51a3.81,3.81,0,0,0-.74-.08A1.45,1.45,0,0,0,161.11,24.52Zm-4.76,9a1.65,1.65,0,0,0-1.08,1.53c0,1.27,1.26,1.68,3.1,1.68,2.49,0,3.13-.78,3.13-1.7s-.72-1.47-2.13-1.47h-2.16C156.9,33.57,156.61,33.55,156.35,33.53ZM160.41,27a2.15,2.15,0,0,0-4.29,0,2.05,2.05,0,0,0,2.15,2.16A2,2,0,0,0,160.41,27Z"/><path d="M171.53,24.52a3.33,3.33,0,0,1,.94,2.41,3.45,3.45,0,0,1-3.78,3.49,4.47,4.47,0,0,1-2-.43,1.09,1.09,0,0,0-.73,1c0,.58.43,1.05,1.69,1.05h2.5c2.31,0,3.47,1,3.47,2.88s-1.51,3.25-5.07,3.25S164,36.82,164,35.37a2.2,2.2,0,0,1,1.65-2.13,1.84,1.84,0,0,1-1.18-1.78,2.1,2.1,0,0,1,1.45-2,3.34,3.34,0,0,1-1-2.49c0-2,1.41-3.46,3.78-3.46a4.75,4.75,0,0,1,2,.43A2.39,2.39,0,0,1,173.12,22a2.57,2.57,0,0,1,.67.09v1.51a3.7,3.7,0,0,0-.73-.08A1.44,1.44,0,0,0,171.53,24.52Zm-4.76,9a1.66,1.66,0,0,0-1.09,1.53c0,1.27,1.27,1.68,3.11,1.68,2.49,0,3.12-.78,3.12-1.7s-.71-1.47-2.12-1.47h-2.17C167.32,33.57,167,33.55,166.77,33.53ZM170.83,27a2.15,2.15,0,1,0-2.14,2.14A2,2,0,0,0,170.83,27Z"/><path d="M176.35,29.34a3,3,0,0,0,3,3.31,2.75,2.75,0,0,0,2.72-1.94l1.43.63a4.26,4.26,0,0,1-4.27,2.84c-2.92,0-4.66-1.86-4.66-5.23s1.72-5.48,4.64-5.48c2.75,0,4.35,1.58,4.35,4.64v1.23Zm2.86-4.5c-1.8,0-2.82,1.17-2.86,3.09h5.49v-.22C181.84,25.82,180.88,24.84,179.21,24.84Z"/><path d="M190.67,23.47a1.46,1.46,0,0,1,.36,0v1.69H191a3,3,0,0,0-2.25.8,4.75,4.75,0,0,0-1,3.57v4.38H186V23.72h1.61v2.33A3.39,3.39,0,0,1,190.67,23.47Z"/><path d="M191.85,31.18a2.69,2.69,0,0,1,1.43-2.41,10.25,10.25,0,0,1,3.43-.84l1.9-.22v-.17c0-1.88-.67-2.63-2.25-2.63a2.07,2.07,0,0,0-2.32,2h-1.86c.14-2.09,1.77-3.46,4.16-3.46,2.8,0,4,1.27,4,4.25v2.76a12.06,12.06,0,0,0,.35,3.46H198.9a16.65,16.65,0,0,1-.17-1.86,3.41,3.41,0,0,1-3.43,2.1C193.22,34.18,191.85,33,191.85,31.18Zm6.78-1.7V29l-2.78.41c-1.51.22-2.16.76-2.16,1.76s.75,1.61,2,1.61C197.47,32.75,198.63,31.46,198.63,29.48Z"/><path d="M203.64,23.72V21l1.73-.73v3.41h2.56v1.43h-2.56v5.66c0,1.16.45,1.68,1.49,1.68a4.18,4.18,0,0,0,1.07-.15v1.6a5.41,5.41,0,0,1-1.52.18c-2.2,0-2.77-1.35-2.77-3.25V25.15h-1.9V23.72Z"/><path d="M211.83,19.63v2.19h-2V19.63Zm-.13,4.09V33.94H210V23.72Z"/><path d="M214,28.83c0-3.33,1.88-5.36,4.76-5.36s4.76,2,4.76,5.36-1.88,5.35-4.76,5.35S214,32.16,214,28.83Zm7.68,0c0-2.54-1.08-3.84-2.92-3.84s-2.92,1.3-2.92,3.84,1.08,3.84,2.92,3.84S221.63,31.36,221.63,28.83Z"/><path d="M227.35,23.72v2a3.46,3.46,0,0,1,3.41-2.27c2.25,0,3.42,1.39,3.42,4.11v6.36h-1.74V27.68c0-1.79-.76-2.71-2.25-2.71-1.69,0-2.74,1.37-2.74,3.63v5.34h-1.73V23.72Z"/><polygon points="151.13 5.56 145.9 9.84 151.13 14.11 152.66 12.87 150.01 10.72 157.68 10.72 157.68 8.96 150.01 8.96 152.66 6.81 151.13 5.56"/></g></g></svg>