<svg xmlns="http://www.w3.org/2000/svg" viewBox="0 0 219.93 68.01"><defs><style>.cls-1{fill:none;}</style></defs><title>Ресурс 1</title><g id="Слой_2" data-name="Слой 2"><g id="Layer_1" data-name="Layer 1"><path class="cls-1" d="M211.06,15.89a7,7,0,1,0-7-7A7,7,0,0,0,211.06,15.89ZM207.88,4.47a18.5,18.5,0,0,1,2.8-.2,4.71,4.71,0,0,1,3,.74A2.34,2.34,0,0,1,214.54,7a2.46,2.46,0,0,1-1.64,2.29v0A2.32,2.32,0,0,1,214.14,11c.29,1,.58,2.26.76,2.62h-2.15a12.26,12.26,0,0,1-.65-2.17c-.25-1.16-.65-1.47-1.5-1.49H210v3.66h-2.09Z"/><path class="cls-1" d="M212.46,7.13c0-.86-.58-1.28-1.54-1.3a5,5,0,0,0-.95.07V8.47h.82C211.84,8.47,212.46,7.94,212.46,7.13Z"/><polygon class="cls-1" points="97.3 53.56 109.45 32.45 88.34 32.45 76.19 53.56 97.3 53.56"/><polygon class="cls-1" points="22.85 53.56 43.96 53.56 45.84 50.23 24.72 50.23 22.85 53.56"/><path d="M68.62,35.78H33.06L35,32.45H70.56L78.9,18h-50L0,68H50ZM44,53.56H22.85l1.87-3.33H45.84Z"/><path d="M103.34,68l28.89-50h-50L53.34,68Zm-15-35.56h21.11L97.3,53.56H76.19Z"/><polygon points="156.68 68 175.29 35.78 151.96 35.78 143.62 50.23 152.51 50.23 150.64 53.56 129.53 53.56 141.68 32.45 177.24 32.45 185.57 18 135.57 18 106.68 68 156.68 68"/><path d="M211.06,17.75a8.88,8.88,0,1,0-8.88-8.87A8.88,8.88,0,0,0,211.06,17.75Zm0-15.89a7,7,0,1,1-7,7A7,7,0,0,1,211.06,1.86Z"/><path d="M210,10h.63c.85,0,1.25.33,1.5,1.49a12.26,12.26,0,0,0,.65,2.17h2.15c-.18-.36-.47-1.58-.76-2.62a2.32,2.32,0,0,0-1.24-1.74v0A2.46,2.46,0,0,0,214.54,7,2.34,2.34,0,0,0,213.69,5a4.71,4.71,0,0,0-3-.74,18.5,18.5,0,0,0-2.8.2v9.17H210Zm0-4.08a5,5,0,0,1,.95-.07c1,0,1.54.44,1.54,1.3s-.62,1.34-1.67,1.34H210Z"/></g></g></svg>