<svg xmlns="http://www.w3.org/2000/svg" viewBox="0 0 36.71814 28.7421"><defs><style>.cls-1{fill:#4b4b4b;}</style></defs><title>Ресурс 1</title><g id="Слой_2" data-name="Слой 2"><g id="Слой_1-2" data-name="Слой 1"><path class="cls-1" d="M36.207,11.34828H12.87659a.51112.51112,0,0,1-.36139-.87256l5.91034-5.91034a.51125.51125,0,0,0,0-.7229L14.73273.14973a.51106.51106,0,0,0-.72284,0L.1496,14.01a.51057.51057,0,0,0,0,.72217L14.00989,28.59236a.511.511,0,0,0,.72284,0l3.69281-3.69275a.51125.51125,0,0,0,0-.7229L12.5152,18.26637a.51112.51112,0,0,1,.36139-.87256H36.207a.51114.51114,0,0,0,.51117-.5111V11.85939A.51115.51115,0,0,0,36.207,11.34828Z"/></g></g></svg>